<mxfile host="Electron" modified="2024-03-18T14:15:51.873Z" agent="Mozilla/5.0 (Windows NT 10.0; Win64; x64) AppleWebKit/537.36 (KHTML, like Gecko) draw.io/22.1.11 Chrome/114.0.5735.289 Electron/25.9.8 Safari/537.36" etag="lV3KTNH9BUmj_SQcUpWL" version="22.1.11" type="device" pages="2">
  <diagram id="C5RBs43oDa-KdzZeNtuy" name="Page-1">
    <mxGraphModel dx="607" dy="970" grid="1" gridSize="10" guides="1" tooltips="1" connect="1" arrows="1" fold="1" page="1" pageScale="1" pageWidth="827" pageHeight="1169" math="0" shadow="0">
      <root>
        <mxCell id="WIyWlLk6GJQsqaUBKTNV-0" />
        <mxCell id="WIyWlLk6GJQsqaUBKTNV-1" parent="WIyWlLk6GJQsqaUBKTNV-0" />
        <mxCell id="GtCz0AHIeAAkTLnR1kk_-14" value="" style="edgeStyle=entityRelationEdgeStyle;fontSize=12;html=1;endArrow=ERzeroToMany;startArrow=ERmandOne;rounded=0;startSize=8;endSize=8;curved=1;shadow=1;" parent="WIyWlLk6GJQsqaUBKTNV-1" source="YjaHPiSWW629p1PQR9jl-149" target="YjaHPiSWW629p1PQR9jl-114" edge="1">
          <mxGeometry width="100" height="100" relative="1" as="geometry">
            <mxPoint x="1644" y="1140" as="sourcePoint" />
            <mxPoint x="1744" y="1040" as="targetPoint" />
          </mxGeometry>
        </mxCell>
        <mxCell id="nQtXhlrCFaqhpfJ4FwQe-0" value="&lt;i&gt;TaiKhoan&lt;/i&gt;" style="shape=table;startSize=30;container=1;collapsible=1;childLayout=tableLayout;fixedRows=1;rowLines=0;fontStyle=1;align=center;resizeLast=1;html=1;fontSize=16;fillColor=#f8cecc;strokeColor=#b85450;strokeWidth=1;swimlaneFillColor=none;swimlaneLine=1;shadow=1;rounded=1;arcSize=11;" parent="WIyWlLk6GJQsqaUBKTNV-1" vertex="1">
          <mxGeometry x="1150" y="40" width="180" height="270" as="geometry">
            <mxRectangle x="1040" y="380" width="120" height="30" as="alternateBounds" />
          </mxGeometry>
        </mxCell>
        <mxCell id="YjaHPiSWW629p1PQR9jl-145" value="" style="shape=tableRow;horizontal=0;startSize=0;swimlaneHead=0;swimlaneBody=0;fillColor=none;collapsible=0;dropTarget=0;points=[[0,0.5],[1,0.5]];portConstraint=eastwest;top=0;left=0;right=0;bottom=1;rounded=1;shadow=1;strokeColor=#b85450;strokeWidth=1;align=center;verticalAlign=middle;fontFamily=Helvetica;fontSize=16;fontColor=default;html=1;" parent="nQtXhlrCFaqhpfJ4FwQe-0" vertex="1">
          <mxGeometry y="30" width="180" height="30" as="geometry" />
        </mxCell>
        <mxCell id="YjaHPiSWW629p1PQR9jl-146" value="PK" style="shape=partialRectangle;connectable=0;fillColor=none;top=0;left=0;bottom=0;right=0;fontStyle=1;overflow=hidden;whiteSpace=wrap;html=1;rounded=1;shadow=1;strokeColor=#b85450;strokeWidth=1;align=center;verticalAlign=middle;fontFamily=Helvetica;fontSize=16;fontColor=default;startSize=30;" parent="YjaHPiSWW629p1PQR9jl-145" vertex="1">
          <mxGeometry width="30" height="30" as="geometry">
            <mxRectangle width="30" height="30" as="alternateBounds" />
          </mxGeometry>
        </mxCell>
        <mxCell id="YjaHPiSWW629p1PQR9jl-147" value="IdTaiKhoan" style="shape=partialRectangle;connectable=0;fillColor=none;top=0;left=0;bottom=0;right=0;align=left;spacingLeft=6;fontStyle=5;overflow=hidden;whiteSpace=wrap;html=1;rounded=1;shadow=1;strokeColor=#b85450;strokeWidth=1;verticalAlign=middle;fontFamily=Helvetica;fontSize=16;fontColor=default;startSize=30;" parent="YjaHPiSWW629p1PQR9jl-145" vertex="1">
          <mxGeometry x="30" width="150" height="30" as="geometry">
            <mxRectangle width="150" height="30" as="alternateBounds" />
          </mxGeometry>
        </mxCell>
        <mxCell id="YjaHPiSWW629p1PQR9jl-142" value="" style="shape=tableRow;horizontal=0;startSize=0;swimlaneHead=0;swimlaneBody=0;fillColor=none;collapsible=0;dropTarget=0;points=[[0,0.5],[1,0.5]];portConstraint=eastwest;top=0;left=0;right=0;bottom=0;rounded=1;shadow=1;strokeColor=#b85450;strokeWidth=1;align=center;verticalAlign=middle;fontFamily=Helvetica;fontSize=16;fontColor=default;html=1;" parent="nQtXhlrCFaqhpfJ4FwQe-0" vertex="1">
          <mxGeometry y="60" width="180" height="30" as="geometry" />
        </mxCell>
        <mxCell id="YjaHPiSWW629p1PQR9jl-143" value="FK" style="shape=partialRectangle;connectable=0;fillColor=none;top=0;left=0;bottom=0;right=0;fontStyle=0;overflow=hidden;whiteSpace=wrap;html=1;rounded=1;shadow=1;strokeColor=#b85450;strokeWidth=1;align=center;verticalAlign=middle;fontFamily=Helvetica;fontSize=16;fontColor=default;startSize=30;" parent="YjaHPiSWW629p1PQR9jl-142" vertex="1">
          <mxGeometry width="30" height="30" as="geometry">
            <mxRectangle width="30" height="30" as="alternateBounds" />
          </mxGeometry>
        </mxCell>
        <mxCell id="YjaHPiSWW629p1PQR9jl-144" value="IdVaiTro" style="shape=partialRectangle;connectable=0;fillColor=none;top=0;left=0;bottom=0;right=0;align=left;spacingLeft=6;fontStyle=0;overflow=hidden;whiteSpace=wrap;html=1;rounded=1;shadow=1;strokeColor=#b85450;strokeWidth=1;verticalAlign=middle;fontFamily=Helvetica;fontSize=16;fontColor=default;startSize=30;" parent="YjaHPiSWW629p1PQR9jl-142" vertex="1">
          <mxGeometry x="30" width="150" height="30" as="geometry">
            <mxRectangle width="150" height="30" as="alternateBounds" />
          </mxGeometry>
        </mxCell>
        <mxCell id="nQtXhlrCFaqhpfJ4FwQe-4" value="" style="shape=tableRow;horizontal=0;startSize=0;swimlaneHead=0;swimlaneBody=0;fillColor=none;collapsible=0;dropTarget=0;points=[[0,0.5],[1,0.5]];portConstraint=eastwest;top=0;left=0;right=0;bottom=0;fontSize=16;shadow=1;" parent="nQtXhlrCFaqhpfJ4FwQe-0" vertex="1">
          <mxGeometry y="90" width="180" height="30" as="geometry" />
        </mxCell>
        <mxCell id="nQtXhlrCFaqhpfJ4FwQe-5" value="" style="shape=partialRectangle;connectable=0;fillColor=none;top=0;left=0;bottom=0;right=0;editable=1;overflow=hidden;whiteSpace=wrap;html=1;fontSize=16;shadow=1;" parent="nQtXhlrCFaqhpfJ4FwQe-4" vertex="1">
          <mxGeometry width="30" height="30" as="geometry">
            <mxRectangle width="30" height="30" as="alternateBounds" />
          </mxGeometry>
        </mxCell>
        <mxCell id="nQtXhlrCFaqhpfJ4FwQe-6" value="TenDangNhap" style="shape=partialRectangle;connectable=0;fillColor=none;top=0;left=0;bottom=0;right=0;align=left;spacingLeft=6;overflow=hidden;whiteSpace=wrap;html=1;fontSize=16;shadow=1;" parent="nQtXhlrCFaqhpfJ4FwQe-4" vertex="1">
          <mxGeometry x="30" width="150" height="30" as="geometry">
            <mxRectangle width="150" height="30" as="alternateBounds" />
          </mxGeometry>
        </mxCell>
        <mxCell id="nQtXhlrCFaqhpfJ4FwQe-7" value="" style="shape=tableRow;horizontal=0;startSize=0;swimlaneHead=0;swimlaneBody=0;fillColor=none;collapsible=0;dropTarget=0;points=[[0,0.5],[1,0.5]];portConstraint=eastwest;top=0;left=0;right=0;bottom=0;fontSize=16;shadow=1;" parent="nQtXhlrCFaqhpfJ4FwQe-0" vertex="1">
          <mxGeometry y="120" width="180" height="30" as="geometry" />
        </mxCell>
        <mxCell id="nQtXhlrCFaqhpfJ4FwQe-8" value="" style="shape=partialRectangle;connectable=0;fillColor=none;top=0;left=0;bottom=0;right=0;editable=1;overflow=hidden;whiteSpace=wrap;html=1;fontSize=16;shadow=1;" parent="nQtXhlrCFaqhpfJ4FwQe-7" vertex="1">
          <mxGeometry width="30" height="30" as="geometry">
            <mxRectangle width="30" height="30" as="alternateBounds" />
          </mxGeometry>
        </mxCell>
        <mxCell id="nQtXhlrCFaqhpfJ4FwQe-9" value="Email" style="shape=partialRectangle;connectable=0;fillColor=none;top=0;left=0;bottom=0;right=0;align=left;spacingLeft=6;overflow=hidden;whiteSpace=wrap;html=1;fontSize=16;shadow=1;" parent="nQtXhlrCFaqhpfJ4FwQe-7" vertex="1">
          <mxGeometry x="30" width="150" height="30" as="geometry">
            <mxRectangle width="150" height="30" as="alternateBounds" />
          </mxGeometry>
        </mxCell>
        <mxCell id="nQtXhlrCFaqhpfJ4FwQe-10" value="" style="shape=tableRow;horizontal=0;startSize=0;swimlaneHead=0;swimlaneBody=0;fillColor=none;collapsible=0;dropTarget=0;points=[[0,0.5],[1,0.5]];portConstraint=eastwest;top=0;left=0;right=0;bottom=0;fontSize=16;shadow=1;" parent="nQtXhlrCFaqhpfJ4FwQe-0" vertex="1">
          <mxGeometry y="150" width="180" height="30" as="geometry" />
        </mxCell>
        <mxCell id="nQtXhlrCFaqhpfJ4FwQe-11" value="" style="shape=partialRectangle;connectable=0;fillColor=none;top=0;left=0;bottom=0;right=0;editable=1;overflow=hidden;whiteSpace=wrap;html=1;fontSize=16;shadow=1;" parent="nQtXhlrCFaqhpfJ4FwQe-10" vertex="1">
          <mxGeometry width="30" height="30" as="geometry">
            <mxRectangle width="30" height="30" as="alternateBounds" />
          </mxGeometry>
        </mxCell>
        <mxCell id="nQtXhlrCFaqhpfJ4FwQe-12" value="MatKhau" style="shape=partialRectangle;connectable=0;fillColor=none;top=0;left=0;bottom=0;right=0;align=left;spacingLeft=6;overflow=hidden;whiteSpace=wrap;html=1;fontSize=16;shadow=1;" parent="nQtXhlrCFaqhpfJ4FwQe-10" vertex="1">
          <mxGeometry x="30" width="150" height="30" as="geometry">
            <mxRectangle width="150" height="30" as="alternateBounds" />
          </mxGeometry>
        </mxCell>
        <mxCell id="nQtXhlrCFaqhpfJ4FwQe-41" style="shape=tableRow;horizontal=0;startSize=0;swimlaneHead=0;swimlaneBody=0;fillColor=none;collapsible=0;dropTarget=0;points=[[0,0.5],[1,0.5]];portConstraint=eastwest;top=0;left=0;right=0;bottom=0;fontSize=16;shadow=1;" parent="nQtXhlrCFaqhpfJ4FwQe-0" vertex="1">
          <mxGeometry y="180" width="180" height="30" as="geometry" />
        </mxCell>
        <mxCell id="nQtXhlrCFaqhpfJ4FwQe-42" style="shape=partialRectangle;connectable=0;fillColor=none;top=0;left=0;bottom=0;right=0;editable=1;overflow=hidden;whiteSpace=wrap;html=1;fontSize=16;shadow=1;" parent="nQtXhlrCFaqhpfJ4FwQe-41" vertex="1">
          <mxGeometry width="30" height="30" as="geometry">
            <mxRectangle width="30" height="30" as="alternateBounds" />
          </mxGeometry>
        </mxCell>
        <mxCell id="nQtXhlrCFaqhpfJ4FwQe-43" value="_CreateAt" style="shape=partialRectangle;connectable=0;fillColor=none;top=0;left=0;bottom=0;right=0;align=left;spacingLeft=6;overflow=hidden;whiteSpace=wrap;html=1;fontSize=16;shadow=1;" parent="nQtXhlrCFaqhpfJ4FwQe-41" vertex="1">
          <mxGeometry x="30" width="150" height="30" as="geometry">
            <mxRectangle width="150" height="30" as="alternateBounds" />
          </mxGeometry>
        </mxCell>
        <mxCell id="nQtXhlrCFaqhpfJ4FwQe-44" style="shape=tableRow;horizontal=0;startSize=0;swimlaneHead=0;swimlaneBody=0;fillColor=none;collapsible=0;dropTarget=0;points=[[0,0.5],[1,0.5]];portConstraint=eastwest;top=0;left=0;right=0;bottom=0;fontSize=16;shadow=1;" parent="nQtXhlrCFaqhpfJ4FwQe-0" vertex="1">
          <mxGeometry y="210" width="180" height="30" as="geometry" />
        </mxCell>
        <mxCell id="nQtXhlrCFaqhpfJ4FwQe-45" style="shape=partialRectangle;connectable=0;fillColor=none;top=0;left=0;bottom=0;right=0;editable=1;overflow=hidden;whiteSpace=wrap;html=1;fontSize=16;shadow=1;" parent="nQtXhlrCFaqhpfJ4FwQe-44" vertex="1">
          <mxGeometry width="30" height="30" as="geometry">
            <mxRectangle width="30" height="30" as="alternateBounds" />
          </mxGeometry>
        </mxCell>
        <mxCell id="nQtXhlrCFaqhpfJ4FwQe-46" value="_UpdateAt" style="shape=partialRectangle;connectable=0;fillColor=none;top=0;left=0;bottom=0;right=0;align=left;spacingLeft=6;overflow=hidden;whiteSpace=wrap;html=1;fontSize=16;shadow=1;" parent="nQtXhlrCFaqhpfJ4FwQe-44" vertex="1">
          <mxGeometry x="30" width="150" height="30" as="geometry">
            <mxRectangle width="150" height="30" as="alternateBounds" />
          </mxGeometry>
        </mxCell>
        <mxCell id="nQtXhlrCFaqhpfJ4FwQe-47" style="shape=tableRow;horizontal=0;startSize=0;swimlaneHead=0;swimlaneBody=0;fillColor=none;collapsible=0;dropTarget=0;points=[[0,0.5],[1,0.5]];portConstraint=eastwest;top=0;left=0;right=0;bottom=0;fontSize=16;shadow=1;" parent="nQtXhlrCFaqhpfJ4FwQe-0" vertex="1">
          <mxGeometry y="240" width="180" height="30" as="geometry" />
        </mxCell>
        <mxCell id="nQtXhlrCFaqhpfJ4FwQe-48" style="shape=partialRectangle;connectable=0;fillColor=none;top=0;left=0;bottom=0;right=0;editable=1;overflow=hidden;whiteSpace=wrap;html=1;fontSize=16;shadow=1;" parent="nQtXhlrCFaqhpfJ4FwQe-47" vertex="1">
          <mxGeometry width="30" height="30" as="geometry">
            <mxRectangle width="30" height="30" as="alternateBounds" />
          </mxGeometry>
        </mxCell>
        <mxCell id="nQtXhlrCFaqhpfJ4FwQe-49" value="_DeleteAt" style="shape=partialRectangle;connectable=0;fillColor=none;top=0;left=0;bottom=0;right=0;align=left;spacingLeft=6;overflow=hidden;whiteSpace=wrap;html=1;fontSize=16;shadow=1;" parent="nQtXhlrCFaqhpfJ4FwQe-47" vertex="1">
          <mxGeometry x="30" width="150" height="30" as="geometry">
            <mxRectangle width="150" height="30" as="alternateBounds" />
          </mxGeometry>
        </mxCell>
        <mxCell id="nQtXhlrCFaqhpfJ4FwQe-65" value="" style="edgeStyle=entityRelationEdgeStyle;fontSize=12;html=1;endArrow=ERzeroToOne;startArrow=ERmandOne;rounded=0;fontFamily=Helvetica;fontColor=default;startSize=8;endSize=8;curved=1;shadow=1;" parent="WIyWlLk6GJQsqaUBKTNV-1" source="YjaHPiSWW629p1PQR9jl-145" target="YjaHPiSWW629p1PQR9jl-165" edge="1">
          <mxGeometry width="100" height="100" relative="1" as="geometry">
            <mxPoint x="1080" y="1140" as="sourcePoint" />
            <mxPoint x="1030" y="650" as="targetPoint" />
          </mxGeometry>
        </mxCell>
        <mxCell id="nQtXhlrCFaqhpfJ4FwQe-66" value="" style="edgeStyle=entityRelationEdgeStyle;fontSize=12;html=1;endArrow=ERzeroToOne;startArrow=ERmandOne;rounded=0;fontFamily=Helvetica;fontColor=default;startSize=8;endSize=8;curved=1;shadow=1;" parent="WIyWlLk6GJQsqaUBKTNV-1" source="YjaHPiSWW629p1PQR9jl-145" target="YjaHPiSWW629p1PQR9jl-111" edge="1">
          <mxGeometry width="100" height="100" relative="1" as="geometry">
            <mxPoint x="1193" y="656" as="sourcePoint" />
            <mxPoint x="1140" y="640" as="targetPoint" />
          </mxGeometry>
        </mxCell>
        <mxCell id="nQtXhlrCFaqhpfJ4FwQe-67" value="" style="edgeStyle=entityRelationEdgeStyle;fontSize=12;html=1;endArrow=ERzeroToOne;startArrow=ERmandOne;rounded=0;fontFamily=Helvetica;fontColor=default;startSize=8;endSize=8;curved=1;shadow=1;" parent="WIyWlLk6GJQsqaUBKTNV-1" source="YjaHPiSWW629p1PQR9jl-145" target="YjaHPiSWW629p1PQR9jl-198" edge="1">
          <mxGeometry width="100" height="100" relative="1" as="geometry">
            <mxPoint x="1210" y="731" as="sourcePoint" />
            <mxPoint x="1274" y="731" as="targetPoint" />
          </mxGeometry>
        </mxCell>
        <mxCell id="YjaHPiSWW629p1PQR9jl-70" value="&lt;i&gt;SinhVien&lt;/i&gt;" style="shape=table;startSize=30;container=1;collapsible=1;childLayout=tableLayout;fixedRows=1;rowLines=0;fontStyle=1;align=center;resizeLast=1;html=1;rounded=1;shadow=1;strokeColor=#d79b00;strokeWidth=1;verticalAlign=middle;fontFamily=Helvetica;fontSize=16;fillColor=#ffe6cc;" parent="WIyWlLk6GJQsqaUBKTNV-1" vertex="1">
          <mxGeometry x="1410" y="400" width="180" height="330" as="geometry">
            <mxRectangle x="1420" y="400" width="110" height="30" as="alternateBounds" />
          </mxGeometry>
        </mxCell>
        <mxCell id="YjaHPiSWW629p1PQR9jl-71" value="" style="shape=tableRow;horizontal=0;startSize=0;swimlaneHead=0;swimlaneBody=0;fillColor=none;collapsible=0;dropTarget=0;points=[[0,0.5],[1,0.5]];portConstraint=eastwest;top=0;left=0;right=0;bottom=1;rounded=1;shadow=1;strokeColor=#b85450;strokeWidth=1;align=center;verticalAlign=middle;fontFamily=Helvetica;fontSize=16;fontColor=default;html=1;" parent="YjaHPiSWW629p1PQR9jl-70" vertex="1">
          <mxGeometry y="30" width="180" height="30" as="geometry" />
        </mxCell>
        <mxCell id="YjaHPiSWW629p1PQR9jl-72" value="PK" style="shape=partialRectangle;connectable=0;fillColor=none;top=0;left=0;bottom=0;right=0;fontStyle=1;overflow=hidden;whiteSpace=wrap;html=1;rounded=1;shadow=1;strokeColor=#b85450;strokeWidth=1;align=center;verticalAlign=middle;fontFamily=Helvetica;fontSize=16;fontColor=default;startSize=30;" parent="YjaHPiSWW629p1PQR9jl-71" vertex="1">
          <mxGeometry width="30" height="30" as="geometry">
            <mxRectangle width="30" height="30" as="alternateBounds" />
          </mxGeometry>
        </mxCell>
        <mxCell id="YjaHPiSWW629p1PQR9jl-73" value="IdSV" style="shape=partialRectangle;connectable=0;fillColor=none;top=0;left=0;bottom=0;right=0;align=left;spacingLeft=6;fontStyle=5;overflow=hidden;whiteSpace=wrap;html=1;rounded=1;shadow=1;strokeColor=#b85450;strokeWidth=1;verticalAlign=middle;fontFamily=Helvetica;fontSize=16;fontColor=default;startSize=30;" parent="YjaHPiSWW629p1PQR9jl-71" vertex="1">
          <mxGeometry x="30" width="150" height="30" as="geometry">
            <mxRectangle width="150" height="30" as="alternateBounds" />
          </mxGeometry>
        </mxCell>
        <mxCell id="YjaHPiSWW629p1PQR9jl-111" value="" style="shape=tableRow;horizontal=0;startSize=0;swimlaneHead=0;swimlaneBody=0;fillColor=none;collapsible=0;dropTarget=0;points=[[0,0.5],[1,0.5]];portConstraint=eastwest;top=0;left=0;right=0;bottom=0;rounded=1;shadow=1;strokeColor=#b85450;strokeWidth=1;align=center;verticalAlign=middle;fontFamily=Helvetica;fontSize=16;fontColor=default;html=1;" parent="YjaHPiSWW629p1PQR9jl-70" vertex="1">
          <mxGeometry y="60" width="180" height="30" as="geometry" />
        </mxCell>
        <mxCell id="YjaHPiSWW629p1PQR9jl-112" value="FK" style="shape=partialRectangle;connectable=0;fillColor=none;top=0;left=0;bottom=0;right=0;fontStyle=0;overflow=hidden;whiteSpace=wrap;html=1;rounded=1;shadow=1;strokeColor=#b85450;strokeWidth=1;align=center;verticalAlign=middle;fontFamily=Helvetica;fontSize=16;fontColor=default;startSize=30;" parent="YjaHPiSWW629p1PQR9jl-111" vertex="1">
          <mxGeometry width="30" height="30" as="geometry">
            <mxRectangle width="30" height="30" as="alternateBounds" />
          </mxGeometry>
        </mxCell>
        <mxCell id="YjaHPiSWW629p1PQR9jl-113" value="IdTaiKhoan" style="shape=partialRectangle;connectable=0;fillColor=none;top=0;left=0;bottom=0;right=0;align=left;spacingLeft=6;fontStyle=0;overflow=hidden;whiteSpace=wrap;html=1;rounded=1;shadow=1;strokeColor=#b85450;strokeWidth=1;verticalAlign=middle;fontFamily=Helvetica;fontSize=16;fontColor=default;startSize=30;" parent="YjaHPiSWW629p1PQR9jl-111" vertex="1">
          <mxGeometry x="30" width="150" height="30" as="geometry">
            <mxRectangle width="150" height="30" as="alternateBounds" />
          </mxGeometry>
        </mxCell>
        <mxCell id="YjaHPiSWW629p1PQR9jl-114" value="" style="shape=tableRow;horizontal=0;startSize=0;swimlaneHead=0;swimlaneBody=0;fillColor=none;collapsible=0;dropTarget=0;points=[[0,0.5],[1,0.5]];portConstraint=eastwest;top=0;left=0;right=0;bottom=0;rounded=1;shadow=1;strokeColor=#b85450;strokeWidth=1;align=center;verticalAlign=middle;fontFamily=Helvetica;fontSize=16;fontColor=default;html=1;" parent="YjaHPiSWW629p1PQR9jl-70" vertex="1">
          <mxGeometry y="90" width="180" height="30" as="geometry" />
        </mxCell>
        <mxCell id="YjaHPiSWW629p1PQR9jl-115" value="FK" style="shape=partialRectangle;connectable=0;fillColor=none;top=0;left=0;bottom=0;right=0;fontStyle=0;overflow=hidden;whiteSpace=wrap;html=1;rounded=1;shadow=1;strokeColor=#b85450;strokeWidth=1;align=center;verticalAlign=middle;fontFamily=Helvetica;fontSize=16;fontColor=default;startSize=30;" parent="YjaHPiSWW629p1PQR9jl-114" vertex="1">
          <mxGeometry width="30" height="30" as="geometry">
            <mxRectangle width="30" height="30" as="alternateBounds" />
          </mxGeometry>
        </mxCell>
        <mxCell id="YjaHPiSWW629p1PQR9jl-116" value="MaLopSV" style="shape=partialRectangle;connectable=0;fillColor=none;top=0;left=0;bottom=0;right=0;align=left;spacingLeft=6;fontStyle=0;overflow=hidden;whiteSpace=wrap;html=1;rounded=1;shadow=1;strokeColor=#b85450;strokeWidth=1;verticalAlign=middle;fontFamily=Helvetica;fontSize=16;fontColor=default;startSize=30;" parent="YjaHPiSWW629p1PQR9jl-114" vertex="1">
          <mxGeometry x="30" width="150" height="30" as="geometry">
            <mxRectangle width="150" height="30" as="alternateBounds" />
          </mxGeometry>
        </mxCell>
        <mxCell id="YjaHPiSWW629p1PQR9jl-80" value="" style="shape=tableRow;horizontal=0;startSize=0;swimlaneHead=0;swimlaneBody=0;fillColor=none;collapsible=0;dropTarget=0;points=[[0,0.5],[1,0.5]];portConstraint=eastwest;top=0;left=0;right=0;bottom=0;rounded=1;shadow=1;strokeColor=#b85450;strokeWidth=1;align=center;verticalAlign=middle;fontFamily=Helvetica;fontSize=16;fontColor=default;html=1;" parent="YjaHPiSWW629p1PQR9jl-70" vertex="1">
          <mxGeometry y="120" width="180" height="30" as="geometry" />
        </mxCell>
        <mxCell id="YjaHPiSWW629p1PQR9jl-81" value="" style="shape=partialRectangle;connectable=0;fillColor=none;top=0;left=0;bottom=0;right=0;editable=1;overflow=hidden;whiteSpace=wrap;html=1;rounded=1;shadow=1;strokeColor=#b85450;strokeWidth=1;align=center;verticalAlign=middle;fontFamily=Helvetica;fontSize=16;fontColor=default;startSize=30;" parent="YjaHPiSWW629p1PQR9jl-80" vertex="1">
          <mxGeometry width="30" height="30" as="geometry">
            <mxRectangle width="30" height="30" as="alternateBounds" />
          </mxGeometry>
        </mxCell>
        <mxCell id="YjaHPiSWW629p1PQR9jl-82" value="HoTen" style="shape=partialRectangle;connectable=0;fillColor=none;top=0;left=0;bottom=0;right=0;align=left;spacingLeft=6;overflow=hidden;whiteSpace=wrap;html=1;rounded=1;shadow=1;strokeColor=#b85450;strokeWidth=1;verticalAlign=middle;fontFamily=Helvetica;fontSize=16;fontColor=default;startSize=30;" parent="YjaHPiSWW629p1PQR9jl-80" vertex="1">
          <mxGeometry x="30" width="150" height="30" as="geometry">
            <mxRectangle width="150" height="30" as="alternateBounds" />
          </mxGeometry>
        </mxCell>
        <mxCell id="YjaHPiSWW629p1PQR9jl-89" style="shape=tableRow;horizontal=0;startSize=0;swimlaneHead=0;swimlaneBody=0;fillColor=none;collapsible=0;dropTarget=0;points=[[0,0.5],[1,0.5]];portConstraint=eastwest;top=0;left=0;right=0;bottom=0;rounded=1;shadow=1;strokeColor=#b85450;strokeWidth=1;align=center;verticalAlign=middle;fontFamily=Helvetica;fontSize=16;fontColor=default;html=1;" parent="YjaHPiSWW629p1PQR9jl-70" vertex="1">
          <mxGeometry y="150" width="180" height="30" as="geometry" />
        </mxCell>
        <mxCell id="YjaHPiSWW629p1PQR9jl-90" style="shape=partialRectangle;connectable=0;fillColor=none;top=0;left=0;bottom=0;right=0;editable=1;overflow=hidden;whiteSpace=wrap;html=1;rounded=1;shadow=1;strokeColor=#b85450;strokeWidth=1;align=center;verticalAlign=middle;fontFamily=Helvetica;fontSize=16;fontColor=default;startSize=30;" parent="YjaHPiSWW629p1PQR9jl-89" vertex="1">
          <mxGeometry width="30" height="30" as="geometry">
            <mxRectangle width="30" height="30" as="alternateBounds" />
          </mxGeometry>
        </mxCell>
        <mxCell id="YjaHPiSWW629p1PQR9jl-91" value="NgaySinh" style="shape=partialRectangle;connectable=0;fillColor=none;top=0;left=0;bottom=0;right=0;align=left;spacingLeft=6;overflow=hidden;whiteSpace=wrap;html=1;rounded=1;shadow=1;strokeColor=#b85450;strokeWidth=1;verticalAlign=middle;fontFamily=Helvetica;fontSize=16;fontColor=default;startSize=30;" parent="YjaHPiSWW629p1PQR9jl-89" vertex="1">
          <mxGeometry x="30" width="150" height="30" as="geometry">
            <mxRectangle width="150" height="30" as="alternateBounds" />
          </mxGeometry>
        </mxCell>
        <mxCell id="YjaHPiSWW629p1PQR9jl-101" style="shape=tableRow;horizontal=0;startSize=0;swimlaneHead=0;swimlaneBody=0;fillColor=none;collapsible=0;dropTarget=0;points=[[0,0.5],[1,0.5]];portConstraint=eastwest;top=0;left=0;right=0;bottom=0;rounded=1;shadow=1;strokeColor=#b85450;strokeWidth=1;align=center;verticalAlign=middle;fontFamily=Helvetica;fontSize=16;fontColor=default;html=1;" parent="YjaHPiSWW629p1PQR9jl-70" vertex="1">
          <mxGeometry y="180" width="180" height="30" as="geometry" />
        </mxCell>
        <mxCell id="YjaHPiSWW629p1PQR9jl-102" style="shape=partialRectangle;connectable=0;fillColor=none;top=0;left=0;bottom=0;right=0;editable=1;overflow=hidden;whiteSpace=wrap;html=1;rounded=1;shadow=1;strokeColor=#b85450;strokeWidth=1;align=center;verticalAlign=middle;fontFamily=Helvetica;fontSize=16;fontColor=default;startSize=30;" parent="YjaHPiSWW629p1PQR9jl-101" vertex="1">
          <mxGeometry width="30" height="30" as="geometry">
            <mxRectangle width="30" height="30" as="alternateBounds" />
          </mxGeometry>
        </mxCell>
        <mxCell id="YjaHPiSWW629p1PQR9jl-103" value="GioiTinh" style="shape=partialRectangle;connectable=0;fillColor=none;top=0;left=0;bottom=0;right=0;align=left;spacingLeft=6;overflow=hidden;whiteSpace=wrap;html=1;rounded=1;shadow=1;strokeColor=#b85450;strokeWidth=1;verticalAlign=middle;fontFamily=Helvetica;fontSize=16;fontColor=default;startSize=30;" parent="YjaHPiSWW629p1PQR9jl-101" vertex="1">
          <mxGeometry x="30" width="150" height="30" as="geometry">
            <mxRectangle width="150" height="30" as="alternateBounds" />
          </mxGeometry>
        </mxCell>
        <mxCell id="YjaHPiSWW629p1PQR9jl-98" style="shape=tableRow;horizontal=0;startSize=0;swimlaneHead=0;swimlaneBody=0;fillColor=none;collapsible=0;dropTarget=0;points=[[0,0.5],[1,0.5]];portConstraint=eastwest;top=0;left=0;right=0;bottom=0;rounded=1;shadow=1;strokeColor=#b85450;strokeWidth=1;align=center;verticalAlign=middle;fontFamily=Helvetica;fontSize=16;fontColor=default;html=1;" parent="YjaHPiSWW629p1PQR9jl-70" vertex="1">
          <mxGeometry y="210" width="180" height="30" as="geometry" />
        </mxCell>
        <mxCell id="YjaHPiSWW629p1PQR9jl-99" style="shape=partialRectangle;connectable=0;fillColor=none;top=0;left=0;bottom=0;right=0;editable=1;overflow=hidden;whiteSpace=wrap;html=1;rounded=1;shadow=1;strokeColor=#b85450;strokeWidth=1;align=center;verticalAlign=middle;fontFamily=Helvetica;fontSize=16;fontColor=default;startSize=30;" parent="YjaHPiSWW629p1PQR9jl-98" vertex="1">
          <mxGeometry width="30" height="30" as="geometry">
            <mxRectangle width="30" height="30" as="alternateBounds" />
          </mxGeometry>
        </mxCell>
        <mxCell id="YjaHPiSWW629p1PQR9jl-100" value="Email" style="shape=partialRectangle;connectable=0;fillColor=none;top=0;left=0;bottom=0;right=0;align=left;spacingLeft=6;overflow=hidden;whiteSpace=wrap;html=1;rounded=1;shadow=1;strokeColor=#b85450;strokeWidth=1;verticalAlign=middle;fontFamily=Helvetica;fontSize=16;fontColor=default;startSize=30;" parent="YjaHPiSWW629p1PQR9jl-98" vertex="1">
          <mxGeometry x="30" width="150" height="30" as="geometry">
            <mxRectangle width="150" height="30" as="alternateBounds" />
          </mxGeometry>
        </mxCell>
        <mxCell id="YjaHPiSWW629p1PQR9jl-117" value="" style="shape=tableRow;horizontal=0;startSize=0;swimlaneHead=0;swimlaneBody=0;fillColor=none;collapsible=0;dropTarget=0;points=[[0,0.5],[1,0.5]];portConstraint=eastwest;top=0;left=0;right=0;bottom=0;rounded=1;shadow=1;strokeColor=#b85450;strokeWidth=1;align=center;verticalAlign=middle;fontFamily=Helvetica;fontSize=16;fontColor=default;html=1;" parent="YjaHPiSWW629p1PQR9jl-70" vertex="1">
          <mxGeometry y="240" width="180" height="30" as="geometry" />
        </mxCell>
        <mxCell id="YjaHPiSWW629p1PQR9jl-118" value="" style="shape=partialRectangle;connectable=0;fillColor=none;top=0;left=0;bottom=0;right=0;editable=1;overflow=hidden;rounded=1;shadow=1;strokeColor=#b85450;strokeWidth=1;align=center;verticalAlign=middle;fontFamily=Helvetica;fontSize=16;fontColor=default;startSize=30;html=1;" parent="YjaHPiSWW629p1PQR9jl-117" vertex="1">
          <mxGeometry width="30" height="30" as="geometry">
            <mxRectangle width="30" height="30" as="alternateBounds" />
          </mxGeometry>
        </mxCell>
        <mxCell id="YjaHPiSWW629p1PQR9jl-119" value="SDT" style="shape=partialRectangle;connectable=0;fillColor=none;top=0;left=0;bottom=0;right=0;align=left;spacingLeft=6;overflow=hidden;rounded=1;shadow=1;strokeColor=#b85450;strokeWidth=1;verticalAlign=middle;fontFamily=Helvetica;fontSize=16;fontColor=default;startSize=30;html=1;" parent="YjaHPiSWW629p1PQR9jl-117" vertex="1">
          <mxGeometry x="30" width="150" height="30" as="geometry">
            <mxRectangle width="150" height="30" as="alternateBounds" />
          </mxGeometry>
        </mxCell>
        <mxCell id="eVXEu6_S9rUV-fsNlkhg-10" value="" style="shape=tableRow;horizontal=0;startSize=0;swimlaneHead=0;swimlaneBody=0;fillColor=none;collapsible=0;dropTarget=0;points=[[0,0.5],[1,0.5]];portConstraint=eastwest;top=0;left=0;right=0;bottom=0;fontSize=16;" parent="YjaHPiSWW629p1PQR9jl-70" vertex="1">
          <mxGeometry y="270" width="180" height="30" as="geometry" />
        </mxCell>
        <mxCell id="eVXEu6_S9rUV-fsNlkhg-11" value="" style="shape=partialRectangle;connectable=0;fillColor=none;top=0;left=0;bottom=0;right=0;editable=1;overflow=hidden;fontSize=16;" parent="eVXEu6_S9rUV-fsNlkhg-10" vertex="1">
          <mxGeometry width="30" height="30" as="geometry">
            <mxRectangle width="30" height="30" as="alternateBounds" />
          </mxGeometry>
        </mxCell>
        <mxCell id="eVXEu6_S9rUV-fsNlkhg-12" value="MaSV" style="shape=partialRectangle;connectable=0;fillColor=none;top=0;left=0;bottom=0;right=0;align=left;spacingLeft=6;overflow=hidden;fontSize=16;" parent="eVXEu6_S9rUV-fsNlkhg-10" vertex="1">
          <mxGeometry x="30" width="150" height="30" as="geometry">
            <mxRectangle width="150" height="30" as="alternateBounds" />
          </mxGeometry>
        </mxCell>
        <mxCell id="eVXEu6_S9rUV-fsNlkhg-7" value="" style="shape=tableRow;horizontal=0;startSize=0;swimlaneHead=0;swimlaneBody=0;fillColor=none;collapsible=0;dropTarget=0;points=[[0,0.5],[1,0.5]];portConstraint=eastwest;top=0;left=0;right=0;bottom=0;fontSize=16;" parent="YjaHPiSWW629p1PQR9jl-70" vertex="1">
          <mxGeometry y="300" width="180" height="30" as="geometry" />
        </mxCell>
        <mxCell id="eVXEu6_S9rUV-fsNlkhg-8" value="" style="shape=partialRectangle;connectable=0;fillColor=none;top=0;left=0;bottom=0;right=0;editable=1;overflow=hidden;fontSize=16;" parent="eVXEu6_S9rUV-fsNlkhg-7" vertex="1">
          <mxGeometry width="30" height="30" as="geometry">
            <mxRectangle width="30" height="30" as="alternateBounds" />
          </mxGeometry>
        </mxCell>
        <mxCell id="eVXEu6_S9rUV-fsNlkhg-9" value="ChucVu" style="shape=partialRectangle;connectable=0;fillColor=none;top=0;left=0;bottom=0;right=0;align=left;spacingLeft=6;overflow=hidden;fontSize=16;" parent="eVXEu6_S9rUV-fsNlkhg-7" vertex="1">
          <mxGeometry x="30" width="150" height="30" as="geometry">
            <mxRectangle width="150" height="30" as="alternateBounds" />
          </mxGeometry>
        </mxCell>
        <mxCell id="YjaHPiSWW629p1PQR9jl-148" value="LopSV" style="shape=table;startSize=30;container=1;collapsible=1;childLayout=tableLayout;fixedRows=1;rowLines=0;fontStyle=1;align=center;resizeLast=1;html=1;rounded=1;shadow=1;strokeColor=#d6b656;strokeWidth=1;verticalAlign=middle;fontFamily=Helvetica;fontSize=16;fillColor=#fff2cc;" parent="WIyWlLk6GJQsqaUBKTNV-1" vertex="1">
          <mxGeometry x="1150" y="465" width="180" height="90" as="geometry">
            <mxRectangle x="1420" y="250" width="100" height="30" as="alternateBounds" />
          </mxGeometry>
        </mxCell>
        <mxCell id="YjaHPiSWW629p1PQR9jl-149" value="" style="shape=tableRow;horizontal=0;startSize=0;swimlaneHead=0;swimlaneBody=0;fillColor=none;collapsible=0;dropTarget=0;points=[[0,0.5],[1,0.5]];portConstraint=eastwest;top=0;left=0;right=0;bottom=1;rounded=1;shadow=1;strokeColor=#b85450;strokeWidth=1;align=center;verticalAlign=middle;fontFamily=Helvetica;fontSize=16;fontColor=default;html=1;" parent="YjaHPiSWW629p1PQR9jl-148" vertex="1">
          <mxGeometry y="30" width="180" height="30" as="geometry" />
        </mxCell>
        <mxCell id="YjaHPiSWW629p1PQR9jl-150" value="PK" style="shape=partialRectangle;connectable=0;fillColor=none;top=0;left=0;bottom=0;right=0;fontStyle=1;overflow=hidden;whiteSpace=wrap;html=1;rounded=1;shadow=1;strokeColor=#b85450;strokeWidth=1;align=center;verticalAlign=middle;fontFamily=Helvetica;fontSize=16;fontColor=default;startSize=30;" parent="YjaHPiSWW629p1PQR9jl-149" vertex="1">
          <mxGeometry width="30" height="30" as="geometry">
            <mxRectangle width="30" height="30" as="alternateBounds" />
          </mxGeometry>
        </mxCell>
        <mxCell id="YjaHPiSWW629p1PQR9jl-151" value="MaLopSV" style="shape=partialRectangle;connectable=0;fillColor=none;top=0;left=0;bottom=0;right=0;align=left;spacingLeft=6;fontStyle=5;overflow=hidden;whiteSpace=wrap;html=1;rounded=1;shadow=1;strokeColor=#b85450;strokeWidth=1;verticalAlign=middle;fontFamily=Helvetica;fontSize=16;fontColor=default;startSize=30;" parent="YjaHPiSWW629p1PQR9jl-149" vertex="1">
          <mxGeometry x="30" width="150" height="30" as="geometry">
            <mxRectangle width="150" height="30" as="alternateBounds" />
          </mxGeometry>
        </mxCell>
        <mxCell id="YjaHPiSWW629p1PQR9jl-155" value="" style="shape=tableRow;horizontal=0;startSize=0;swimlaneHead=0;swimlaneBody=0;fillColor=none;collapsible=0;dropTarget=0;points=[[0,0.5],[1,0.5]];portConstraint=eastwest;top=0;left=0;right=0;bottom=0;rounded=1;shadow=1;strokeColor=#b85450;strokeWidth=1;align=center;verticalAlign=middle;fontFamily=Helvetica;fontSize=16;fontColor=default;html=1;" parent="YjaHPiSWW629p1PQR9jl-148" vertex="1">
          <mxGeometry y="60" width="180" height="30" as="geometry" />
        </mxCell>
        <mxCell id="YjaHPiSWW629p1PQR9jl-156" value="" style="shape=partialRectangle;connectable=0;fillColor=none;top=0;left=0;bottom=0;right=0;editable=1;overflow=hidden;whiteSpace=wrap;html=1;rounded=1;shadow=1;strokeColor=#b85450;strokeWidth=1;align=center;verticalAlign=middle;fontFamily=Helvetica;fontSize=16;fontColor=default;startSize=30;" parent="YjaHPiSWW629p1PQR9jl-155" vertex="1">
          <mxGeometry width="30" height="30" as="geometry">
            <mxRectangle width="30" height="30" as="alternateBounds" />
          </mxGeometry>
        </mxCell>
        <mxCell id="YjaHPiSWW629p1PQR9jl-157" value="LopSV" style="shape=partialRectangle;connectable=0;fillColor=none;top=0;left=0;bottom=0;right=0;align=left;spacingLeft=6;overflow=hidden;whiteSpace=wrap;html=1;rounded=1;shadow=1;strokeColor=#b85450;strokeWidth=1;verticalAlign=middle;fontFamily=Helvetica;fontSize=16;fontColor=default;startSize=30;" parent="YjaHPiSWW629p1PQR9jl-155" vertex="1">
          <mxGeometry x="30" width="150" height="30" as="geometry">
            <mxRectangle width="150" height="30" as="alternateBounds" />
          </mxGeometry>
        </mxCell>
        <mxCell id="YjaHPiSWW629p1PQR9jl-161" value="&lt;i&gt;QuanLy&lt;/i&gt;" style="shape=table;startSize=30;container=1;collapsible=1;childLayout=tableLayout;fixedRows=1;rowLines=0;fontStyle=1;align=center;resizeLast=1;html=1;rounded=1;shadow=1;strokeColor=#d79b00;strokeWidth=1;verticalAlign=middle;fontFamily=Helvetica;fontSize=16;fillColor=#ffe6cc;" parent="WIyWlLk6GJQsqaUBKTNV-1" vertex="1">
          <mxGeometry x="880" y="355" width="180" height="240" as="geometry">
            <mxRectangle x="870" y="490" width="100" height="30" as="alternateBounds" />
          </mxGeometry>
        </mxCell>
        <mxCell id="YjaHPiSWW629p1PQR9jl-162" value="" style="shape=tableRow;horizontal=0;startSize=0;swimlaneHead=0;swimlaneBody=0;fillColor=none;collapsible=0;dropTarget=0;points=[[0,0.5],[1,0.5]];portConstraint=eastwest;top=0;left=0;right=0;bottom=1;rounded=1;shadow=1;strokeColor=#b85450;strokeWidth=1;align=center;verticalAlign=middle;fontFamily=Helvetica;fontSize=16;fontColor=default;html=1;" parent="YjaHPiSWW629p1PQR9jl-161" vertex="1">
          <mxGeometry y="30" width="180" height="30" as="geometry" />
        </mxCell>
        <mxCell id="YjaHPiSWW629p1PQR9jl-163" value="PK" style="shape=partialRectangle;connectable=0;fillColor=none;top=0;left=0;bottom=0;right=0;fontStyle=1;overflow=hidden;whiteSpace=wrap;html=1;rounded=1;shadow=1;strokeColor=#b85450;strokeWidth=1;align=center;verticalAlign=middle;fontFamily=Helvetica;fontSize=16;fontColor=default;startSize=30;" parent="YjaHPiSWW629p1PQR9jl-162" vertex="1">
          <mxGeometry width="30" height="30" as="geometry">
            <mxRectangle width="30" height="30" as="alternateBounds" />
          </mxGeometry>
        </mxCell>
        <mxCell id="YjaHPiSWW629p1PQR9jl-164" value="IdQL" style="shape=partialRectangle;connectable=0;fillColor=none;top=0;left=0;bottom=0;right=0;align=left;spacingLeft=6;fontStyle=5;overflow=hidden;whiteSpace=wrap;html=1;rounded=1;shadow=1;strokeColor=#b85450;strokeWidth=1;verticalAlign=middle;fontFamily=Helvetica;fontSize=16;fontColor=default;startSize=30;" parent="YjaHPiSWW629p1PQR9jl-162" vertex="1">
          <mxGeometry x="30" width="150" height="30" as="geometry">
            <mxRectangle width="150" height="30" as="alternateBounds" />
          </mxGeometry>
        </mxCell>
        <mxCell id="YjaHPiSWW629p1PQR9jl-165" value="" style="shape=tableRow;horizontal=0;startSize=0;swimlaneHead=0;swimlaneBody=0;fillColor=none;collapsible=0;dropTarget=0;points=[[0,0.5],[1,0.5]];portConstraint=eastwest;top=0;left=0;right=0;bottom=0;rounded=1;shadow=1;strokeColor=#b85450;strokeWidth=1;align=center;verticalAlign=middle;fontFamily=Helvetica;fontSize=16;fontColor=default;html=1;" parent="YjaHPiSWW629p1PQR9jl-161" vertex="1">
          <mxGeometry y="60" width="180" height="30" as="geometry" />
        </mxCell>
        <mxCell id="YjaHPiSWW629p1PQR9jl-166" value="FK" style="shape=partialRectangle;connectable=0;fillColor=none;top=0;left=0;bottom=0;right=0;fontStyle=0;overflow=hidden;whiteSpace=wrap;html=1;rounded=1;shadow=1;strokeColor=#b85450;strokeWidth=1;align=center;verticalAlign=middle;fontFamily=Helvetica;fontSize=16;fontColor=default;startSize=30;" parent="YjaHPiSWW629p1PQR9jl-165" vertex="1">
          <mxGeometry width="30" height="30" as="geometry">
            <mxRectangle width="30" height="30" as="alternateBounds" />
          </mxGeometry>
        </mxCell>
        <mxCell id="YjaHPiSWW629p1PQR9jl-167" value="IdTaiKhoan" style="shape=partialRectangle;connectable=0;fillColor=none;top=0;left=0;bottom=0;right=0;align=left;spacingLeft=6;fontStyle=0;overflow=hidden;whiteSpace=wrap;html=1;rounded=1;shadow=1;strokeColor=#b85450;strokeWidth=1;verticalAlign=middle;fontFamily=Helvetica;fontSize=16;fontColor=default;startSize=30;" parent="YjaHPiSWW629p1PQR9jl-165" vertex="1">
          <mxGeometry x="30" width="150" height="30" as="geometry">
            <mxRectangle width="150" height="30" as="alternateBounds" />
          </mxGeometry>
        </mxCell>
        <mxCell id="YjaHPiSWW629p1PQR9jl-171" value="" style="shape=tableRow;horizontal=0;startSize=0;swimlaneHead=0;swimlaneBody=0;fillColor=none;collapsible=0;dropTarget=0;points=[[0,0.5],[1,0.5]];portConstraint=eastwest;top=0;left=0;right=0;bottom=0;rounded=1;shadow=1;strokeColor=#b85450;strokeWidth=1;align=center;verticalAlign=middle;fontFamily=Helvetica;fontSize=16;fontColor=default;html=1;" parent="YjaHPiSWW629p1PQR9jl-161" vertex="1">
          <mxGeometry y="90" width="180" height="30" as="geometry" />
        </mxCell>
        <mxCell id="YjaHPiSWW629p1PQR9jl-172" value="" style="shape=partialRectangle;connectable=0;fillColor=none;top=0;left=0;bottom=0;right=0;editable=1;overflow=hidden;whiteSpace=wrap;html=1;rounded=1;shadow=1;strokeColor=#b85450;strokeWidth=1;align=center;verticalAlign=middle;fontFamily=Helvetica;fontSize=16;fontColor=default;startSize=30;" parent="YjaHPiSWW629p1PQR9jl-171" vertex="1">
          <mxGeometry width="30" height="30" as="geometry">
            <mxRectangle width="30" height="30" as="alternateBounds" />
          </mxGeometry>
        </mxCell>
        <mxCell id="YjaHPiSWW629p1PQR9jl-173" value="HoTen" style="shape=partialRectangle;connectable=0;fillColor=none;top=0;left=0;bottom=0;right=0;align=left;spacingLeft=6;overflow=hidden;whiteSpace=wrap;html=1;rounded=1;shadow=1;strokeColor=#b85450;strokeWidth=1;verticalAlign=middle;fontFamily=Helvetica;fontSize=16;fontColor=default;startSize=30;" parent="YjaHPiSWW629p1PQR9jl-171" vertex="1">
          <mxGeometry x="30" width="150" height="30" as="geometry">
            <mxRectangle width="150" height="30" as="alternateBounds" />
          </mxGeometry>
        </mxCell>
        <mxCell id="YjaHPiSWW629p1PQR9jl-180" style="shape=tableRow;horizontal=0;startSize=0;swimlaneHead=0;swimlaneBody=0;fillColor=none;collapsible=0;dropTarget=0;points=[[0,0.5],[1,0.5]];portConstraint=eastwest;top=0;left=0;right=0;bottom=0;rounded=1;shadow=1;strokeColor=#b85450;strokeWidth=1;align=center;verticalAlign=middle;fontFamily=Helvetica;fontSize=16;fontColor=default;html=1;" parent="YjaHPiSWW629p1PQR9jl-161" vertex="1">
          <mxGeometry y="120" width="180" height="30" as="geometry" />
        </mxCell>
        <mxCell id="YjaHPiSWW629p1PQR9jl-181" style="shape=partialRectangle;connectable=0;fillColor=none;top=0;left=0;bottom=0;right=0;editable=1;overflow=hidden;whiteSpace=wrap;html=1;rounded=1;shadow=1;strokeColor=#b85450;strokeWidth=1;align=center;verticalAlign=middle;fontFamily=Helvetica;fontSize=16;fontColor=default;startSize=30;" parent="YjaHPiSWW629p1PQR9jl-180" vertex="1">
          <mxGeometry width="30" height="30" as="geometry">
            <mxRectangle width="30" height="30" as="alternateBounds" />
          </mxGeometry>
        </mxCell>
        <mxCell id="YjaHPiSWW629p1PQR9jl-182" value="NgaySinh" style="shape=partialRectangle;connectable=0;fillColor=none;top=0;left=0;bottom=0;right=0;align=left;spacingLeft=6;overflow=hidden;whiteSpace=wrap;html=1;rounded=1;shadow=1;strokeColor=#b85450;strokeWidth=1;verticalAlign=middle;fontFamily=Helvetica;fontSize=16;fontColor=default;startSize=30;" parent="YjaHPiSWW629p1PQR9jl-180" vertex="1">
          <mxGeometry x="30" width="150" height="30" as="geometry">
            <mxRectangle width="150" height="30" as="alternateBounds" />
          </mxGeometry>
        </mxCell>
        <mxCell id="YjaHPiSWW629p1PQR9jl-183" style="shape=tableRow;horizontal=0;startSize=0;swimlaneHead=0;swimlaneBody=0;fillColor=none;collapsible=0;dropTarget=0;points=[[0,0.5],[1,0.5]];portConstraint=eastwest;top=0;left=0;right=0;bottom=0;rounded=1;shadow=1;strokeColor=#b85450;strokeWidth=1;align=center;verticalAlign=middle;fontFamily=Helvetica;fontSize=16;fontColor=default;html=1;" parent="YjaHPiSWW629p1PQR9jl-161" vertex="1">
          <mxGeometry y="150" width="180" height="30" as="geometry" />
        </mxCell>
        <mxCell id="YjaHPiSWW629p1PQR9jl-184" style="shape=partialRectangle;connectable=0;fillColor=none;top=0;left=0;bottom=0;right=0;editable=1;overflow=hidden;whiteSpace=wrap;html=1;rounded=1;shadow=1;strokeColor=#b85450;strokeWidth=1;align=center;verticalAlign=middle;fontFamily=Helvetica;fontSize=16;fontColor=default;startSize=30;" parent="YjaHPiSWW629p1PQR9jl-183" vertex="1">
          <mxGeometry width="30" height="30" as="geometry">
            <mxRectangle width="30" height="30" as="alternateBounds" />
          </mxGeometry>
        </mxCell>
        <mxCell id="YjaHPiSWW629p1PQR9jl-185" value="GioiTinh" style="shape=partialRectangle;connectable=0;fillColor=none;top=0;left=0;bottom=0;right=0;align=left;spacingLeft=6;overflow=hidden;whiteSpace=wrap;html=1;rounded=1;shadow=1;strokeColor=#b85450;strokeWidth=1;verticalAlign=middle;fontFamily=Helvetica;fontSize=16;fontColor=default;startSize=30;" parent="YjaHPiSWW629p1PQR9jl-183" vertex="1">
          <mxGeometry x="30" width="150" height="30" as="geometry">
            <mxRectangle width="150" height="30" as="alternateBounds" />
          </mxGeometry>
        </mxCell>
        <mxCell id="YjaHPiSWW629p1PQR9jl-186" style="shape=tableRow;horizontal=0;startSize=0;swimlaneHead=0;swimlaneBody=0;fillColor=none;collapsible=0;dropTarget=0;points=[[0,0.5],[1,0.5]];portConstraint=eastwest;top=0;left=0;right=0;bottom=0;rounded=1;shadow=1;strokeColor=#b85450;strokeWidth=1;align=center;verticalAlign=middle;fontFamily=Helvetica;fontSize=16;fontColor=default;html=1;" parent="YjaHPiSWW629p1PQR9jl-161" vertex="1">
          <mxGeometry y="180" width="180" height="30" as="geometry" />
        </mxCell>
        <mxCell id="YjaHPiSWW629p1PQR9jl-187" style="shape=partialRectangle;connectable=0;fillColor=none;top=0;left=0;bottom=0;right=0;editable=1;overflow=hidden;whiteSpace=wrap;html=1;rounded=1;shadow=1;strokeColor=#b85450;strokeWidth=1;align=center;verticalAlign=middle;fontFamily=Helvetica;fontSize=16;fontColor=default;startSize=30;" parent="YjaHPiSWW629p1PQR9jl-186" vertex="1">
          <mxGeometry width="30" height="30" as="geometry">
            <mxRectangle width="30" height="30" as="alternateBounds" />
          </mxGeometry>
        </mxCell>
        <mxCell id="YjaHPiSWW629p1PQR9jl-188" value="Email" style="shape=partialRectangle;connectable=0;fillColor=none;top=0;left=0;bottom=0;right=0;align=left;spacingLeft=6;overflow=hidden;whiteSpace=wrap;html=1;rounded=1;shadow=1;strokeColor=#b85450;strokeWidth=1;verticalAlign=middle;fontFamily=Helvetica;fontSize=16;fontColor=default;startSize=30;" parent="YjaHPiSWW629p1PQR9jl-186" vertex="1">
          <mxGeometry x="30" width="150" height="30" as="geometry">
            <mxRectangle width="150" height="30" as="alternateBounds" />
          </mxGeometry>
        </mxCell>
        <mxCell id="YjaHPiSWW629p1PQR9jl-189" value="" style="shape=tableRow;horizontal=0;startSize=0;swimlaneHead=0;swimlaneBody=0;fillColor=none;collapsible=0;dropTarget=0;points=[[0,0.5],[1,0.5]];portConstraint=eastwest;top=0;left=0;right=0;bottom=0;rounded=1;shadow=1;strokeColor=#b85450;strokeWidth=1;align=center;verticalAlign=middle;fontFamily=Helvetica;fontSize=16;fontColor=default;html=1;" parent="YjaHPiSWW629p1PQR9jl-161" vertex="1">
          <mxGeometry y="210" width="180" height="30" as="geometry" />
        </mxCell>
        <mxCell id="YjaHPiSWW629p1PQR9jl-190" value="" style="shape=partialRectangle;connectable=0;fillColor=none;top=0;left=0;bottom=0;right=0;editable=1;overflow=hidden;rounded=1;shadow=1;strokeColor=#b85450;strokeWidth=1;align=center;verticalAlign=middle;fontFamily=Helvetica;fontSize=16;fontColor=default;startSize=30;html=1;" parent="YjaHPiSWW629p1PQR9jl-189" vertex="1">
          <mxGeometry width="30" height="30" as="geometry">
            <mxRectangle width="30" height="30" as="alternateBounds" />
          </mxGeometry>
        </mxCell>
        <mxCell id="YjaHPiSWW629p1PQR9jl-191" value="SDT" style="shape=partialRectangle;connectable=0;fillColor=none;top=0;left=0;bottom=0;right=0;align=left;spacingLeft=6;overflow=hidden;rounded=1;shadow=1;strokeColor=#b85450;strokeWidth=1;verticalAlign=middle;fontFamily=Helvetica;fontSize=16;fontColor=default;startSize=30;html=1;" parent="YjaHPiSWW629p1PQR9jl-189" vertex="1">
          <mxGeometry x="30" width="150" height="30" as="geometry">
            <mxRectangle width="150" height="30" as="alternateBounds" />
          </mxGeometry>
        </mxCell>
        <mxCell id="YjaHPiSWW629p1PQR9jl-194" value="&lt;i&gt;GiangVien&lt;/i&gt;" style="shape=table;startSize=30;container=1;collapsible=1;childLayout=tableLayout;fixedRows=1;rowLines=0;fontStyle=1;align=center;resizeLast=1;html=1;rounded=1;shadow=1;strokeColor=#d79b00;strokeWidth=1;verticalAlign=middle;fontFamily=Helvetica;fontSize=16;fillColor=#ffe6cc;" parent="WIyWlLk6GJQsqaUBKTNV-1" vertex="1">
          <mxGeometry x="1410" y="40" width="180" height="300" as="geometry">
            <mxRectangle x="1140" y="430" width="120" height="30" as="alternateBounds" />
          </mxGeometry>
        </mxCell>
        <mxCell id="YjaHPiSWW629p1PQR9jl-195" value="" style="shape=tableRow;horizontal=0;startSize=0;swimlaneHead=0;swimlaneBody=0;fillColor=none;collapsible=0;dropTarget=0;points=[[0,0.5],[1,0.5]];portConstraint=eastwest;top=0;left=0;right=0;bottom=1;rounded=1;shadow=1;strokeColor=#b85450;strokeWidth=1;align=center;verticalAlign=middle;fontFamily=Helvetica;fontSize=16;fontColor=default;html=1;" parent="YjaHPiSWW629p1PQR9jl-194" vertex="1">
          <mxGeometry y="30" width="180" height="30" as="geometry" />
        </mxCell>
        <mxCell id="YjaHPiSWW629p1PQR9jl-196" value="PK" style="shape=partialRectangle;connectable=0;fillColor=none;top=0;left=0;bottom=0;right=0;fontStyle=1;overflow=hidden;whiteSpace=wrap;html=1;rounded=1;shadow=1;strokeColor=#b85450;strokeWidth=1;align=center;verticalAlign=middle;fontFamily=Helvetica;fontSize=16;fontColor=default;startSize=30;" parent="YjaHPiSWW629p1PQR9jl-195" vertex="1">
          <mxGeometry width="30" height="30" as="geometry">
            <mxRectangle width="30" height="30" as="alternateBounds" />
          </mxGeometry>
        </mxCell>
        <mxCell id="YjaHPiSWW629p1PQR9jl-197" value="IdGV" style="shape=partialRectangle;connectable=0;fillColor=none;top=0;left=0;bottom=0;right=0;align=left;spacingLeft=6;fontStyle=5;overflow=hidden;whiteSpace=wrap;html=1;rounded=1;shadow=1;strokeColor=#b85450;strokeWidth=1;verticalAlign=middle;fontFamily=Helvetica;fontSize=16;fontColor=default;startSize=30;" parent="YjaHPiSWW629p1PQR9jl-195" vertex="1">
          <mxGeometry x="30" width="150" height="30" as="geometry">
            <mxRectangle width="150" height="30" as="alternateBounds" />
          </mxGeometry>
        </mxCell>
        <mxCell id="YjaHPiSWW629p1PQR9jl-198" value="" style="shape=tableRow;horizontal=0;startSize=0;swimlaneHead=0;swimlaneBody=0;fillColor=none;collapsible=0;dropTarget=0;points=[[0,0.5],[1,0.5]];portConstraint=eastwest;top=0;left=0;right=0;bottom=0;rounded=1;shadow=1;strokeColor=#b85450;strokeWidth=1;align=center;verticalAlign=middle;fontFamily=Helvetica;fontSize=16;fontColor=default;html=1;" parent="YjaHPiSWW629p1PQR9jl-194" vertex="1">
          <mxGeometry y="60" width="180" height="30" as="geometry" />
        </mxCell>
        <mxCell id="YjaHPiSWW629p1PQR9jl-199" value="FK" style="shape=partialRectangle;connectable=0;fillColor=none;top=0;left=0;bottom=0;right=0;fontStyle=0;overflow=hidden;whiteSpace=wrap;html=1;rounded=1;shadow=1;strokeColor=#b85450;strokeWidth=1;align=center;verticalAlign=middle;fontFamily=Helvetica;fontSize=16;fontColor=default;startSize=30;" parent="YjaHPiSWW629p1PQR9jl-198" vertex="1">
          <mxGeometry width="30" height="30" as="geometry">
            <mxRectangle width="30" height="30" as="alternateBounds" />
          </mxGeometry>
        </mxCell>
        <mxCell id="YjaHPiSWW629p1PQR9jl-200" value="IdTaiKhoan" style="shape=partialRectangle;connectable=0;fillColor=none;top=0;left=0;bottom=0;right=0;align=left;spacingLeft=6;fontStyle=0;overflow=hidden;whiteSpace=wrap;html=1;rounded=1;shadow=1;strokeColor=#b85450;strokeWidth=1;verticalAlign=middle;fontFamily=Helvetica;fontSize=16;fontColor=default;startSize=30;" parent="YjaHPiSWW629p1PQR9jl-198" vertex="1">
          <mxGeometry x="30" width="150" height="30" as="geometry">
            <mxRectangle width="150" height="30" as="alternateBounds" />
          </mxGeometry>
        </mxCell>
        <mxCell id="YjaHPiSWW629p1PQR9jl-210" value="" style="shape=tableRow;horizontal=0;startSize=0;swimlaneHead=0;swimlaneBody=0;fillColor=none;collapsible=0;dropTarget=0;points=[[0,0.5],[1,0.5]];portConstraint=eastwest;top=0;left=0;right=0;bottom=0;rounded=1;shadow=1;strokeColor=#b85450;strokeWidth=1;align=center;verticalAlign=middle;fontFamily=Helvetica;fontSize=16;fontColor=default;html=1;" parent="YjaHPiSWW629p1PQR9jl-194" vertex="1">
          <mxGeometry y="90" width="180" height="30" as="geometry" />
        </mxCell>
        <mxCell id="YjaHPiSWW629p1PQR9jl-211" value="" style="shape=partialRectangle;connectable=0;fillColor=none;top=0;left=0;bottom=0;right=0;editable=1;overflow=hidden;whiteSpace=wrap;html=1;rounded=1;shadow=1;strokeColor=#b85450;strokeWidth=1;align=center;verticalAlign=middle;fontFamily=Helvetica;fontSize=16;fontColor=default;startSize=30;" parent="YjaHPiSWW629p1PQR9jl-210" vertex="1">
          <mxGeometry width="30" height="30" as="geometry">
            <mxRectangle width="30" height="30" as="alternateBounds" />
          </mxGeometry>
        </mxCell>
        <mxCell id="YjaHPiSWW629p1PQR9jl-212" value="HoTen" style="shape=partialRectangle;connectable=0;fillColor=none;top=0;left=0;bottom=0;right=0;align=left;spacingLeft=6;overflow=hidden;whiteSpace=wrap;html=1;rounded=1;shadow=1;strokeColor=#b85450;strokeWidth=1;verticalAlign=middle;fontFamily=Helvetica;fontSize=16;fontColor=default;startSize=30;" parent="YjaHPiSWW629p1PQR9jl-210" vertex="1">
          <mxGeometry x="30" width="150" height="30" as="geometry">
            <mxRectangle width="150" height="30" as="alternateBounds" />
          </mxGeometry>
        </mxCell>
        <mxCell id="YjaHPiSWW629p1PQR9jl-213" style="shape=tableRow;horizontal=0;startSize=0;swimlaneHead=0;swimlaneBody=0;fillColor=none;collapsible=0;dropTarget=0;points=[[0,0.5],[1,0.5]];portConstraint=eastwest;top=0;left=0;right=0;bottom=0;rounded=1;shadow=1;strokeColor=#b85450;strokeWidth=1;align=center;verticalAlign=middle;fontFamily=Helvetica;fontSize=16;fontColor=default;html=1;" parent="YjaHPiSWW629p1PQR9jl-194" vertex="1">
          <mxGeometry y="120" width="180" height="30" as="geometry" />
        </mxCell>
        <mxCell id="YjaHPiSWW629p1PQR9jl-214" style="shape=partialRectangle;connectable=0;fillColor=none;top=0;left=0;bottom=0;right=0;editable=1;overflow=hidden;whiteSpace=wrap;html=1;rounded=1;shadow=1;strokeColor=#b85450;strokeWidth=1;align=center;verticalAlign=middle;fontFamily=Helvetica;fontSize=16;fontColor=default;startSize=30;" parent="YjaHPiSWW629p1PQR9jl-213" vertex="1">
          <mxGeometry width="30" height="30" as="geometry">
            <mxRectangle width="30" height="30" as="alternateBounds" />
          </mxGeometry>
        </mxCell>
        <mxCell id="YjaHPiSWW629p1PQR9jl-215" value="NgaySinh" style="shape=partialRectangle;connectable=0;fillColor=none;top=0;left=0;bottom=0;right=0;align=left;spacingLeft=6;overflow=hidden;whiteSpace=wrap;html=1;rounded=1;shadow=1;strokeColor=#b85450;strokeWidth=1;verticalAlign=middle;fontFamily=Helvetica;fontSize=16;fontColor=default;startSize=30;" parent="YjaHPiSWW629p1PQR9jl-213" vertex="1">
          <mxGeometry x="30" width="150" height="30" as="geometry">
            <mxRectangle width="150" height="30" as="alternateBounds" />
          </mxGeometry>
        </mxCell>
        <mxCell id="YjaHPiSWW629p1PQR9jl-216" style="shape=tableRow;horizontal=0;startSize=0;swimlaneHead=0;swimlaneBody=0;fillColor=none;collapsible=0;dropTarget=0;points=[[0,0.5],[1,0.5]];portConstraint=eastwest;top=0;left=0;right=0;bottom=0;rounded=1;shadow=1;strokeColor=#b85450;strokeWidth=1;align=center;verticalAlign=middle;fontFamily=Helvetica;fontSize=16;fontColor=default;html=1;" parent="YjaHPiSWW629p1PQR9jl-194" vertex="1">
          <mxGeometry y="150" width="180" height="30" as="geometry" />
        </mxCell>
        <mxCell id="YjaHPiSWW629p1PQR9jl-217" style="shape=partialRectangle;connectable=0;fillColor=none;top=0;left=0;bottom=0;right=0;editable=1;overflow=hidden;whiteSpace=wrap;html=1;rounded=1;shadow=1;strokeColor=#b85450;strokeWidth=1;align=center;verticalAlign=middle;fontFamily=Helvetica;fontSize=16;fontColor=default;startSize=30;" parent="YjaHPiSWW629p1PQR9jl-216" vertex="1">
          <mxGeometry width="30" height="30" as="geometry">
            <mxRectangle width="30" height="30" as="alternateBounds" />
          </mxGeometry>
        </mxCell>
        <mxCell id="YjaHPiSWW629p1PQR9jl-218" value="GioiTinh" style="shape=partialRectangle;connectable=0;fillColor=none;top=0;left=0;bottom=0;right=0;align=left;spacingLeft=6;overflow=hidden;whiteSpace=wrap;html=1;rounded=1;shadow=1;strokeColor=#b85450;strokeWidth=1;verticalAlign=middle;fontFamily=Helvetica;fontSize=16;fontColor=default;startSize=30;" parent="YjaHPiSWW629p1PQR9jl-216" vertex="1">
          <mxGeometry x="30" width="150" height="30" as="geometry">
            <mxRectangle width="150" height="30" as="alternateBounds" />
          </mxGeometry>
        </mxCell>
        <mxCell id="YjaHPiSWW629p1PQR9jl-219" style="shape=tableRow;horizontal=0;startSize=0;swimlaneHead=0;swimlaneBody=0;fillColor=none;collapsible=0;dropTarget=0;points=[[0,0.5],[1,0.5]];portConstraint=eastwest;top=0;left=0;right=0;bottom=0;rounded=1;shadow=1;strokeColor=#b85450;strokeWidth=1;align=center;verticalAlign=middle;fontFamily=Helvetica;fontSize=16;fontColor=default;html=1;" parent="YjaHPiSWW629p1PQR9jl-194" vertex="1">
          <mxGeometry y="180" width="180" height="30" as="geometry" />
        </mxCell>
        <mxCell id="YjaHPiSWW629p1PQR9jl-220" style="shape=partialRectangle;connectable=0;fillColor=none;top=0;left=0;bottom=0;right=0;editable=1;overflow=hidden;whiteSpace=wrap;html=1;rounded=1;shadow=1;strokeColor=#b85450;strokeWidth=1;align=center;verticalAlign=middle;fontFamily=Helvetica;fontSize=16;fontColor=default;startSize=30;" parent="YjaHPiSWW629p1PQR9jl-219" vertex="1">
          <mxGeometry width="30" height="30" as="geometry">
            <mxRectangle width="30" height="30" as="alternateBounds" />
          </mxGeometry>
        </mxCell>
        <mxCell id="YjaHPiSWW629p1PQR9jl-221" value="Email" style="shape=partialRectangle;connectable=0;fillColor=none;top=0;left=0;bottom=0;right=0;align=left;spacingLeft=6;overflow=hidden;whiteSpace=wrap;html=1;rounded=1;shadow=1;strokeColor=#b85450;strokeWidth=1;verticalAlign=middle;fontFamily=Helvetica;fontSize=16;fontColor=default;startSize=30;" parent="YjaHPiSWW629p1PQR9jl-219" vertex="1">
          <mxGeometry x="30" width="150" height="30" as="geometry">
            <mxRectangle width="150" height="30" as="alternateBounds" />
          </mxGeometry>
        </mxCell>
        <mxCell id="YjaHPiSWW629p1PQR9jl-222" value="" style="shape=tableRow;horizontal=0;startSize=0;swimlaneHead=0;swimlaneBody=0;fillColor=none;collapsible=0;dropTarget=0;points=[[0,0.5],[1,0.5]];portConstraint=eastwest;top=0;left=0;right=0;bottom=0;rounded=1;shadow=1;strokeColor=#b85450;strokeWidth=1;align=center;verticalAlign=middle;fontFamily=Helvetica;fontSize=16;fontColor=default;html=1;" parent="YjaHPiSWW629p1PQR9jl-194" vertex="1">
          <mxGeometry y="210" width="180" height="30" as="geometry" />
        </mxCell>
        <mxCell id="YjaHPiSWW629p1PQR9jl-223" value="" style="shape=partialRectangle;connectable=0;fillColor=none;top=0;left=0;bottom=0;right=0;editable=1;overflow=hidden;rounded=1;shadow=1;strokeColor=#b85450;strokeWidth=1;align=center;verticalAlign=middle;fontFamily=Helvetica;fontSize=16;fontColor=default;startSize=30;html=1;" parent="YjaHPiSWW629p1PQR9jl-222" vertex="1">
          <mxGeometry width="30" height="30" as="geometry">
            <mxRectangle width="30" height="30" as="alternateBounds" />
          </mxGeometry>
        </mxCell>
        <mxCell id="YjaHPiSWW629p1PQR9jl-224" value="SDT" style="shape=partialRectangle;connectable=0;fillColor=none;top=0;left=0;bottom=0;right=0;align=left;spacingLeft=6;overflow=hidden;rounded=1;shadow=1;strokeColor=#b85450;strokeWidth=1;verticalAlign=middle;fontFamily=Helvetica;fontSize=16;fontColor=default;startSize=30;html=1;" parent="YjaHPiSWW629p1PQR9jl-222" vertex="1">
          <mxGeometry x="30" width="150" height="30" as="geometry">
            <mxRectangle width="150" height="30" as="alternateBounds" />
          </mxGeometry>
        </mxCell>
        <mxCell id="eVXEu6_S9rUV-fsNlkhg-13" value="" style="shape=tableRow;horizontal=0;startSize=0;swimlaneHead=0;swimlaneBody=0;fillColor=none;collapsible=0;dropTarget=0;points=[[0,0.5],[1,0.5]];portConstraint=eastwest;top=0;left=0;right=0;bottom=0;fontSize=16;" parent="YjaHPiSWW629p1PQR9jl-194" vertex="1">
          <mxGeometry y="240" width="180" height="30" as="geometry" />
        </mxCell>
        <mxCell id="eVXEu6_S9rUV-fsNlkhg-14" value="" style="shape=partialRectangle;connectable=0;fillColor=none;top=0;left=0;bottom=0;right=0;editable=1;overflow=hidden;fontSize=16;" parent="eVXEu6_S9rUV-fsNlkhg-13" vertex="1">
          <mxGeometry width="30" height="30" as="geometry">
            <mxRectangle width="30" height="30" as="alternateBounds" />
          </mxGeometry>
        </mxCell>
        <mxCell id="eVXEu6_S9rUV-fsNlkhg-15" value="MaGV" style="shape=partialRectangle;connectable=0;fillColor=none;top=0;left=0;bottom=0;right=0;align=left;spacingLeft=6;overflow=hidden;fontSize=16;" parent="eVXEu6_S9rUV-fsNlkhg-13" vertex="1">
          <mxGeometry x="30" width="150" height="30" as="geometry">
            <mxRectangle width="150" height="30" as="alternateBounds" />
          </mxGeometry>
        </mxCell>
        <mxCell id="eVXEu6_S9rUV-fsNlkhg-16" value="" style="shape=tableRow;horizontal=0;startSize=0;swimlaneHead=0;swimlaneBody=0;fillColor=none;collapsible=0;dropTarget=0;points=[[0,0.5],[1,0.5]];portConstraint=eastwest;top=0;left=0;right=0;bottom=0;fontSize=16;" parent="YjaHPiSWW629p1PQR9jl-194" vertex="1">
          <mxGeometry y="270" width="180" height="30" as="geometry" />
        </mxCell>
        <mxCell id="eVXEu6_S9rUV-fsNlkhg-17" value="" style="shape=partialRectangle;connectable=0;fillColor=none;top=0;left=0;bottom=0;right=0;editable=1;overflow=hidden;fontSize=16;" parent="eVXEu6_S9rUV-fsNlkhg-16" vertex="1">
          <mxGeometry width="30" height="30" as="geometry">
            <mxRectangle width="30" height="30" as="alternateBounds" />
          </mxGeometry>
        </mxCell>
        <mxCell id="eVXEu6_S9rUV-fsNlkhg-18" value="ChucDanh" style="shape=partialRectangle;connectable=0;fillColor=none;top=0;left=0;bottom=0;right=0;align=left;spacingLeft=6;overflow=hidden;fontSize=16;" parent="eVXEu6_S9rUV-fsNlkhg-16" vertex="1">
          <mxGeometry x="30" width="150" height="30" as="geometry">
            <mxRectangle width="150" height="30" as="alternateBounds" />
          </mxGeometry>
        </mxCell>
        <mxCell id="YjaHPiSWW629p1PQR9jl-225" value="&lt;i&gt;VaiTro&lt;/i&gt;" style="shape=table;startSize=30;container=1;collapsible=1;childLayout=tableLayout;fixedRows=1;rowLines=0;fontStyle=1;align=center;resizeLast=1;html=1;fontSize=16;fillColor=#fff2cc;strokeColor=#d6b656;strokeWidth=1;swimlaneFillColor=none;swimlaneLine=1;shadow=1;rounded=1;arcSize=11;" parent="WIyWlLk6GJQsqaUBKTNV-1" vertex="1">
          <mxGeometry x="1150" y="350" width="180" height="90" as="geometry">
            <mxRectangle x="1040" y="380" width="120" height="30" as="alternateBounds" />
          </mxGeometry>
        </mxCell>
        <mxCell id="YjaHPiSWW629p1PQR9jl-226" value="" style="shape=tableRow;horizontal=0;startSize=0;swimlaneHead=0;swimlaneBody=0;fillColor=none;collapsible=0;dropTarget=0;points=[[0,0.5],[1,0.5]];portConstraint=eastwest;top=0;left=0;right=0;bottom=1;rounded=1;shadow=1;strokeColor=#b85450;strokeWidth=1;align=center;verticalAlign=middle;fontFamily=Helvetica;fontSize=16;fontColor=default;html=1;" parent="YjaHPiSWW629p1PQR9jl-225" vertex="1">
          <mxGeometry y="30" width="180" height="30" as="geometry" />
        </mxCell>
        <mxCell id="YjaHPiSWW629p1PQR9jl-227" value="PK" style="shape=partialRectangle;connectable=0;fillColor=none;top=0;left=0;bottom=0;right=0;fontStyle=1;overflow=hidden;whiteSpace=wrap;html=1;rounded=1;shadow=1;strokeColor=#b85450;strokeWidth=1;align=center;verticalAlign=middle;fontFamily=Helvetica;fontSize=16;fontColor=default;startSize=30;" parent="YjaHPiSWW629p1PQR9jl-226" vertex="1">
          <mxGeometry width="30" height="30" as="geometry">
            <mxRectangle width="30" height="30" as="alternateBounds" />
          </mxGeometry>
        </mxCell>
        <mxCell id="YjaHPiSWW629p1PQR9jl-228" value="IdVaiTro" style="shape=partialRectangle;connectable=0;fillColor=none;top=0;left=0;bottom=0;right=0;align=left;spacingLeft=6;fontStyle=5;overflow=hidden;whiteSpace=wrap;html=1;rounded=1;shadow=1;strokeColor=#b85450;strokeWidth=1;verticalAlign=middle;fontFamily=Helvetica;fontSize=16;fontColor=default;startSize=30;" parent="YjaHPiSWW629p1PQR9jl-226" vertex="1">
          <mxGeometry x="30" width="150" height="30" as="geometry">
            <mxRectangle width="150" height="30" as="alternateBounds" />
          </mxGeometry>
        </mxCell>
        <mxCell id="YjaHPiSWW629p1PQR9jl-238" value="" style="shape=tableRow;horizontal=0;startSize=0;swimlaneHead=0;swimlaneBody=0;fillColor=none;collapsible=0;dropTarget=0;points=[[0,0.5],[1,0.5]];portConstraint=eastwest;top=0;left=0;right=0;bottom=0;fontSize=16;shadow=1;" parent="YjaHPiSWW629p1PQR9jl-225" vertex="1">
          <mxGeometry y="60" width="180" height="30" as="geometry" />
        </mxCell>
        <mxCell id="YjaHPiSWW629p1PQR9jl-239" value="" style="shape=partialRectangle;connectable=0;fillColor=none;top=0;left=0;bottom=0;right=0;editable=1;overflow=hidden;whiteSpace=wrap;html=1;fontSize=16;shadow=1;" parent="YjaHPiSWW629p1PQR9jl-238" vertex="1">
          <mxGeometry width="30" height="30" as="geometry">
            <mxRectangle width="30" height="30" as="alternateBounds" />
          </mxGeometry>
        </mxCell>
        <mxCell id="YjaHPiSWW629p1PQR9jl-240" value="VaiTro" style="shape=partialRectangle;connectable=0;fillColor=none;top=0;left=0;bottom=0;right=0;align=left;spacingLeft=6;overflow=hidden;whiteSpace=wrap;html=1;fontSize=16;shadow=1;" parent="YjaHPiSWW629p1PQR9jl-238" vertex="1">
          <mxGeometry x="30" width="150" height="30" as="geometry">
            <mxRectangle width="150" height="30" as="alternateBounds" />
          </mxGeometry>
        </mxCell>
        <mxCell id="YjaHPiSWW629p1PQR9jl-250" value="&lt;i&gt;UserOneTime&lt;/i&gt;" style="shape=table;startSize=30;container=1;collapsible=1;childLayout=tableLayout;fixedRows=1;rowLines=0;fontStyle=1;align=center;resizeLast=1;html=1;rounded=1;shadow=1;strokeColor=#d79b00;strokeWidth=1;verticalAlign=middle;fontFamily=Helvetica;fontSize=16;fillColor=#ffe6cc;" parent="WIyWlLk6GJQsqaUBKTNV-1" vertex="1">
          <mxGeometry x="880" y="40" width="180" height="270" as="geometry">
            <mxRectangle x="870" y="175" width="140" height="30" as="alternateBounds" />
          </mxGeometry>
        </mxCell>
        <mxCell id="YjaHPiSWW629p1PQR9jl-251" value="" style="shape=tableRow;horizontal=0;startSize=0;swimlaneHead=0;swimlaneBody=0;fillColor=none;collapsible=0;dropTarget=0;points=[[0,0.5],[1,0.5]];portConstraint=eastwest;top=0;left=0;right=0;bottom=1;rounded=1;shadow=1;strokeColor=#b85450;strokeWidth=1;align=center;verticalAlign=middle;fontFamily=Helvetica;fontSize=16;fontColor=default;html=1;" parent="YjaHPiSWW629p1PQR9jl-250" vertex="1">
          <mxGeometry y="30" width="180" height="30" as="geometry" />
        </mxCell>
        <mxCell id="YjaHPiSWW629p1PQR9jl-252" value="PK" style="shape=partialRectangle;connectable=0;fillColor=none;top=0;left=0;bottom=0;right=0;fontStyle=1;overflow=hidden;whiteSpace=wrap;html=1;rounded=1;shadow=1;strokeColor=#b85450;strokeWidth=1;align=center;verticalAlign=middle;fontFamily=Helvetica;fontSize=16;fontColor=default;startSize=30;" parent="YjaHPiSWW629p1PQR9jl-251" vertex="1">
          <mxGeometry width="30" height="30" as="geometry">
            <mxRectangle width="30" height="30" as="alternateBounds" />
          </mxGeometry>
        </mxCell>
        <mxCell id="YjaHPiSWW629p1PQR9jl-253" value="IdUserOneTime" style="shape=partialRectangle;connectable=0;fillColor=none;top=0;left=0;bottom=0;right=0;align=left;spacingLeft=6;fontStyle=5;overflow=hidden;whiteSpace=wrap;html=1;rounded=1;shadow=1;strokeColor=#b85450;strokeWidth=1;verticalAlign=middle;fontFamily=Helvetica;fontSize=16;fontColor=default;startSize=30;" parent="YjaHPiSWW629p1PQR9jl-251" vertex="1">
          <mxGeometry x="30" width="150" height="30" as="geometry">
            <mxRectangle width="150" height="30" as="alternateBounds" />
          </mxGeometry>
        </mxCell>
        <mxCell id="YjaHPiSWW629p1PQR9jl-254" value="" style="shape=tableRow;horizontal=0;startSize=0;swimlaneHead=0;swimlaneBody=0;fillColor=none;collapsible=0;dropTarget=0;points=[[0,0.5],[1,0.5]];portConstraint=eastwest;top=0;left=0;right=0;bottom=0;rounded=1;shadow=1;strokeColor=#b85450;strokeWidth=1;align=center;verticalAlign=middle;fontFamily=Helvetica;fontSize=16;fontColor=default;html=1;" parent="YjaHPiSWW629p1PQR9jl-250" vertex="1">
          <mxGeometry y="60" width="180" height="30" as="geometry" />
        </mxCell>
        <mxCell id="YjaHPiSWW629p1PQR9jl-255" value="FK" style="shape=partialRectangle;connectable=0;fillColor=none;top=0;left=0;bottom=0;right=0;fontStyle=0;overflow=hidden;whiteSpace=wrap;html=1;rounded=1;shadow=1;strokeColor=#b85450;strokeWidth=1;align=center;verticalAlign=middle;fontFamily=Helvetica;fontSize=16;fontColor=default;startSize=30;" parent="YjaHPiSWW629p1PQR9jl-254" vertex="1">
          <mxGeometry width="30" height="30" as="geometry">
            <mxRectangle width="30" height="30" as="alternateBounds" />
          </mxGeometry>
        </mxCell>
        <mxCell id="YjaHPiSWW629p1PQR9jl-256" value="IdTaiKhoan" style="shape=partialRectangle;connectable=0;fillColor=none;top=0;left=0;bottom=0;right=0;align=left;spacingLeft=6;fontStyle=0;overflow=hidden;whiteSpace=wrap;html=1;rounded=1;shadow=1;strokeColor=#b85450;strokeWidth=1;verticalAlign=middle;fontFamily=Helvetica;fontSize=16;fontColor=default;startSize=30;" parent="YjaHPiSWW629p1PQR9jl-254" vertex="1">
          <mxGeometry x="30" width="150" height="30" as="geometry">
            <mxRectangle width="150" height="30" as="alternateBounds" />
          </mxGeometry>
        </mxCell>
        <mxCell id="YjaHPiSWW629p1PQR9jl-257" value="" style="shape=tableRow;horizontal=0;startSize=0;swimlaneHead=0;swimlaneBody=0;fillColor=none;collapsible=0;dropTarget=0;points=[[0,0.5],[1,0.5]];portConstraint=eastwest;top=0;left=0;right=0;bottom=0;rounded=1;shadow=1;strokeColor=#b85450;strokeWidth=1;align=center;verticalAlign=middle;fontFamily=Helvetica;fontSize=16;fontColor=default;html=1;" parent="YjaHPiSWW629p1PQR9jl-250" vertex="1">
          <mxGeometry y="90" width="180" height="30" as="geometry" />
        </mxCell>
        <mxCell id="YjaHPiSWW629p1PQR9jl-258" value="FK" style="shape=partialRectangle;connectable=0;fillColor=none;top=0;left=0;bottom=0;right=0;fontStyle=0;overflow=hidden;whiteSpace=wrap;html=1;rounded=1;shadow=1;strokeColor=#b85450;strokeWidth=1;align=center;verticalAlign=middle;fontFamily=Helvetica;fontSize=16;fontColor=default;startSize=30;" parent="YjaHPiSWW629p1PQR9jl-257" vertex="1">
          <mxGeometry width="30" height="30" as="geometry">
            <mxRectangle width="30" height="30" as="alternateBounds" />
          </mxGeometry>
        </mxCell>
        <mxCell id="YjaHPiSWW629p1PQR9jl-259" value="IdQL_Duyet" style="shape=partialRectangle;connectable=0;fillColor=none;top=0;left=0;bottom=0;right=0;align=left;spacingLeft=6;fontStyle=0;overflow=hidden;whiteSpace=wrap;html=1;rounded=1;shadow=1;strokeColor=#b85450;strokeWidth=1;verticalAlign=middle;fontFamily=Helvetica;fontSize=16;fontColor=default;startSize=30;" parent="YjaHPiSWW629p1PQR9jl-257" vertex="1">
          <mxGeometry x="30" width="150" height="30" as="geometry">
            <mxRectangle width="150" height="30" as="alternateBounds" />
          </mxGeometry>
        </mxCell>
        <mxCell id="YjaHPiSWW629p1PQR9jl-260" value="" style="shape=tableRow;horizontal=0;startSize=0;swimlaneHead=0;swimlaneBody=0;fillColor=none;collapsible=0;dropTarget=0;points=[[0,0.5],[1,0.5]];portConstraint=eastwest;top=0;left=0;right=0;bottom=0;rounded=1;shadow=1;strokeColor=#b85450;strokeWidth=1;align=center;verticalAlign=middle;fontFamily=Helvetica;fontSize=16;fontColor=default;html=1;" parent="YjaHPiSWW629p1PQR9jl-250" vertex="1">
          <mxGeometry y="120" width="180" height="30" as="geometry" />
        </mxCell>
        <mxCell id="YjaHPiSWW629p1PQR9jl-261" value="" style="shape=partialRectangle;connectable=0;fillColor=none;top=0;left=0;bottom=0;right=0;editable=1;overflow=hidden;whiteSpace=wrap;html=1;rounded=1;shadow=1;strokeColor=#b85450;strokeWidth=1;align=center;verticalAlign=middle;fontFamily=Helvetica;fontSize=16;fontColor=default;startSize=30;" parent="YjaHPiSWW629p1PQR9jl-260" vertex="1">
          <mxGeometry width="30" height="30" as="geometry">
            <mxRectangle width="30" height="30" as="alternateBounds" />
          </mxGeometry>
        </mxCell>
        <mxCell id="YjaHPiSWW629p1PQR9jl-262" value="MinhChung" style="shape=partialRectangle;connectable=0;fillColor=none;top=0;left=0;bottom=0;right=0;align=left;spacingLeft=6;overflow=hidden;whiteSpace=wrap;html=1;rounded=1;shadow=1;strokeColor=#b85450;strokeWidth=1;verticalAlign=middle;fontFamily=Helvetica;fontSize=16;fontColor=default;startSize=30;" parent="YjaHPiSWW629p1PQR9jl-260" vertex="1">
          <mxGeometry x="30" width="150" height="30" as="geometry">
            <mxRectangle width="150" height="30" as="alternateBounds" />
          </mxGeometry>
        </mxCell>
        <mxCell id="YjaHPiSWW629p1PQR9jl-263" value="" style="shape=tableRow;horizontal=0;startSize=0;swimlaneHead=0;swimlaneBody=0;fillColor=none;collapsible=0;dropTarget=0;points=[[0,0.5],[1,0.5]];portConstraint=eastwest;top=0;left=0;right=0;bottom=0;rounded=1;shadow=1;strokeColor=#b85450;strokeWidth=1;align=center;verticalAlign=middle;fontFamily=Helvetica;fontSize=16;fontColor=default;html=1;" parent="YjaHPiSWW629p1PQR9jl-250" vertex="1">
          <mxGeometry y="150" width="180" height="30" as="geometry" />
        </mxCell>
        <mxCell id="YjaHPiSWW629p1PQR9jl-264" value="" style="shape=partialRectangle;connectable=0;fillColor=none;top=0;left=0;bottom=0;right=0;editable=1;overflow=hidden;whiteSpace=wrap;html=1;rounded=1;shadow=1;strokeColor=#b85450;strokeWidth=1;align=center;verticalAlign=middle;fontFamily=Helvetica;fontSize=16;fontColor=default;startSize=30;" parent="YjaHPiSWW629p1PQR9jl-263" vertex="1">
          <mxGeometry width="30" height="30" as="geometry">
            <mxRectangle width="30" height="30" as="alternateBounds" />
          </mxGeometry>
        </mxCell>
        <mxCell id="YjaHPiSWW629p1PQR9jl-265" value="LyDo" style="shape=partialRectangle;connectable=0;fillColor=none;top=0;left=0;bottom=0;right=0;align=left;spacingLeft=6;overflow=hidden;whiteSpace=wrap;html=1;rounded=1;shadow=1;strokeColor=#b85450;strokeWidth=1;verticalAlign=middle;fontFamily=Helvetica;fontSize=16;fontColor=default;startSize=30;" parent="YjaHPiSWW629p1PQR9jl-263" vertex="1">
          <mxGeometry x="30" width="150" height="30" as="geometry">
            <mxRectangle width="150" height="30" as="alternateBounds" />
          </mxGeometry>
        </mxCell>
        <mxCell id="YjaHPiSWW629p1PQR9jl-266" value="" style="shape=tableRow;horizontal=0;startSize=0;swimlaneHead=0;swimlaneBody=0;fillColor=none;collapsible=0;dropTarget=0;points=[[0,0.5],[1,0.5]];portConstraint=eastwest;top=0;left=0;right=0;bottom=0;rounded=1;shadow=1;strokeColor=#b85450;strokeWidth=1;align=center;verticalAlign=middle;fontFamily=Helvetica;fontSize=16;fontColor=default;html=1;" parent="YjaHPiSWW629p1PQR9jl-250" vertex="1">
          <mxGeometry y="180" width="180" height="30" as="geometry" />
        </mxCell>
        <mxCell id="YjaHPiSWW629p1PQR9jl-267" value="" style="shape=partialRectangle;connectable=0;fillColor=none;top=0;left=0;bottom=0;right=0;editable=1;overflow=hidden;whiteSpace=wrap;html=1;rounded=1;shadow=1;strokeColor=#b85450;strokeWidth=1;align=center;verticalAlign=middle;fontFamily=Helvetica;fontSize=16;fontColor=default;startSize=30;" parent="YjaHPiSWW629p1PQR9jl-266" vertex="1">
          <mxGeometry width="30" height="30" as="geometry">
            <mxRectangle width="30" height="30" as="alternateBounds" />
          </mxGeometry>
        </mxCell>
        <mxCell id="YjaHPiSWW629p1PQR9jl-268" value="_CreateAt" style="shape=partialRectangle;connectable=0;fillColor=none;top=0;left=0;bottom=0;right=0;align=left;spacingLeft=6;overflow=hidden;whiteSpace=wrap;html=1;rounded=1;shadow=1;strokeColor=#b85450;strokeWidth=1;verticalAlign=middle;fontFamily=Helvetica;fontSize=16;fontColor=default;startSize=30;" parent="YjaHPiSWW629p1PQR9jl-266" vertex="1">
          <mxGeometry x="30" width="150" height="30" as="geometry">
            <mxRectangle width="150" height="30" as="alternateBounds" />
          </mxGeometry>
        </mxCell>
        <mxCell id="YjaHPiSWW629p1PQR9jl-269" style="shape=tableRow;horizontal=0;startSize=0;swimlaneHead=0;swimlaneBody=0;fillColor=none;collapsible=0;dropTarget=0;points=[[0,0.5],[1,0.5]];portConstraint=eastwest;top=0;left=0;right=0;bottom=0;rounded=1;shadow=1;strokeColor=#b85450;strokeWidth=1;align=center;verticalAlign=middle;fontFamily=Helvetica;fontSize=16;fontColor=default;html=1;" parent="YjaHPiSWW629p1PQR9jl-250" vertex="1">
          <mxGeometry y="210" width="180" height="30" as="geometry" />
        </mxCell>
        <mxCell id="YjaHPiSWW629p1PQR9jl-270" style="shape=partialRectangle;connectable=0;fillColor=none;top=0;left=0;bottom=0;right=0;editable=1;overflow=hidden;whiteSpace=wrap;html=1;rounded=1;shadow=1;strokeColor=#b85450;strokeWidth=1;align=center;verticalAlign=middle;fontFamily=Helvetica;fontSize=16;fontColor=default;startSize=30;" parent="YjaHPiSWW629p1PQR9jl-269" vertex="1">
          <mxGeometry width="30" height="30" as="geometry">
            <mxRectangle width="30" height="30" as="alternateBounds" />
          </mxGeometry>
        </mxCell>
        <mxCell id="YjaHPiSWW629p1PQR9jl-271" value="_UsedAt" style="shape=partialRectangle;connectable=0;fillColor=none;top=0;left=0;bottom=0;right=0;align=left;spacingLeft=6;overflow=hidden;whiteSpace=wrap;html=1;rounded=1;shadow=1;strokeColor=#b85450;strokeWidth=1;verticalAlign=middle;fontFamily=Helvetica;fontSize=16;fontColor=default;startSize=30;" parent="YjaHPiSWW629p1PQR9jl-269" vertex="1">
          <mxGeometry x="30" width="150" height="30" as="geometry">
            <mxRectangle width="150" height="30" as="alternateBounds" />
          </mxGeometry>
        </mxCell>
        <mxCell id="YjaHPiSWW629p1PQR9jl-272" style="shape=tableRow;horizontal=0;startSize=0;swimlaneHead=0;swimlaneBody=0;fillColor=none;collapsible=0;dropTarget=0;points=[[0,0.5],[1,0.5]];portConstraint=eastwest;top=0;left=0;right=0;bottom=0;rounded=1;shadow=1;strokeColor=#b85450;strokeWidth=1;align=center;verticalAlign=middle;fontFamily=Helvetica;fontSize=16;fontColor=default;html=1;" parent="YjaHPiSWW629p1PQR9jl-250" vertex="1">
          <mxGeometry y="240" width="180" height="30" as="geometry" />
        </mxCell>
        <mxCell id="YjaHPiSWW629p1PQR9jl-273" style="shape=partialRectangle;connectable=0;fillColor=none;top=0;left=0;bottom=0;right=0;editable=1;overflow=hidden;whiteSpace=wrap;html=1;rounded=1;shadow=1;strokeColor=#b85450;strokeWidth=1;align=center;verticalAlign=middle;fontFamily=Helvetica;fontSize=16;fontColor=default;startSize=30;" parent="YjaHPiSWW629p1PQR9jl-272" vertex="1">
          <mxGeometry width="30" height="30" as="geometry">
            <mxRectangle width="30" height="30" as="alternateBounds" />
          </mxGeometry>
        </mxCell>
        <mxCell id="YjaHPiSWW629p1PQR9jl-274" value="_ExpireAt" style="shape=partialRectangle;connectable=0;fillColor=none;top=0;left=0;bottom=0;right=0;align=left;spacingLeft=6;overflow=hidden;whiteSpace=wrap;html=1;rounded=1;shadow=1;strokeColor=#b85450;strokeWidth=1;verticalAlign=middle;fontFamily=Helvetica;fontSize=16;fontColor=default;startSize=30;" parent="YjaHPiSWW629p1PQR9jl-272" vertex="1">
          <mxGeometry x="30" width="150" height="30" as="geometry">
            <mxRectangle width="150" height="30" as="alternateBounds" />
          </mxGeometry>
        </mxCell>
        <mxCell id="YjaHPiSWW629p1PQR9jl-282" value="" style="edgeStyle=entityRelationEdgeStyle;fontSize=12;html=1;endArrow=ERzeroToOne;startArrow=ERmandOne;rounded=0;fontFamily=Helvetica;fontColor=default;startSize=8;endSize=8;curved=1;shadow=1;" parent="WIyWlLk6GJQsqaUBKTNV-1" source="YjaHPiSWW629p1PQR9jl-145" target="YjaHPiSWW629p1PQR9jl-254" edge="1">
          <mxGeometry width="100" height="100" relative="1" as="geometry">
            <mxPoint x="1150" y="115" as="sourcePoint" />
            <mxPoint x="1040" y="135" as="targetPoint" />
          </mxGeometry>
        </mxCell>
        <mxCell id="YjaHPiSWW629p1PQR9jl-285" value="" style="edgeStyle=entityRelationEdgeStyle;fontSize=12;html=1;endArrow=ERzeroToMany;startArrow=ERmandOne;rounded=0;labelBackgroundColor=default;strokeColor=default;align=center;verticalAlign=middle;fontFamily=Helvetica;fontColor=default;startSize=8;endSize=8;shape=connector;curved=1;shadow=1;" parent="WIyWlLk6GJQsqaUBKTNV-1" source="YjaHPiSWW629p1PQR9jl-226" target="YjaHPiSWW629p1PQR9jl-142" edge="1">
          <mxGeometry width="100" height="100" relative="1" as="geometry">
            <mxPoint x="1150" y="710" as="sourcePoint" />
            <mxPoint x="1250" y="610" as="targetPoint" />
          </mxGeometry>
        </mxCell>
        <mxCell id="sixt074o4MYNPJn-QDUs-0" value="" style="edgeStyle=entityRelationEdgeStyle;fontSize=12;html=1;endArrow=ERzeroToMany;startArrow=ERmandOne;rounded=0;labelBackgroundColor=default;strokeColor=default;align=center;verticalAlign=middle;fontFamily=Helvetica;fontColor=default;startSize=8;endSize=8;shape=connector;curved=1;shadow=1;" parent="WIyWlLk6GJQsqaUBKTNV-1" source="YjaHPiSWW629p1PQR9jl-162" target="YjaHPiSWW629p1PQR9jl-257" edge="1">
          <mxGeometry width="100" height="100" relative="1" as="geometry">
            <mxPoint x="1330" y="445" as="sourcePoint" />
            <mxPoint x="1330" y="145" as="targetPoint" />
          </mxGeometry>
        </mxCell>
      </root>
    </mxGraphModel>
  </diagram>
  <diagram id="iemkAwQ29OZEjb6QHqsq" name="Page-2">
    <mxGraphModel dx="580" dy="1040" grid="1" gridSize="10" guides="1" tooltips="1" connect="1" arrows="1" fold="1" page="1" pageScale="1" pageWidth="850" pageHeight="1100" math="0" shadow="0">
      <root>
        <mxCell id="0" />
        <mxCell id="1" parent="0" />
        <mxCell id="YwWeyYaZD_U2KPOA4Cdm-34" value="" style="edgeStyle=entityRelationEdgeStyle;fontSize=12;html=1;endArrow=ERzeroToMany;startArrow=ERmandOne;rounded=0;startSize=8;endSize=8;curved=1;shadow=1;" parent="1" source="vrLC8PR-I297rd5SDueU-72" target="vrLC8PR-I297rd5SDueU-43" edge="1">
          <mxGeometry width="100" height="100" relative="1" as="geometry">
            <mxPoint x="1064" y="658" as="sourcePoint" />
            <mxPoint x="1164" y="558" as="targetPoint" />
          </mxGeometry>
        </mxCell>
        <mxCell id="YwWeyYaZD_U2KPOA4Cdm-64" value="" style="edgeStyle=entityRelationEdgeStyle;fontSize=12;html=1;endArrow=ERmandOne;startArrow=ERmandOne;rounded=0;startSize=8;endSize=8;curved=1;shadow=1;" parent="1" source="vrLC8PR-I297rd5SDueU-15" target="vrLC8PR-I297rd5SDueU-28" edge="1">
          <mxGeometry width="100" height="100" relative="1" as="geometry">
            <mxPoint x="600" y="550" as="sourcePoint" />
            <mxPoint x="700" y="450" as="targetPoint" />
          </mxGeometry>
        </mxCell>
        <mxCell id="RukVrsXD96MS80fE2SNg-1" value="&lt;i&gt;TaiKhoan&lt;/i&gt;" style="shape=table;startSize=30;container=1;collapsible=1;childLayout=tableLayout;fixedRows=1;rowLines=0;fontStyle=1;align=center;resizeLast=1;html=1;fontSize=16;fillColor=#f8cecc;strokeColor=#b85450;strokeWidth=1;swimlaneFillColor=none;swimlaneLine=1;shadow=1;rounded=1;arcSize=11;" parent="1" vertex="1">
          <mxGeometry x="860" y="610" width="200" height="270" as="geometry">
            <mxRectangle x="1040" y="380" width="120" height="30" as="alternateBounds" />
          </mxGeometry>
        </mxCell>
        <mxCell id="RukVrsXD96MS80fE2SNg-2" value="" style="shape=tableRow;horizontal=0;startSize=0;swimlaneHead=0;swimlaneBody=0;fillColor=none;collapsible=0;dropTarget=0;points=[[0,0.5],[1,0.5]];portConstraint=eastwest;top=0;left=0;right=0;bottom=1;rounded=1;shadow=1;strokeColor=#b85450;strokeWidth=1;align=center;verticalAlign=middle;fontFamily=Helvetica;fontSize=16;fontColor=default;html=1;" parent="RukVrsXD96MS80fE2SNg-1" vertex="1">
          <mxGeometry y="30" width="200" height="30" as="geometry" />
        </mxCell>
        <mxCell id="RukVrsXD96MS80fE2SNg-3" value="PK" style="shape=partialRectangle;connectable=0;fillColor=none;top=0;left=0;bottom=0;right=0;fontStyle=1;overflow=hidden;whiteSpace=wrap;html=1;rounded=1;shadow=1;strokeColor=#b85450;strokeWidth=1;align=center;verticalAlign=middle;fontFamily=Helvetica;fontSize=16;fontColor=default;startSize=30;" parent="RukVrsXD96MS80fE2SNg-2" vertex="1">
          <mxGeometry width="30" height="30" as="geometry">
            <mxRectangle width="30" height="30" as="alternateBounds" />
          </mxGeometry>
        </mxCell>
        <mxCell id="RukVrsXD96MS80fE2SNg-4" value="IdTaiKhoan" style="shape=partialRectangle;connectable=0;fillColor=none;top=0;left=0;bottom=0;right=0;align=left;spacingLeft=6;fontStyle=5;overflow=hidden;whiteSpace=wrap;html=1;rounded=1;shadow=1;strokeColor=#b85450;strokeWidth=1;verticalAlign=middle;fontFamily=Helvetica;fontSize=16;fontColor=default;startSize=30;" parent="RukVrsXD96MS80fE2SNg-2" vertex="1">
          <mxGeometry x="30" width="170" height="30" as="geometry">
            <mxRectangle width="170" height="30" as="alternateBounds" />
          </mxGeometry>
        </mxCell>
        <mxCell id="RukVrsXD96MS80fE2SNg-5" value="" style="shape=tableRow;horizontal=0;startSize=0;swimlaneHead=0;swimlaneBody=0;fillColor=none;collapsible=0;dropTarget=0;points=[[0,0.5],[1,0.5]];portConstraint=eastwest;top=0;left=0;right=0;bottom=0;rounded=1;shadow=1;strokeColor=#b85450;strokeWidth=1;align=center;verticalAlign=middle;fontFamily=Helvetica;fontSize=16;fontColor=default;html=1;" parent="RukVrsXD96MS80fE2SNg-1" vertex="1">
          <mxGeometry y="60" width="200" height="30" as="geometry" />
        </mxCell>
        <mxCell id="RukVrsXD96MS80fE2SNg-6" value="FK" style="shape=partialRectangle;connectable=0;fillColor=none;top=0;left=0;bottom=0;right=0;fontStyle=0;overflow=hidden;whiteSpace=wrap;html=1;rounded=1;shadow=1;strokeColor=#b85450;strokeWidth=1;align=center;verticalAlign=middle;fontFamily=Helvetica;fontSize=16;fontColor=default;startSize=30;" parent="RukVrsXD96MS80fE2SNg-5" vertex="1">
          <mxGeometry width="30" height="30" as="geometry">
            <mxRectangle width="30" height="30" as="alternateBounds" />
          </mxGeometry>
        </mxCell>
        <mxCell id="RukVrsXD96MS80fE2SNg-7" value="IdVaiTro" style="shape=partialRectangle;connectable=0;fillColor=none;top=0;left=0;bottom=0;right=0;align=left;spacingLeft=6;fontStyle=0;overflow=hidden;whiteSpace=wrap;html=1;rounded=1;shadow=1;strokeColor=#b85450;strokeWidth=1;verticalAlign=middle;fontFamily=Helvetica;fontSize=16;fontColor=default;startSize=30;" parent="RukVrsXD96MS80fE2SNg-5" vertex="1">
          <mxGeometry x="30" width="170" height="30" as="geometry">
            <mxRectangle width="170" height="30" as="alternateBounds" />
          </mxGeometry>
        </mxCell>
        <mxCell id="RukVrsXD96MS80fE2SNg-8" value="" style="shape=tableRow;horizontal=0;startSize=0;swimlaneHead=0;swimlaneBody=0;fillColor=none;collapsible=0;dropTarget=0;points=[[0,0.5],[1,0.5]];portConstraint=eastwest;top=0;left=0;right=0;bottom=0;fontSize=16;shadow=1;" parent="RukVrsXD96MS80fE2SNg-1" vertex="1">
          <mxGeometry y="90" width="200" height="30" as="geometry" />
        </mxCell>
        <mxCell id="RukVrsXD96MS80fE2SNg-9" value="" style="shape=partialRectangle;connectable=0;fillColor=none;top=0;left=0;bottom=0;right=0;editable=1;overflow=hidden;whiteSpace=wrap;html=1;fontSize=16;shadow=1;" parent="RukVrsXD96MS80fE2SNg-8" vertex="1">
          <mxGeometry width="30" height="30" as="geometry">
            <mxRectangle width="30" height="30" as="alternateBounds" />
          </mxGeometry>
        </mxCell>
        <mxCell id="RukVrsXD96MS80fE2SNg-10" value="TenDangNhap" style="shape=partialRectangle;connectable=0;fillColor=none;top=0;left=0;bottom=0;right=0;align=left;spacingLeft=6;overflow=hidden;whiteSpace=wrap;html=1;fontSize=16;shadow=1;" parent="RukVrsXD96MS80fE2SNg-8" vertex="1">
          <mxGeometry x="30" width="170" height="30" as="geometry">
            <mxRectangle width="170" height="30" as="alternateBounds" />
          </mxGeometry>
        </mxCell>
        <mxCell id="RukVrsXD96MS80fE2SNg-11" value="" style="shape=tableRow;horizontal=0;startSize=0;swimlaneHead=0;swimlaneBody=0;fillColor=none;collapsible=0;dropTarget=0;points=[[0,0.5],[1,0.5]];portConstraint=eastwest;top=0;left=0;right=0;bottom=0;fontSize=16;shadow=1;" parent="RukVrsXD96MS80fE2SNg-1" vertex="1">
          <mxGeometry y="120" width="200" height="30" as="geometry" />
        </mxCell>
        <mxCell id="RukVrsXD96MS80fE2SNg-12" value="" style="shape=partialRectangle;connectable=0;fillColor=none;top=0;left=0;bottom=0;right=0;editable=1;overflow=hidden;whiteSpace=wrap;html=1;fontSize=16;shadow=1;" parent="RukVrsXD96MS80fE2SNg-11" vertex="1">
          <mxGeometry width="30" height="30" as="geometry">
            <mxRectangle width="30" height="30" as="alternateBounds" />
          </mxGeometry>
        </mxCell>
        <mxCell id="RukVrsXD96MS80fE2SNg-13" value="Email" style="shape=partialRectangle;connectable=0;fillColor=none;top=0;left=0;bottom=0;right=0;align=left;spacingLeft=6;overflow=hidden;whiteSpace=wrap;html=1;fontSize=16;shadow=1;" parent="RukVrsXD96MS80fE2SNg-11" vertex="1">
          <mxGeometry x="30" width="170" height="30" as="geometry">
            <mxRectangle width="170" height="30" as="alternateBounds" />
          </mxGeometry>
        </mxCell>
        <mxCell id="RukVrsXD96MS80fE2SNg-14" value="" style="shape=tableRow;horizontal=0;startSize=0;swimlaneHead=0;swimlaneBody=0;fillColor=none;collapsible=0;dropTarget=0;points=[[0,0.5],[1,0.5]];portConstraint=eastwest;top=0;left=0;right=0;bottom=0;fontSize=16;shadow=1;" parent="RukVrsXD96MS80fE2SNg-1" vertex="1">
          <mxGeometry y="150" width="200" height="30" as="geometry" />
        </mxCell>
        <mxCell id="RukVrsXD96MS80fE2SNg-15" value="" style="shape=partialRectangle;connectable=0;fillColor=none;top=0;left=0;bottom=0;right=0;editable=1;overflow=hidden;whiteSpace=wrap;html=1;fontSize=16;shadow=1;" parent="RukVrsXD96MS80fE2SNg-14" vertex="1">
          <mxGeometry width="30" height="30" as="geometry">
            <mxRectangle width="30" height="30" as="alternateBounds" />
          </mxGeometry>
        </mxCell>
        <mxCell id="RukVrsXD96MS80fE2SNg-16" value="MatKhau" style="shape=partialRectangle;connectable=0;fillColor=none;top=0;left=0;bottom=0;right=0;align=left;spacingLeft=6;overflow=hidden;whiteSpace=wrap;html=1;fontSize=16;shadow=1;" parent="RukVrsXD96MS80fE2SNg-14" vertex="1">
          <mxGeometry x="30" width="170" height="30" as="geometry">
            <mxRectangle width="170" height="30" as="alternateBounds" />
          </mxGeometry>
        </mxCell>
        <mxCell id="RukVrsXD96MS80fE2SNg-17" style="shape=tableRow;horizontal=0;startSize=0;swimlaneHead=0;swimlaneBody=0;fillColor=none;collapsible=0;dropTarget=0;points=[[0,0.5],[1,0.5]];portConstraint=eastwest;top=0;left=0;right=0;bottom=0;fontSize=16;shadow=1;" parent="RukVrsXD96MS80fE2SNg-1" vertex="1">
          <mxGeometry y="180" width="200" height="30" as="geometry" />
        </mxCell>
        <mxCell id="RukVrsXD96MS80fE2SNg-18" style="shape=partialRectangle;connectable=0;fillColor=none;top=0;left=0;bottom=0;right=0;editable=1;overflow=hidden;whiteSpace=wrap;html=1;fontSize=16;shadow=1;" parent="RukVrsXD96MS80fE2SNg-17" vertex="1">
          <mxGeometry width="30" height="30" as="geometry">
            <mxRectangle width="30" height="30" as="alternateBounds" />
          </mxGeometry>
        </mxCell>
        <mxCell id="RukVrsXD96MS80fE2SNg-19" value="_CreateAt" style="shape=partialRectangle;connectable=0;fillColor=none;top=0;left=0;bottom=0;right=0;align=left;spacingLeft=6;overflow=hidden;whiteSpace=wrap;html=1;fontSize=16;shadow=1;" parent="RukVrsXD96MS80fE2SNg-17" vertex="1">
          <mxGeometry x="30" width="170" height="30" as="geometry">
            <mxRectangle width="170" height="30" as="alternateBounds" />
          </mxGeometry>
        </mxCell>
        <mxCell id="RukVrsXD96MS80fE2SNg-20" style="shape=tableRow;horizontal=0;startSize=0;swimlaneHead=0;swimlaneBody=0;fillColor=none;collapsible=0;dropTarget=0;points=[[0,0.5],[1,0.5]];portConstraint=eastwest;top=0;left=0;right=0;bottom=0;fontSize=16;shadow=1;" parent="RukVrsXD96MS80fE2SNg-1" vertex="1">
          <mxGeometry y="210" width="200" height="30" as="geometry" />
        </mxCell>
        <mxCell id="RukVrsXD96MS80fE2SNg-21" style="shape=partialRectangle;connectable=0;fillColor=none;top=0;left=0;bottom=0;right=0;editable=1;overflow=hidden;whiteSpace=wrap;html=1;fontSize=16;shadow=1;" parent="RukVrsXD96MS80fE2SNg-20" vertex="1">
          <mxGeometry width="30" height="30" as="geometry">
            <mxRectangle width="30" height="30" as="alternateBounds" />
          </mxGeometry>
        </mxCell>
        <mxCell id="RukVrsXD96MS80fE2SNg-22" value="_UpdateAt" style="shape=partialRectangle;connectable=0;fillColor=none;top=0;left=0;bottom=0;right=0;align=left;spacingLeft=6;overflow=hidden;whiteSpace=wrap;html=1;fontSize=16;shadow=1;" parent="RukVrsXD96MS80fE2SNg-20" vertex="1">
          <mxGeometry x="30" width="170" height="30" as="geometry">
            <mxRectangle width="170" height="30" as="alternateBounds" />
          </mxGeometry>
        </mxCell>
        <mxCell id="RukVrsXD96MS80fE2SNg-23" style="shape=tableRow;horizontal=0;startSize=0;swimlaneHead=0;swimlaneBody=0;fillColor=none;collapsible=0;dropTarget=0;points=[[0,0.5],[1,0.5]];portConstraint=eastwest;top=0;left=0;right=0;bottom=0;fontSize=16;shadow=1;" parent="RukVrsXD96MS80fE2SNg-1" vertex="1">
          <mxGeometry y="240" width="200" height="30" as="geometry" />
        </mxCell>
        <mxCell id="RukVrsXD96MS80fE2SNg-24" style="shape=partialRectangle;connectable=0;fillColor=none;top=0;left=0;bottom=0;right=0;editable=1;overflow=hidden;whiteSpace=wrap;html=1;fontSize=16;shadow=1;" parent="RukVrsXD96MS80fE2SNg-23" vertex="1">
          <mxGeometry width="30" height="30" as="geometry">
            <mxRectangle width="30" height="30" as="alternateBounds" />
          </mxGeometry>
        </mxCell>
        <mxCell id="RukVrsXD96MS80fE2SNg-25" value="_DeleteAt" style="shape=partialRectangle;connectable=0;fillColor=none;top=0;left=0;bottom=0;right=0;align=left;spacingLeft=6;overflow=hidden;whiteSpace=wrap;html=1;fontSize=16;shadow=1;" parent="RukVrsXD96MS80fE2SNg-23" vertex="1">
          <mxGeometry x="30" width="170" height="30" as="geometry">
            <mxRectangle width="170" height="30" as="alternateBounds" />
          </mxGeometry>
        </mxCell>
        <mxCell id="vrLC8PR-I297rd5SDueU-14" value="DsMPHLopHoc" style="shape=table;startSize=30;container=1;collapsible=1;childLayout=tableLayout;fixedRows=1;rowLines=0;fontStyle=1;align=center;resizeLast=1;html=1;whiteSpace=wrap;rounded=1;shadow=1;strokeColor=#d6b656;strokeWidth=1;verticalAlign=middle;fontFamily=Helvetica;fontSize=16;fillColor=#fff2cc;" parent="1" vertex="1">
          <mxGeometry x="870" y="930" width="200" height="150" as="geometry" />
        </mxCell>
        <mxCell id="vrLC8PR-I297rd5SDueU-15" value="" style="shape=tableRow;horizontal=0;startSize=0;swimlaneHead=0;swimlaneBody=0;fillColor=none;collapsible=0;dropTarget=0;points=[[0,0.5],[1,0.5]];portConstraint=eastwest;top=0;left=0;right=0;bottom=0;html=1;rounded=1;shadow=1;strokeColor=#b85450;strokeWidth=1;align=center;verticalAlign=middle;fontFamily=Helvetica;fontSize=16;fontColor=default;" parent="vrLC8PR-I297rd5SDueU-14" vertex="1">
          <mxGeometry y="30" width="200" height="30" as="geometry" />
        </mxCell>
        <mxCell id="vrLC8PR-I297rd5SDueU-16" value="PK,FK" style="shape=partialRectangle;connectable=0;fillColor=none;top=0;left=0;bottom=0;right=0;fontStyle=1;overflow=hidden;html=1;whiteSpace=wrap;rounded=1;shadow=1;strokeColor=#b85450;strokeWidth=1;align=center;verticalAlign=middle;fontFamily=Helvetica;fontSize=16;fontColor=default;startSize=30;" parent="vrLC8PR-I297rd5SDueU-15" vertex="1">
          <mxGeometry width="50" height="30" as="geometry">
            <mxRectangle width="50" height="30" as="alternateBounds" />
          </mxGeometry>
        </mxCell>
        <mxCell id="vrLC8PR-I297rd5SDueU-17" value="MaLH" style="shape=partialRectangle;connectable=0;fillColor=none;top=0;left=0;bottom=0;right=0;align=left;spacingLeft=6;fontStyle=5;overflow=hidden;html=1;whiteSpace=wrap;rounded=1;shadow=1;strokeColor=#b85450;strokeWidth=1;verticalAlign=middle;fontFamily=Helvetica;fontSize=16;fontColor=default;startSize=30;" parent="vrLC8PR-I297rd5SDueU-15" vertex="1">
          <mxGeometry x="50" width="150" height="30" as="geometry">
            <mxRectangle width="150" height="30" as="alternateBounds" />
          </mxGeometry>
        </mxCell>
        <mxCell id="vrLC8PR-I297rd5SDueU-18" value="" style="shape=tableRow;horizontal=0;startSize=0;swimlaneHead=0;swimlaneBody=0;fillColor=none;collapsible=0;dropTarget=0;points=[[0,0.5],[1,0.5]];portConstraint=eastwest;top=0;left=0;right=0;bottom=1;html=1;rounded=1;shadow=1;strokeColor=#b85450;strokeWidth=1;align=center;verticalAlign=middle;fontFamily=Helvetica;fontSize=16;fontColor=default;" parent="vrLC8PR-I297rd5SDueU-14" vertex="1">
          <mxGeometry y="60" width="200" height="30" as="geometry" />
        </mxCell>
        <mxCell id="vrLC8PR-I297rd5SDueU-19" value="PK,FK" style="shape=partialRectangle;connectable=0;fillColor=none;top=0;left=0;bottom=0;right=0;fontStyle=1;overflow=hidden;html=1;whiteSpace=wrap;rounded=1;shadow=1;strokeColor=#b85450;strokeWidth=1;align=center;verticalAlign=middle;fontFamily=Helvetica;fontSize=16;fontColor=default;startSize=30;" parent="vrLC8PR-I297rd5SDueU-18" vertex="1">
          <mxGeometry width="50" height="30" as="geometry">
            <mxRectangle width="50" height="30" as="alternateBounds" />
          </mxGeometry>
        </mxCell>
        <mxCell id="vrLC8PR-I297rd5SDueU-20" value="IdTaiKhoan_MPH" style="shape=partialRectangle;connectable=0;fillColor=none;top=0;left=0;bottom=0;right=0;align=left;spacingLeft=6;fontStyle=5;overflow=hidden;html=1;whiteSpace=wrap;rounded=1;shadow=1;strokeColor=#b85450;strokeWidth=1;verticalAlign=middle;fontFamily=Helvetica;fontSize=16;fontColor=default;startSize=30;" parent="vrLC8PR-I297rd5SDueU-18" vertex="1">
          <mxGeometry x="50" width="150" height="30" as="geometry">
            <mxRectangle width="150" height="30" as="alternateBounds" />
          </mxGeometry>
        </mxCell>
        <mxCell id="vrLC8PR-I297rd5SDueU-21" value="" style="shape=tableRow;horizontal=0;startSize=0;swimlaneHead=0;swimlaneBody=0;fillColor=none;collapsible=0;dropTarget=0;points=[[0,0.5],[1,0.5]];portConstraint=eastwest;top=0;left=0;right=0;bottom=0;html=1;rounded=1;shadow=1;strokeColor=#b85450;strokeWidth=1;align=center;verticalAlign=middle;fontFamily=Helvetica;fontSize=16;fontColor=default;" parent="vrLC8PR-I297rd5SDueU-14" vertex="1">
          <mxGeometry y="90" width="200" height="30" as="geometry" />
        </mxCell>
        <mxCell id="vrLC8PR-I297rd5SDueU-22" value="" style="shape=partialRectangle;connectable=0;fillColor=none;top=0;left=0;bottom=0;right=0;editable=1;overflow=hidden;html=1;whiteSpace=wrap;rounded=1;shadow=1;strokeColor=#b85450;strokeWidth=1;align=center;verticalAlign=middle;fontFamily=Helvetica;fontSize=16;fontColor=default;startSize=30;" parent="vrLC8PR-I297rd5SDueU-21" vertex="1">
          <mxGeometry width="50" height="30" as="geometry">
            <mxRectangle width="50" height="30" as="alternateBounds" />
          </mxGeometry>
        </mxCell>
        <mxCell id="vrLC8PR-I297rd5SDueU-23" value="_UpdateAt" style="shape=partialRectangle;connectable=0;fillColor=none;top=0;left=0;bottom=0;right=0;align=left;spacingLeft=6;overflow=hidden;html=1;whiteSpace=wrap;rounded=1;shadow=1;strokeColor=#b85450;strokeWidth=1;verticalAlign=middle;fontFamily=Helvetica;fontSize=16;fontColor=default;startSize=30;" parent="vrLC8PR-I297rd5SDueU-21" vertex="1">
          <mxGeometry x="50" width="150" height="30" as="geometry">
            <mxRectangle width="150" height="30" as="alternateBounds" />
          </mxGeometry>
        </mxCell>
        <mxCell id="vrLC8PR-I297rd5SDueU-24" value="" style="shape=tableRow;horizontal=0;startSize=0;swimlaneHead=0;swimlaneBody=0;fillColor=none;collapsible=0;dropTarget=0;points=[[0,0.5],[1,0.5]];portConstraint=eastwest;top=0;left=0;right=0;bottom=0;html=1;rounded=1;shadow=1;strokeColor=#b85450;strokeWidth=1;align=center;verticalAlign=middle;fontFamily=Helvetica;fontSize=16;fontColor=default;" parent="vrLC8PR-I297rd5SDueU-14" vertex="1">
          <mxGeometry y="120" width="200" height="30" as="geometry" />
        </mxCell>
        <mxCell id="vrLC8PR-I297rd5SDueU-25" value="" style="shape=partialRectangle;connectable=0;fillColor=none;top=0;left=0;bottom=0;right=0;editable=1;overflow=hidden;html=1;whiteSpace=wrap;rounded=1;shadow=1;strokeColor=#b85450;strokeWidth=1;align=center;verticalAlign=middle;fontFamily=Helvetica;fontSize=16;fontColor=default;startSize=30;" parent="vrLC8PR-I297rd5SDueU-24" vertex="1">
          <mxGeometry width="50" height="30" as="geometry">
            <mxRectangle width="50" height="30" as="alternateBounds" />
          </mxGeometry>
        </mxCell>
        <mxCell id="vrLC8PR-I297rd5SDueU-26" value="_DeleteAt" style="shape=partialRectangle;connectable=0;fillColor=none;top=0;left=0;bottom=0;right=0;align=left;spacingLeft=6;overflow=hidden;html=1;whiteSpace=wrap;rounded=1;shadow=1;strokeColor=#b85450;strokeWidth=1;verticalAlign=middle;fontFamily=Helvetica;fontSize=16;fontColor=default;startSize=30;" parent="vrLC8PR-I297rd5SDueU-24" vertex="1">
          <mxGeometry x="50" width="150" height="30" as="geometry">
            <mxRectangle width="150" height="30" as="alternateBounds" />
          </mxGeometry>
        </mxCell>
        <mxCell id="vrLC8PR-I297rd5SDueU-27" value="LopHoc" style="shape=table;startSize=30;container=1;collapsible=1;childLayout=tableLayout;fixedRows=1;rowLines=0;fontStyle=1;align=center;resizeLast=1;html=1;rounded=1;shadow=1;strokeColor=#82b366;strokeWidth=1;verticalAlign=middle;fontFamily=Helvetica;fontSize=16;fillColor=#d5e8d4;" parent="1" vertex="1">
          <mxGeometry x="1160" y="770" width="200" height="300" as="geometry" />
        </mxCell>
        <mxCell id="vrLC8PR-I297rd5SDueU-28" value="" style="shape=tableRow;horizontal=0;startSize=0;swimlaneHead=0;swimlaneBody=0;fillColor=none;collapsible=0;dropTarget=0;points=[[0,0.5],[1,0.5]];portConstraint=eastwest;top=0;left=0;right=0;bottom=1;rounded=1;shadow=1;strokeColor=#b85450;strokeWidth=1;align=center;verticalAlign=middle;fontFamily=Helvetica;fontSize=16;fontColor=default;html=1;" parent="vrLC8PR-I297rd5SDueU-27" vertex="1">
          <mxGeometry y="30" width="200" height="30" as="geometry" />
        </mxCell>
        <mxCell id="vrLC8PR-I297rd5SDueU-29" value="PK" style="shape=partialRectangle;connectable=0;fillColor=none;top=0;left=0;bottom=0;right=0;fontStyle=1;overflow=hidden;whiteSpace=wrap;html=1;rounded=1;shadow=1;strokeColor=#b85450;strokeWidth=1;align=center;verticalAlign=middle;fontFamily=Helvetica;fontSize=16;fontColor=default;startSize=30;" parent="vrLC8PR-I297rd5SDueU-28" vertex="1">
          <mxGeometry width="30" height="30" as="geometry">
            <mxRectangle width="30" height="30" as="alternateBounds" />
          </mxGeometry>
        </mxCell>
        <mxCell id="vrLC8PR-I297rd5SDueU-30" value="MaLH" style="shape=partialRectangle;connectable=0;fillColor=none;top=0;left=0;bottom=0;right=0;align=left;spacingLeft=6;fontStyle=5;overflow=hidden;whiteSpace=wrap;html=1;rounded=1;shadow=1;strokeColor=#b85450;strokeWidth=1;verticalAlign=middle;fontFamily=Helvetica;fontSize=16;fontColor=default;startSize=30;" parent="vrLC8PR-I297rd5SDueU-28" vertex="1">
          <mxGeometry x="30" width="170" height="30" as="geometry">
            <mxRectangle width="170" height="30" as="alternateBounds" />
          </mxGeometry>
        </mxCell>
        <mxCell id="vrLC8PR-I297rd5SDueU-40" value="" style="shape=tableRow;horizontal=0;startSize=0;swimlaneHead=0;swimlaneBody=0;fillColor=none;collapsible=0;dropTarget=0;points=[[0,0.5],[1,0.5]];portConstraint=eastwest;top=0;left=0;right=0;bottom=0;rounded=1;shadow=1;strokeColor=#b85450;strokeWidth=1;align=center;verticalAlign=middle;fontFamily=Helvetica;fontSize=16;fontColor=default;html=1;" parent="vrLC8PR-I297rd5SDueU-27" vertex="1">
          <mxGeometry y="60" width="200" height="30" as="geometry" />
        </mxCell>
        <mxCell id="vrLC8PR-I297rd5SDueU-41" value="FK" style="shape=partialRectangle;connectable=0;fillColor=none;top=0;left=0;bottom=0;right=0;fontStyle=0;overflow=hidden;whiteSpace=wrap;html=1;rounded=1;shadow=1;strokeColor=#b85450;strokeWidth=1;align=center;verticalAlign=middle;fontFamily=Helvetica;fontSize=16;fontColor=default;startSize=30;" parent="vrLC8PR-I297rd5SDueU-40" vertex="1">
          <mxGeometry width="30" height="30" as="geometry">
            <mxRectangle width="30" height="30" as="alternateBounds" />
          </mxGeometry>
        </mxCell>
        <mxCell id="vrLC8PR-I297rd5SDueU-42" value="IdGV_GiangDay" style="shape=partialRectangle;connectable=0;fillColor=none;top=0;left=0;bottom=0;right=0;align=left;spacingLeft=6;fontStyle=0;overflow=hidden;whiteSpace=wrap;html=1;rounded=1;shadow=1;strokeColor=#b85450;strokeWidth=1;verticalAlign=middle;fontFamily=Helvetica;fontSize=16;fontColor=default;startSize=30;" parent="vrLC8PR-I297rd5SDueU-40" vertex="1">
          <mxGeometry x="30" width="170" height="30" as="geometry">
            <mxRectangle width="170" height="30" as="alternateBounds" />
          </mxGeometry>
        </mxCell>
        <mxCell id="vrLC8PR-I297rd5SDueU-43" value="" style="shape=tableRow;horizontal=0;startSize=0;swimlaneHead=0;swimlaneBody=0;fillColor=none;collapsible=0;dropTarget=0;points=[[0,0.5],[1,0.5]];portConstraint=eastwest;top=0;left=0;right=0;bottom=0;rounded=1;shadow=1;strokeColor=#b85450;strokeWidth=1;align=center;verticalAlign=middle;fontFamily=Helvetica;fontSize=16;fontColor=default;html=1;" parent="vrLC8PR-I297rd5SDueU-27" vertex="1">
          <mxGeometry y="90" width="200" height="30" as="geometry" />
        </mxCell>
        <mxCell id="vrLC8PR-I297rd5SDueU-44" value="FK" style="shape=partialRectangle;connectable=0;fillColor=none;top=0;left=0;bottom=0;right=0;fontStyle=0;overflow=hidden;whiteSpace=wrap;html=1;rounded=1;shadow=1;strokeColor=#b85450;strokeWidth=1;align=center;verticalAlign=middle;fontFamily=Helvetica;fontSize=16;fontColor=default;startSize=30;" parent="vrLC8PR-I297rd5SDueU-43" vertex="1">
          <mxGeometry width="30" height="30" as="geometry">
            <mxRectangle width="30" height="30" as="alternateBounds" />
          </mxGeometry>
        </mxCell>
        <mxCell id="vrLC8PR-I297rd5SDueU-45" value="MaMH" style="shape=partialRectangle;connectable=0;fillColor=none;top=0;left=0;bottom=0;right=0;align=left;spacingLeft=6;fontStyle=0;overflow=hidden;whiteSpace=wrap;html=1;rounded=1;shadow=1;strokeColor=#b85450;strokeWidth=1;verticalAlign=middle;fontFamily=Helvetica;fontSize=16;fontColor=default;startSize=30;" parent="vrLC8PR-I297rd5SDueU-43" vertex="1">
          <mxGeometry x="30" width="170" height="30" as="geometry">
            <mxRectangle width="170" height="30" as="alternateBounds" />
          </mxGeometry>
        </mxCell>
        <mxCell id="SDzIovAKJivyriliaDZ--1" value="" style="shape=tableRow;horizontal=0;startSize=0;swimlaneHead=0;swimlaneBody=0;fillColor=none;collapsible=0;dropTarget=0;points=[[0,0.5],[1,0.5]];portConstraint=eastwest;top=0;left=0;right=0;bottom=0;fontSize=16;" parent="vrLC8PR-I297rd5SDueU-27" vertex="1">
          <mxGeometry y="120" width="200" height="30" as="geometry" />
        </mxCell>
        <mxCell id="SDzIovAKJivyriliaDZ--2" value="FK" style="shape=partialRectangle;connectable=0;fillColor=none;top=0;left=0;bottom=0;right=0;fontStyle=0;overflow=hidden;whiteSpace=wrap;html=1;fontSize=16;" parent="SDzIovAKJivyriliaDZ--1" vertex="1">
          <mxGeometry width="30" height="30" as="geometry">
            <mxRectangle width="30" height="30" as="alternateBounds" />
          </mxGeometry>
        </mxCell>
        <mxCell id="SDzIovAKJivyriliaDZ--3" value="MaLopSV" style="shape=partialRectangle;connectable=0;fillColor=none;top=0;left=0;bottom=0;right=0;align=left;spacingLeft=6;fontStyle=0;overflow=hidden;whiteSpace=wrap;html=1;fontSize=16;" parent="SDzIovAKJivyriliaDZ--1" vertex="1">
          <mxGeometry x="30" width="170" height="30" as="geometry">
            <mxRectangle width="170" height="30" as="alternateBounds" />
          </mxGeometry>
        </mxCell>
        <mxCell id="n4BJEKyayPpbtIs2UeRn-1" value="" style="shape=tableRow;horizontal=0;startSize=0;swimlaneHead=0;swimlaneBody=0;fillColor=none;collapsible=0;dropTarget=0;points=[[0,0.5],[1,0.5]];portConstraint=eastwest;top=0;left=0;right=0;bottom=0;fontSize=16;" parent="vrLC8PR-I297rd5SDueU-27" vertex="1">
          <mxGeometry y="150" width="200" height="30" as="geometry" />
        </mxCell>
        <mxCell id="n4BJEKyayPpbtIs2UeRn-2" value="" style="shape=partialRectangle;connectable=0;fillColor=none;top=0;left=0;bottom=0;right=0;editable=1;overflow=hidden;fontSize=16;" parent="n4BJEKyayPpbtIs2UeRn-1" vertex="1">
          <mxGeometry width="30" height="30" as="geometry">
            <mxRectangle width="30" height="30" as="alternateBounds" />
          </mxGeometry>
        </mxCell>
        <mxCell id="n4BJEKyayPpbtIs2UeRn-3" value="Ngay_BD" style="shape=partialRectangle;connectable=0;fillColor=none;top=0;left=0;bottom=0;right=0;align=left;spacingLeft=6;overflow=hidden;fontSize=16;" parent="n4BJEKyayPpbtIs2UeRn-1" vertex="1">
          <mxGeometry x="30" width="170" height="30" as="geometry">
            <mxRectangle width="170" height="30" as="alternateBounds" />
          </mxGeometry>
        </mxCell>
        <mxCell id="n4BJEKyayPpbtIs2UeRn-4" value="" style="shape=tableRow;horizontal=0;startSize=0;swimlaneHead=0;swimlaneBody=0;fillColor=none;collapsible=0;dropTarget=0;points=[[0,0.5],[1,0.5]];portConstraint=eastwest;top=0;left=0;right=0;bottom=0;fontSize=16;" parent="vrLC8PR-I297rd5SDueU-27" vertex="1">
          <mxGeometry y="180" width="200" height="30" as="geometry" />
        </mxCell>
        <mxCell id="n4BJEKyayPpbtIs2UeRn-5" value="" style="shape=partialRectangle;connectable=0;fillColor=none;top=0;left=0;bottom=0;right=0;editable=1;overflow=hidden;fontSize=16;" parent="n4BJEKyayPpbtIs2UeRn-4" vertex="1">
          <mxGeometry width="30" height="30" as="geometry">
            <mxRectangle width="30" height="30" as="alternateBounds" />
          </mxGeometry>
        </mxCell>
        <mxCell id="n4BJEKyayPpbtIs2UeRn-6" value="Ngay_KT" style="shape=partialRectangle;connectable=0;fillColor=none;top=0;left=0;bottom=0;right=0;align=left;spacingLeft=6;overflow=hidden;fontSize=16;" parent="n4BJEKyayPpbtIs2UeRn-4" vertex="1">
          <mxGeometry x="30" width="170" height="30" as="geometry">
            <mxRectangle width="170" height="30" as="alternateBounds" />
          </mxGeometry>
        </mxCell>
        <mxCell id="vrLC8PR-I297rd5SDueU-31" value="" style="shape=tableRow;horizontal=0;startSize=0;swimlaneHead=0;swimlaneBody=0;fillColor=none;collapsible=0;dropTarget=0;points=[[0,0.5],[1,0.5]];portConstraint=eastwest;top=0;left=0;right=0;bottom=0;rounded=1;shadow=1;strokeColor=#b85450;strokeWidth=1;align=center;verticalAlign=middle;fontFamily=Helvetica;fontSize=16;fontColor=default;html=1;" parent="vrLC8PR-I297rd5SDueU-27" vertex="1">
          <mxGeometry y="210" width="200" height="30" as="geometry" />
        </mxCell>
        <mxCell id="vrLC8PR-I297rd5SDueU-32" value="" style="shape=partialRectangle;connectable=0;fillColor=none;top=0;left=0;bottom=0;right=0;editable=1;overflow=hidden;whiteSpace=wrap;html=1;rounded=1;shadow=1;strokeColor=#b85450;strokeWidth=1;align=center;verticalAlign=middle;fontFamily=Helvetica;fontSize=16;fontColor=default;startSize=30;" parent="vrLC8PR-I297rd5SDueU-31" vertex="1">
          <mxGeometry width="30" height="30" as="geometry">
            <mxRectangle width="30" height="30" as="alternateBounds" />
          </mxGeometry>
        </mxCell>
        <mxCell id="vrLC8PR-I297rd5SDueU-33" value="_CreateAt" style="shape=partialRectangle;connectable=0;fillColor=none;top=0;left=0;bottom=0;right=0;align=left;spacingLeft=6;overflow=hidden;whiteSpace=wrap;html=1;rounded=1;shadow=1;strokeColor=#b85450;strokeWidth=1;verticalAlign=middle;fontFamily=Helvetica;fontSize=16;fontColor=default;startSize=30;" parent="vrLC8PR-I297rd5SDueU-31" vertex="1">
          <mxGeometry x="30" width="170" height="30" as="geometry">
            <mxRectangle width="170" height="30" as="alternateBounds" />
          </mxGeometry>
        </mxCell>
        <mxCell id="vrLC8PR-I297rd5SDueU-34" value="" style="shape=tableRow;horizontal=0;startSize=0;swimlaneHead=0;swimlaneBody=0;fillColor=none;collapsible=0;dropTarget=0;points=[[0,0.5],[1,0.5]];portConstraint=eastwest;top=0;left=0;right=0;bottom=0;rounded=1;shadow=1;strokeColor=#b85450;strokeWidth=1;align=center;verticalAlign=middle;fontFamily=Helvetica;fontSize=16;fontColor=default;html=1;" parent="vrLC8PR-I297rd5SDueU-27" vertex="1">
          <mxGeometry y="240" width="200" height="30" as="geometry" />
        </mxCell>
        <mxCell id="vrLC8PR-I297rd5SDueU-35" value="" style="shape=partialRectangle;connectable=0;fillColor=none;top=0;left=0;bottom=0;right=0;editable=1;overflow=hidden;whiteSpace=wrap;html=1;rounded=1;shadow=1;strokeColor=#b85450;strokeWidth=1;align=center;verticalAlign=middle;fontFamily=Helvetica;fontSize=16;fontColor=default;startSize=30;" parent="vrLC8PR-I297rd5SDueU-34" vertex="1">
          <mxGeometry width="30" height="30" as="geometry">
            <mxRectangle width="30" height="30" as="alternateBounds" />
          </mxGeometry>
        </mxCell>
        <mxCell id="vrLC8PR-I297rd5SDueU-36" value="_UpdateAt" style="shape=partialRectangle;connectable=0;fillColor=none;top=0;left=0;bottom=0;right=0;align=left;spacingLeft=6;overflow=hidden;whiteSpace=wrap;html=1;rounded=1;shadow=1;strokeColor=#b85450;strokeWidth=1;verticalAlign=middle;fontFamily=Helvetica;fontSize=16;fontColor=default;startSize=30;" parent="vrLC8PR-I297rd5SDueU-34" vertex="1">
          <mxGeometry x="30" width="170" height="30" as="geometry">
            <mxRectangle width="170" height="30" as="alternateBounds" />
          </mxGeometry>
        </mxCell>
        <mxCell id="vrLC8PR-I297rd5SDueU-37" value="" style="shape=tableRow;horizontal=0;startSize=0;swimlaneHead=0;swimlaneBody=0;fillColor=none;collapsible=0;dropTarget=0;points=[[0,0.5],[1,0.5]];portConstraint=eastwest;top=0;left=0;right=0;bottom=0;rounded=1;shadow=1;strokeColor=#b85450;strokeWidth=1;align=center;verticalAlign=middle;fontFamily=Helvetica;fontSize=16;fontColor=default;html=1;" parent="vrLC8PR-I297rd5SDueU-27" vertex="1">
          <mxGeometry y="270" width="200" height="30" as="geometry" />
        </mxCell>
        <mxCell id="vrLC8PR-I297rd5SDueU-38" value="" style="shape=partialRectangle;connectable=0;fillColor=none;top=0;left=0;bottom=0;right=0;editable=1;overflow=hidden;whiteSpace=wrap;html=1;rounded=1;shadow=1;strokeColor=#b85450;strokeWidth=1;align=center;verticalAlign=middle;fontFamily=Helvetica;fontSize=16;fontColor=default;startSize=30;" parent="vrLC8PR-I297rd5SDueU-37" vertex="1">
          <mxGeometry width="30" height="30" as="geometry">
            <mxRectangle width="30" height="30" as="alternateBounds" />
          </mxGeometry>
        </mxCell>
        <mxCell id="vrLC8PR-I297rd5SDueU-39" value="_DeleteAt" style="shape=partialRectangle;connectable=0;fillColor=none;top=0;left=0;bottom=0;right=0;align=left;spacingLeft=6;overflow=hidden;whiteSpace=wrap;html=1;rounded=1;shadow=1;strokeColor=#b85450;strokeWidth=1;verticalAlign=middle;fontFamily=Helvetica;fontSize=16;fontColor=default;startSize=30;" parent="vrLC8PR-I297rd5SDueU-37" vertex="1">
          <mxGeometry x="30" width="170" height="30" as="geometry">
            <mxRectangle width="170" height="30" as="alternateBounds" />
          </mxGeometry>
        </mxCell>
        <mxCell id="vrLC8PR-I297rd5SDueU-71" value="MonHoc" style="shape=table;startSize=30;container=1;collapsible=1;childLayout=tableLayout;fixedRows=1;rowLines=0;fontStyle=1;align=center;resizeLast=1;html=1;rounded=1;shadow=1;strokeColor=#d79b00;strokeWidth=1;verticalAlign=middle;fontFamily=Helvetica;fontSize=16;fillColor=#ffe6cc;" parent="1" vertex="1">
          <mxGeometry x="1480" y="800" width="200" height="150" as="geometry" />
        </mxCell>
        <mxCell id="vrLC8PR-I297rd5SDueU-72" value="" style="shape=tableRow;horizontal=0;startSize=0;swimlaneHead=0;swimlaneBody=0;fillColor=none;collapsible=0;dropTarget=0;points=[[0,0.5],[1,0.5]];portConstraint=eastwest;top=0;left=0;right=0;bottom=1;rounded=1;shadow=1;strokeColor=#b85450;strokeWidth=1;align=center;verticalAlign=middle;fontFamily=Helvetica;fontSize=16;fontColor=default;html=1;" parent="vrLC8PR-I297rd5SDueU-71" vertex="1">
          <mxGeometry y="30" width="200" height="30" as="geometry" />
        </mxCell>
        <mxCell id="vrLC8PR-I297rd5SDueU-73" value="PK" style="shape=partialRectangle;connectable=0;fillColor=none;top=0;left=0;bottom=0;right=0;fontStyle=1;overflow=hidden;whiteSpace=wrap;html=1;rounded=1;shadow=1;strokeColor=#b85450;strokeWidth=1;align=center;verticalAlign=middle;fontFamily=Helvetica;fontSize=16;fontColor=default;startSize=30;" parent="vrLC8PR-I297rd5SDueU-72" vertex="1">
          <mxGeometry width="30" height="30" as="geometry">
            <mxRectangle width="30" height="30" as="alternateBounds" />
          </mxGeometry>
        </mxCell>
        <mxCell id="vrLC8PR-I297rd5SDueU-74" value="MaMH" style="shape=partialRectangle;connectable=0;fillColor=none;top=0;left=0;bottom=0;right=0;align=left;spacingLeft=6;fontStyle=5;overflow=hidden;whiteSpace=wrap;html=1;rounded=1;shadow=1;strokeColor=#b85450;strokeWidth=1;verticalAlign=middle;fontFamily=Helvetica;fontSize=16;fontColor=default;startSize=30;" parent="vrLC8PR-I297rd5SDueU-72" vertex="1">
          <mxGeometry x="30" width="170" height="30" as="geometry">
            <mxRectangle width="170" height="30" as="alternateBounds" />
          </mxGeometry>
        </mxCell>
        <mxCell id="vrLC8PR-I297rd5SDueU-81" value="" style="shape=tableRow;horizontal=0;startSize=0;swimlaneHead=0;swimlaneBody=0;fillColor=none;collapsible=0;dropTarget=0;points=[[0,0.5],[1,0.5]];portConstraint=eastwest;top=0;left=0;right=0;bottom=0;rounded=1;shadow=1;strokeColor=#b85450;strokeWidth=1;align=center;verticalAlign=middle;fontFamily=Helvetica;fontSize=16;fontColor=default;html=1;" parent="vrLC8PR-I297rd5SDueU-71" vertex="1">
          <mxGeometry y="60" width="200" height="30" as="geometry" />
        </mxCell>
        <mxCell id="vrLC8PR-I297rd5SDueU-82" value="" style="shape=partialRectangle;connectable=0;fillColor=none;top=0;left=0;bottom=0;right=0;editable=1;overflow=hidden;whiteSpace=wrap;html=1;rounded=1;shadow=1;strokeColor=#b85450;strokeWidth=1;align=center;verticalAlign=middle;fontFamily=Helvetica;fontSize=16;fontColor=default;startSize=30;" parent="vrLC8PR-I297rd5SDueU-81" vertex="1">
          <mxGeometry width="30" height="30" as="geometry">
            <mxRectangle width="30" height="30" as="alternateBounds" />
          </mxGeometry>
        </mxCell>
        <mxCell id="vrLC8PR-I297rd5SDueU-83" value="TenMH" style="shape=partialRectangle;connectable=0;fillColor=none;top=0;left=0;bottom=0;right=0;align=left;spacingLeft=6;overflow=hidden;whiteSpace=wrap;html=1;rounded=1;shadow=1;strokeColor=#b85450;strokeWidth=1;verticalAlign=middle;fontFamily=Helvetica;fontSize=16;fontColor=default;startSize=30;" parent="vrLC8PR-I297rd5SDueU-81" vertex="1">
          <mxGeometry x="30" width="170" height="30" as="geometry">
            <mxRectangle width="170" height="30" as="alternateBounds" />
          </mxGeometry>
        </mxCell>
        <mxCell id="vrLC8PR-I297rd5SDueU-84" value="" style="shape=tableRow;horizontal=0;startSize=0;swimlaneHead=0;swimlaneBody=0;fillColor=none;collapsible=0;dropTarget=0;points=[[0,0.5],[1,0.5]];portConstraint=eastwest;top=0;left=0;right=0;bottom=0;rounded=1;shadow=1;strokeColor=#b85450;strokeWidth=1;align=center;verticalAlign=middle;fontFamily=Helvetica;fontSize=16;fontColor=default;html=1;" parent="vrLC8PR-I297rd5SDueU-71" vertex="1">
          <mxGeometry y="90" width="200" height="30" as="geometry" />
        </mxCell>
        <mxCell id="vrLC8PR-I297rd5SDueU-85" value="" style="shape=partialRectangle;connectable=0;fillColor=none;top=0;left=0;bottom=0;right=0;editable=1;overflow=hidden;whiteSpace=wrap;html=1;rounded=1;shadow=1;strokeColor=#b85450;strokeWidth=1;align=center;verticalAlign=middle;fontFamily=Helvetica;fontSize=16;fontColor=default;startSize=30;" parent="vrLC8PR-I297rd5SDueU-84" vertex="1">
          <mxGeometry width="30" height="30" as="geometry">
            <mxRectangle width="30" height="30" as="alternateBounds" />
          </mxGeometry>
        </mxCell>
        <mxCell id="vrLC8PR-I297rd5SDueU-86" value="_UpdateAt" style="shape=partialRectangle;connectable=0;fillColor=none;top=0;left=0;bottom=0;right=0;align=left;spacingLeft=6;overflow=hidden;whiteSpace=wrap;html=1;rounded=1;shadow=1;strokeColor=#b85450;strokeWidth=1;verticalAlign=middle;fontFamily=Helvetica;fontSize=16;fontColor=default;startSize=30;" parent="vrLC8PR-I297rd5SDueU-84" vertex="1">
          <mxGeometry x="30" width="170" height="30" as="geometry">
            <mxRectangle width="170" height="30" as="alternateBounds" />
          </mxGeometry>
        </mxCell>
        <mxCell id="vrLC8PR-I297rd5SDueU-87" value="" style="shape=tableRow;horizontal=0;startSize=0;swimlaneHead=0;swimlaneBody=0;fillColor=none;collapsible=0;dropTarget=0;points=[[0,0.5],[1,0.5]];portConstraint=eastwest;top=0;left=0;right=0;bottom=0;rounded=1;shadow=1;strokeColor=#b85450;strokeWidth=1;align=center;verticalAlign=middle;fontFamily=Helvetica;fontSize=16;fontColor=default;html=1;" parent="vrLC8PR-I297rd5SDueU-71" vertex="1">
          <mxGeometry y="120" width="200" height="30" as="geometry" />
        </mxCell>
        <mxCell id="vrLC8PR-I297rd5SDueU-88" value="" style="shape=partialRectangle;connectable=0;fillColor=none;top=0;left=0;bottom=0;right=0;editable=1;overflow=hidden;whiteSpace=wrap;html=1;rounded=1;shadow=1;strokeColor=#b85450;strokeWidth=1;align=center;verticalAlign=middle;fontFamily=Helvetica;fontSize=16;fontColor=default;startSize=30;" parent="vrLC8PR-I297rd5SDueU-87" vertex="1">
          <mxGeometry width="30" height="30" as="geometry">
            <mxRectangle width="30" height="30" as="alternateBounds" />
          </mxGeometry>
        </mxCell>
        <mxCell id="vrLC8PR-I297rd5SDueU-89" value="_DeleteAt" style="shape=partialRectangle;connectable=0;fillColor=none;top=0;left=0;bottom=0;right=0;align=left;spacingLeft=6;overflow=hidden;whiteSpace=wrap;html=1;rounded=1;shadow=1;strokeColor=#b85450;strokeWidth=1;verticalAlign=middle;fontFamily=Helvetica;fontSize=16;fontColor=default;startSize=30;" parent="vrLC8PR-I297rd5SDueU-87" vertex="1">
          <mxGeometry x="30" width="170" height="30" as="geometry">
            <mxRectangle width="170" height="30" as="alternateBounds" />
          </mxGeometry>
        </mxCell>
        <mxCell id="jP7LqhEn8m6WkyFaA8Xe-29" value="" style="edgeStyle=entityRelationEdgeStyle;fontSize=12;html=1;endArrow=ERmandOne;startArrow=ERmandOne;rounded=0;startSize=8;endSize=8;curved=1;shadow=1;" parent="1" source="tTv6X4A1zD-OilkjqSDy-2" target="vrLC8PR-I297rd5SDueU-40" edge="1">
          <mxGeometry width="100" height="100" relative="1" as="geometry">
            <mxPoint x="1090" y="105" as="sourcePoint" />
            <mxPoint x="1390" y="420" as="targetPoint" />
          </mxGeometry>
        </mxCell>
        <mxCell id="ZVmW2lYojgWNjis_d8IX-1" value="LopSV" style="shape=table;startSize=30;container=1;collapsible=1;childLayout=tableLayout;fixedRows=1;rowLines=0;fontStyle=1;align=center;resizeLast=1;html=1;rounded=1;shadow=1;strokeColor=#d6b656;strokeWidth=1;verticalAlign=middle;fontFamily=Helvetica;fontSize=16;fillColor=#fff2cc;" parent="1" vertex="1">
          <mxGeometry x="1480" y="990" width="200" height="90" as="geometry">
            <mxRectangle x="1420" y="250" width="100" height="30" as="alternateBounds" />
          </mxGeometry>
        </mxCell>
        <mxCell id="ZVmW2lYojgWNjis_d8IX-2" value="" style="shape=tableRow;horizontal=0;startSize=0;swimlaneHead=0;swimlaneBody=0;fillColor=none;collapsible=0;dropTarget=0;points=[[0,0.5],[1,0.5]];portConstraint=eastwest;top=0;left=0;right=0;bottom=1;rounded=1;shadow=1;strokeColor=#b85450;strokeWidth=1;align=center;verticalAlign=middle;fontFamily=Helvetica;fontSize=16;fontColor=default;html=1;" parent="ZVmW2lYojgWNjis_d8IX-1" vertex="1">
          <mxGeometry y="30" width="200" height="30" as="geometry" />
        </mxCell>
        <mxCell id="ZVmW2lYojgWNjis_d8IX-3" value="PK" style="shape=partialRectangle;connectable=0;fillColor=none;top=0;left=0;bottom=0;right=0;fontStyle=1;overflow=hidden;whiteSpace=wrap;html=1;rounded=1;shadow=1;strokeColor=#b85450;strokeWidth=1;align=center;verticalAlign=middle;fontFamily=Helvetica;fontSize=16;fontColor=default;startSize=30;" parent="ZVmW2lYojgWNjis_d8IX-2" vertex="1">
          <mxGeometry width="30" height="30" as="geometry">
            <mxRectangle width="30" height="30" as="alternateBounds" />
          </mxGeometry>
        </mxCell>
        <mxCell id="ZVmW2lYojgWNjis_d8IX-4" value="MaLopSV" style="shape=partialRectangle;connectable=0;fillColor=none;top=0;left=0;bottom=0;right=0;align=left;spacingLeft=6;fontStyle=5;overflow=hidden;whiteSpace=wrap;html=1;rounded=1;shadow=1;strokeColor=#b85450;strokeWidth=1;verticalAlign=middle;fontFamily=Helvetica;fontSize=16;fontColor=default;startSize=30;" parent="ZVmW2lYojgWNjis_d8IX-2" vertex="1">
          <mxGeometry x="30" width="170" height="30" as="geometry">
            <mxRectangle width="170" height="30" as="alternateBounds" />
          </mxGeometry>
        </mxCell>
        <mxCell id="ZVmW2lYojgWNjis_d8IX-8" value="" style="shape=tableRow;horizontal=0;startSize=0;swimlaneHead=0;swimlaneBody=0;fillColor=none;collapsible=0;dropTarget=0;points=[[0,0.5],[1,0.5]];portConstraint=eastwest;top=0;left=0;right=0;bottom=0;rounded=1;shadow=1;strokeColor=#b85450;strokeWidth=1;align=center;verticalAlign=middle;fontFamily=Helvetica;fontSize=16;fontColor=default;html=1;" parent="ZVmW2lYojgWNjis_d8IX-1" vertex="1">
          <mxGeometry y="60" width="200" height="30" as="geometry" />
        </mxCell>
        <mxCell id="ZVmW2lYojgWNjis_d8IX-9" value="" style="shape=partialRectangle;connectable=0;fillColor=none;top=0;left=0;bottom=0;right=0;editable=1;overflow=hidden;whiteSpace=wrap;html=1;rounded=1;shadow=1;strokeColor=#b85450;strokeWidth=1;align=center;verticalAlign=middle;fontFamily=Helvetica;fontSize=16;fontColor=default;startSize=30;" parent="ZVmW2lYojgWNjis_d8IX-8" vertex="1">
          <mxGeometry width="30" height="30" as="geometry">
            <mxRectangle width="30" height="30" as="alternateBounds" />
          </mxGeometry>
        </mxCell>
        <mxCell id="ZVmW2lYojgWNjis_d8IX-10" value="TenLopSV" style="shape=partialRectangle;connectable=0;fillColor=none;top=0;left=0;bottom=0;right=0;align=left;spacingLeft=6;overflow=hidden;whiteSpace=wrap;html=1;rounded=1;shadow=1;strokeColor=#b85450;strokeWidth=1;verticalAlign=middle;fontFamily=Helvetica;fontSize=16;fontColor=default;startSize=30;" parent="ZVmW2lYojgWNjis_d8IX-8" vertex="1">
          <mxGeometry x="30" width="170" height="30" as="geometry">
            <mxRectangle width="170" height="30" as="alternateBounds" />
          </mxGeometry>
        </mxCell>
        <mxCell id="ZVmW2lYojgWNjis_d8IX-11" value="" style="edgeStyle=entityRelationEdgeStyle;fontSize=12;html=1;endArrow=ERzeroToMany;startArrow=ERmandOne;rounded=0;startSize=8;endSize=8;curved=1;" parent="1" source="ZVmW2lYojgWNjis_d8IX-2" target="SDzIovAKJivyriliaDZ--1" edge="1">
          <mxGeometry width="100" height="100" relative="1" as="geometry">
            <mxPoint x="1440" y="140" as="sourcePoint" />
            <mxPoint x="1430" y="80" as="targetPoint" />
          </mxGeometry>
        </mxCell>
        <mxCell id="ZVmW2lYojgWNjis_d8IX-12" value="" style="edgeStyle=entityRelationEdgeStyle;fontSize=12;html=1;endArrow=ERoneToMany;startArrow=ERmandOne;rounded=0;startSize=8;endSize=8;curved=1;" parent="1" source="RukVrsXD96MS80fE2SNg-2" target="vrLC8PR-I297rd5SDueU-18" edge="1">
          <mxGeometry width="100" height="100" relative="1" as="geometry">
            <mxPoint x="710" y="510" as="sourcePoint" />
            <mxPoint x="810" y="410" as="targetPoint" />
          </mxGeometry>
        </mxCell>
        <mxCell id="tTv6X4A1zD-OilkjqSDy-1" value="&lt;i&gt;GiangVien&lt;/i&gt;" style="shape=table;startSize=30;container=1;collapsible=1;childLayout=tableLayout;fixedRows=1;rowLines=0;fontStyle=1;align=center;resizeLast=1;html=1;rounded=1;shadow=1;strokeColor=#d79b00;strokeWidth=1;verticalAlign=middle;fontFamily=Helvetica;fontSize=16;fillColor=#ffe6cc;" parent="1" vertex="1">
          <mxGeometry x="1480" y="460" width="200" height="300" as="geometry">
            <mxRectangle x="1140" y="430" width="120" height="30" as="alternateBounds" />
          </mxGeometry>
        </mxCell>
        <mxCell id="tTv6X4A1zD-OilkjqSDy-2" value="" style="shape=tableRow;horizontal=0;startSize=0;swimlaneHead=0;swimlaneBody=0;fillColor=none;collapsible=0;dropTarget=0;points=[[0,0.5],[1,0.5]];portConstraint=eastwest;top=0;left=0;right=0;bottom=1;rounded=1;shadow=1;strokeColor=#b85450;strokeWidth=1;align=center;verticalAlign=middle;fontFamily=Helvetica;fontSize=16;fontColor=default;html=1;" parent="tTv6X4A1zD-OilkjqSDy-1" vertex="1">
          <mxGeometry y="30" width="200" height="30" as="geometry" />
        </mxCell>
        <mxCell id="tTv6X4A1zD-OilkjqSDy-3" value="PK" style="shape=partialRectangle;connectable=0;fillColor=none;top=0;left=0;bottom=0;right=0;fontStyle=1;overflow=hidden;whiteSpace=wrap;html=1;rounded=1;shadow=1;strokeColor=#b85450;strokeWidth=1;align=center;verticalAlign=middle;fontFamily=Helvetica;fontSize=16;fontColor=default;startSize=30;" parent="tTv6X4A1zD-OilkjqSDy-2" vertex="1">
          <mxGeometry width="30" height="30" as="geometry">
            <mxRectangle width="30" height="30" as="alternateBounds" />
          </mxGeometry>
        </mxCell>
        <mxCell id="tTv6X4A1zD-OilkjqSDy-4" value="IdGV" style="shape=partialRectangle;connectable=0;fillColor=none;top=0;left=0;bottom=0;right=0;align=left;spacingLeft=6;fontStyle=5;overflow=hidden;whiteSpace=wrap;html=1;rounded=1;shadow=1;strokeColor=#b85450;strokeWidth=1;verticalAlign=middle;fontFamily=Helvetica;fontSize=16;fontColor=default;startSize=30;" parent="tTv6X4A1zD-OilkjqSDy-2" vertex="1">
          <mxGeometry x="30" width="170" height="30" as="geometry">
            <mxRectangle width="170" height="30" as="alternateBounds" />
          </mxGeometry>
        </mxCell>
        <mxCell id="tTv6X4A1zD-OilkjqSDy-5" value="" style="shape=tableRow;horizontal=0;startSize=0;swimlaneHead=0;swimlaneBody=0;fillColor=none;collapsible=0;dropTarget=0;points=[[0,0.5],[1,0.5]];portConstraint=eastwest;top=0;left=0;right=0;bottom=0;rounded=1;shadow=1;strokeColor=#b85450;strokeWidth=1;align=center;verticalAlign=middle;fontFamily=Helvetica;fontSize=16;fontColor=default;html=1;" parent="tTv6X4A1zD-OilkjqSDy-1" vertex="1">
          <mxGeometry y="60" width="200" height="30" as="geometry" />
        </mxCell>
        <mxCell id="tTv6X4A1zD-OilkjqSDy-6" value="FK" style="shape=partialRectangle;connectable=0;fillColor=none;top=0;left=0;bottom=0;right=0;fontStyle=0;overflow=hidden;whiteSpace=wrap;html=1;rounded=1;shadow=1;strokeColor=#b85450;strokeWidth=1;align=center;verticalAlign=middle;fontFamily=Helvetica;fontSize=16;fontColor=default;startSize=30;" parent="tTv6X4A1zD-OilkjqSDy-5" vertex="1">
          <mxGeometry width="30" height="30" as="geometry">
            <mxRectangle width="30" height="30" as="alternateBounds" />
          </mxGeometry>
        </mxCell>
        <mxCell id="tTv6X4A1zD-OilkjqSDy-7" value="IdTaiKhoan" style="shape=partialRectangle;connectable=0;fillColor=none;top=0;left=0;bottom=0;right=0;align=left;spacingLeft=6;fontStyle=0;overflow=hidden;whiteSpace=wrap;html=1;rounded=1;shadow=1;strokeColor=#b85450;strokeWidth=1;verticalAlign=middle;fontFamily=Helvetica;fontSize=16;fontColor=default;startSize=30;" parent="tTv6X4A1zD-OilkjqSDy-5" vertex="1">
          <mxGeometry x="30" width="170" height="30" as="geometry">
            <mxRectangle width="170" height="30" as="alternateBounds" />
          </mxGeometry>
        </mxCell>
        <mxCell id="tTv6X4A1zD-OilkjqSDy-8" value="" style="shape=tableRow;horizontal=0;startSize=0;swimlaneHead=0;swimlaneBody=0;fillColor=none;collapsible=0;dropTarget=0;points=[[0,0.5],[1,0.5]];portConstraint=eastwest;top=0;left=0;right=0;bottom=0;rounded=1;shadow=1;strokeColor=#b85450;strokeWidth=1;align=center;verticalAlign=middle;fontFamily=Helvetica;fontSize=16;fontColor=default;html=1;" parent="tTv6X4A1zD-OilkjqSDy-1" vertex="1">
          <mxGeometry y="90" width="200" height="30" as="geometry" />
        </mxCell>
        <mxCell id="tTv6X4A1zD-OilkjqSDy-9" value="" style="shape=partialRectangle;connectable=0;fillColor=none;top=0;left=0;bottom=0;right=0;editable=1;overflow=hidden;whiteSpace=wrap;html=1;rounded=1;shadow=1;strokeColor=#b85450;strokeWidth=1;align=center;verticalAlign=middle;fontFamily=Helvetica;fontSize=16;fontColor=default;startSize=30;" parent="tTv6X4A1zD-OilkjqSDy-8" vertex="1">
          <mxGeometry width="30" height="30" as="geometry">
            <mxRectangle width="30" height="30" as="alternateBounds" />
          </mxGeometry>
        </mxCell>
        <mxCell id="tTv6X4A1zD-OilkjqSDy-10" value="HoTen" style="shape=partialRectangle;connectable=0;fillColor=none;top=0;left=0;bottom=0;right=0;align=left;spacingLeft=6;overflow=hidden;whiteSpace=wrap;html=1;rounded=1;shadow=1;strokeColor=#b85450;strokeWidth=1;verticalAlign=middle;fontFamily=Helvetica;fontSize=16;fontColor=default;startSize=30;" parent="tTv6X4A1zD-OilkjqSDy-8" vertex="1">
          <mxGeometry x="30" width="170" height="30" as="geometry">
            <mxRectangle width="170" height="30" as="alternateBounds" />
          </mxGeometry>
        </mxCell>
        <mxCell id="tTv6X4A1zD-OilkjqSDy-11" style="shape=tableRow;horizontal=0;startSize=0;swimlaneHead=0;swimlaneBody=0;fillColor=none;collapsible=0;dropTarget=0;points=[[0,0.5],[1,0.5]];portConstraint=eastwest;top=0;left=0;right=0;bottom=0;rounded=1;shadow=1;strokeColor=#b85450;strokeWidth=1;align=center;verticalAlign=middle;fontFamily=Helvetica;fontSize=16;fontColor=default;html=1;" parent="tTv6X4A1zD-OilkjqSDy-1" vertex="1">
          <mxGeometry y="120" width="200" height="30" as="geometry" />
        </mxCell>
        <mxCell id="tTv6X4A1zD-OilkjqSDy-12" style="shape=partialRectangle;connectable=0;fillColor=none;top=0;left=0;bottom=0;right=0;editable=1;overflow=hidden;whiteSpace=wrap;html=1;rounded=1;shadow=1;strokeColor=#b85450;strokeWidth=1;align=center;verticalAlign=middle;fontFamily=Helvetica;fontSize=16;fontColor=default;startSize=30;" parent="tTv6X4A1zD-OilkjqSDy-11" vertex="1">
          <mxGeometry width="30" height="30" as="geometry">
            <mxRectangle width="30" height="30" as="alternateBounds" />
          </mxGeometry>
        </mxCell>
        <mxCell id="tTv6X4A1zD-OilkjqSDy-13" value="NgaySinh" style="shape=partialRectangle;connectable=0;fillColor=none;top=0;left=0;bottom=0;right=0;align=left;spacingLeft=6;overflow=hidden;whiteSpace=wrap;html=1;rounded=1;shadow=1;strokeColor=#b85450;strokeWidth=1;verticalAlign=middle;fontFamily=Helvetica;fontSize=16;fontColor=default;startSize=30;" parent="tTv6X4A1zD-OilkjqSDy-11" vertex="1">
          <mxGeometry x="30" width="170" height="30" as="geometry">
            <mxRectangle width="170" height="30" as="alternateBounds" />
          </mxGeometry>
        </mxCell>
        <mxCell id="tTv6X4A1zD-OilkjqSDy-14" style="shape=tableRow;horizontal=0;startSize=0;swimlaneHead=0;swimlaneBody=0;fillColor=none;collapsible=0;dropTarget=0;points=[[0,0.5],[1,0.5]];portConstraint=eastwest;top=0;left=0;right=0;bottom=0;rounded=1;shadow=1;strokeColor=#b85450;strokeWidth=1;align=center;verticalAlign=middle;fontFamily=Helvetica;fontSize=16;fontColor=default;html=1;" parent="tTv6X4A1zD-OilkjqSDy-1" vertex="1">
          <mxGeometry y="150" width="200" height="30" as="geometry" />
        </mxCell>
        <mxCell id="tTv6X4A1zD-OilkjqSDy-15" style="shape=partialRectangle;connectable=0;fillColor=none;top=0;left=0;bottom=0;right=0;editable=1;overflow=hidden;whiteSpace=wrap;html=1;rounded=1;shadow=1;strokeColor=#b85450;strokeWidth=1;align=center;verticalAlign=middle;fontFamily=Helvetica;fontSize=16;fontColor=default;startSize=30;" parent="tTv6X4A1zD-OilkjqSDy-14" vertex="1">
          <mxGeometry width="30" height="30" as="geometry">
            <mxRectangle width="30" height="30" as="alternateBounds" />
          </mxGeometry>
        </mxCell>
        <mxCell id="tTv6X4A1zD-OilkjqSDy-16" value="GioiTinh" style="shape=partialRectangle;connectable=0;fillColor=none;top=0;left=0;bottom=0;right=0;align=left;spacingLeft=6;overflow=hidden;whiteSpace=wrap;html=1;rounded=1;shadow=1;strokeColor=#b85450;strokeWidth=1;verticalAlign=middle;fontFamily=Helvetica;fontSize=16;fontColor=default;startSize=30;" parent="tTv6X4A1zD-OilkjqSDy-14" vertex="1">
          <mxGeometry x="30" width="170" height="30" as="geometry">
            <mxRectangle width="170" height="30" as="alternateBounds" />
          </mxGeometry>
        </mxCell>
        <mxCell id="tTv6X4A1zD-OilkjqSDy-17" style="shape=tableRow;horizontal=0;startSize=0;swimlaneHead=0;swimlaneBody=0;fillColor=none;collapsible=0;dropTarget=0;points=[[0,0.5],[1,0.5]];portConstraint=eastwest;top=0;left=0;right=0;bottom=0;rounded=1;shadow=1;strokeColor=#b85450;strokeWidth=1;align=center;verticalAlign=middle;fontFamily=Helvetica;fontSize=16;fontColor=default;html=1;" parent="tTv6X4A1zD-OilkjqSDy-1" vertex="1">
          <mxGeometry y="180" width="200" height="30" as="geometry" />
        </mxCell>
        <mxCell id="tTv6X4A1zD-OilkjqSDy-18" style="shape=partialRectangle;connectable=0;fillColor=none;top=0;left=0;bottom=0;right=0;editable=1;overflow=hidden;whiteSpace=wrap;html=1;rounded=1;shadow=1;strokeColor=#b85450;strokeWidth=1;align=center;verticalAlign=middle;fontFamily=Helvetica;fontSize=16;fontColor=default;startSize=30;" parent="tTv6X4A1zD-OilkjqSDy-17" vertex="1">
          <mxGeometry width="30" height="30" as="geometry">
            <mxRectangle width="30" height="30" as="alternateBounds" />
          </mxGeometry>
        </mxCell>
        <mxCell id="tTv6X4A1zD-OilkjqSDy-19" value="Email" style="shape=partialRectangle;connectable=0;fillColor=none;top=0;left=0;bottom=0;right=0;align=left;spacingLeft=6;overflow=hidden;whiteSpace=wrap;html=1;rounded=1;shadow=1;strokeColor=#b85450;strokeWidth=1;verticalAlign=middle;fontFamily=Helvetica;fontSize=16;fontColor=default;startSize=30;" parent="tTv6X4A1zD-OilkjqSDy-17" vertex="1">
          <mxGeometry x="30" width="170" height="30" as="geometry">
            <mxRectangle width="170" height="30" as="alternateBounds" />
          </mxGeometry>
        </mxCell>
        <mxCell id="tTv6X4A1zD-OilkjqSDy-20" value="" style="shape=tableRow;horizontal=0;startSize=0;swimlaneHead=0;swimlaneBody=0;fillColor=none;collapsible=0;dropTarget=0;points=[[0,0.5],[1,0.5]];portConstraint=eastwest;top=0;left=0;right=0;bottom=0;rounded=1;shadow=1;strokeColor=#b85450;strokeWidth=1;align=center;verticalAlign=middle;fontFamily=Helvetica;fontSize=16;fontColor=default;html=1;" parent="tTv6X4A1zD-OilkjqSDy-1" vertex="1">
          <mxGeometry y="210" width="200" height="30" as="geometry" />
        </mxCell>
        <mxCell id="tTv6X4A1zD-OilkjqSDy-21" value="" style="shape=partialRectangle;connectable=0;fillColor=none;top=0;left=0;bottom=0;right=0;editable=1;overflow=hidden;rounded=1;shadow=1;strokeColor=#b85450;strokeWidth=1;align=center;verticalAlign=middle;fontFamily=Helvetica;fontSize=16;fontColor=default;startSize=30;html=1;" parent="tTv6X4A1zD-OilkjqSDy-20" vertex="1">
          <mxGeometry width="30" height="30" as="geometry">
            <mxRectangle width="30" height="30" as="alternateBounds" />
          </mxGeometry>
        </mxCell>
        <mxCell id="tTv6X4A1zD-OilkjqSDy-22" value="SDT" style="shape=partialRectangle;connectable=0;fillColor=none;top=0;left=0;bottom=0;right=0;align=left;spacingLeft=6;overflow=hidden;rounded=1;shadow=1;strokeColor=#b85450;strokeWidth=1;verticalAlign=middle;fontFamily=Helvetica;fontSize=16;fontColor=default;startSize=30;html=1;" parent="tTv6X4A1zD-OilkjqSDy-20" vertex="1">
          <mxGeometry x="30" width="170" height="30" as="geometry">
            <mxRectangle width="170" height="30" as="alternateBounds" />
          </mxGeometry>
        </mxCell>
        <mxCell id="tTv6X4A1zD-OilkjqSDy-23" value="" style="shape=tableRow;horizontal=0;startSize=0;swimlaneHead=0;swimlaneBody=0;fillColor=none;collapsible=0;dropTarget=0;points=[[0,0.5],[1,0.5]];portConstraint=eastwest;top=0;left=0;right=0;bottom=0;fontSize=16;" parent="tTv6X4A1zD-OilkjqSDy-1" vertex="1">
          <mxGeometry y="240" width="200" height="30" as="geometry" />
        </mxCell>
        <mxCell id="tTv6X4A1zD-OilkjqSDy-24" value="" style="shape=partialRectangle;connectable=0;fillColor=none;top=0;left=0;bottom=0;right=0;editable=1;overflow=hidden;fontSize=16;" parent="tTv6X4A1zD-OilkjqSDy-23" vertex="1">
          <mxGeometry width="30" height="30" as="geometry">
            <mxRectangle width="30" height="30" as="alternateBounds" />
          </mxGeometry>
        </mxCell>
        <mxCell id="tTv6X4A1zD-OilkjqSDy-25" value="MaGV" style="shape=partialRectangle;connectable=0;fillColor=none;top=0;left=0;bottom=0;right=0;align=left;spacingLeft=6;overflow=hidden;fontSize=16;" parent="tTv6X4A1zD-OilkjqSDy-23" vertex="1">
          <mxGeometry x="30" width="170" height="30" as="geometry">
            <mxRectangle width="170" height="30" as="alternateBounds" />
          </mxGeometry>
        </mxCell>
        <mxCell id="tTv6X4A1zD-OilkjqSDy-26" value="" style="shape=tableRow;horizontal=0;startSize=0;swimlaneHead=0;swimlaneBody=0;fillColor=none;collapsible=0;dropTarget=0;points=[[0,0.5],[1,0.5]];portConstraint=eastwest;top=0;left=0;right=0;bottom=0;fontSize=16;" parent="tTv6X4A1zD-OilkjqSDy-1" vertex="1">
          <mxGeometry y="270" width="200" height="30" as="geometry" />
        </mxCell>
        <mxCell id="tTv6X4A1zD-OilkjqSDy-27" value="" style="shape=partialRectangle;connectable=0;fillColor=none;top=0;left=0;bottom=0;right=0;editable=1;overflow=hidden;fontSize=16;" parent="tTv6X4A1zD-OilkjqSDy-26" vertex="1">
          <mxGeometry width="30" height="30" as="geometry">
            <mxRectangle width="30" height="30" as="alternateBounds" />
          </mxGeometry>
        </mxCell>
        <mxCell id="tTv6X4A1zD-OilkjqSDy-28" value="ChucDanh" style="shape=partialRectangle;connectable=0;fillColor=none;top=0;left=0;bottom=0;right=0;align=left;spacingLeft=6;overflow=hidden;fontSize=16;" parent="tTv6X4A1zD-OilkjqSDy-26" vertex="1">
          <mxGeometry x="30" width="170" height="30" as="geometry">
            <mxRectangle width="170" height="30" as="alternateBounds" />
          </mxGeometry>
        </mxCell>
        <mxCell id="asG9g9AnG80qoPKnlBR9-1" value="" style="edgeStyle=entityRelationEdgeStyle;fontSize=12;html=1;endArrow=ERzeroToMany;startArrow=ERmandOne;rounded=0;startSize=8;endSize=8;curved=1;shadow=1;" parent="1" source="RukVrsXD96MS80fE2SNg-2" target="asG9g9AnG80qoPKnlBR9-75" edge="1">
          <mxGeometry width="100" height="100" relative="1" as="geometry">
            <mxPoint x="1330" y="1079" as="sourcePoint" />
            <mxPoint x="1240" y="1122" as="targetPoint" />
          </mxGeometry>
        </mxCell>
        <mxCell id="asG9g9AnG80qoPKnlBR9-2" value="" style="edgeStyle=entityRelationEdgeStyle;fontSize=12;html=1;endArrow=ERzeroToMany;startArrow=ERmandOne;rounded=0;startSize=8;endSize=8;curved=1;shadow=1;" parent="1" source="asG9g9AnG80qoPKnlBR9-30" target="asG9g9AnG80qoPKnlBR9-78" edge="1">
          <mxGeometry width="100" height="100" relative="1" as="geometry">
            <mxPoint x="990" y="1380" as="sourcePoint" />
            <mxPoint x="1070" y="1406" as="targetPoint" />
          </mxGeometry>
        </mxCell>
        <mxCell id="asG9g9AnG80qoPKnlBR9-29" value="&lt;i&gt;QuanLy&lt;/i&gt;" style="shape=table;startSize=30;container=1;collapsible=1;childLayout=tableLayout;fixedRows=1;rowLines=0;fontStyle=1;align=center;resizeLast=1;html=1;rounded=1;shadow=1;strokeColor=#d79b00;strokeWidth=1;verticalAlign=middle;fontFamily=Helvetica;fontSize=16;fillColor=#ffe6cc;" parent="1" vertex="1">
          <mxGeometry x="860" y="130" width="200" height="240" as="geometry" />
        </mxCell>
        <mxCell id="asG9g9AnG80qoPKnlBR9-30" value="" style="shape=tableRow;horizontal=0;startSize=0;swimlaneHead=0;swimlaneBody=0;fillColor=none;collapsible=0;dropTarget=0;points=[[0,0.5],[1,0.5]];portConstraint=eastwest;top=0;left=0;right=0;bottom=1;rounded=1;shadow=1;strokeColor=#b85450;strokeWidth=1;align=center;verticalAlign=middle;fontFamily=Helvetica;fontSize=16;fontColor=default;html=1;" parent="asG9g9AnG80qoPKnlBR9-29" vertex="1">
          <mxGeometry y="30" width="200" height="30" as="geometry" />
        </mxCell>
        <mxCell id="asG9g9AnG80qoPKnlBR9-31" value="PK" style="shape=partialRectangle;connectable=0;fillColor=none;top=0;left=0;bottom=0;right=0;fontStyle=1;overflow=hidden;whiteSpace=wrap;html=1;rounded=1;shadow=1;strokeColor=#b85450;strokeWidth=1;align=center;verticalAlign=middle;fontFamily=Helvetica;fontSize=16;fontColor=default;startSize=30;" parent="asG9g9AnG80qoPKnlBR9-30" vertex="1">
          <mxGeometry width="30" height="30" as="geometry">
            <mxRectangle width="30" height="30" as="alternateBounds" />
          </mxGeometry>
        </mxCell>
        <mxCell id="asG9g9AnG80qoPKnlBR9-32" value="IdQL" style="shape=partialRectangle;connectable=0;fillColor=none;top=0;left=0;bottom=0;right=0;align=left;spacingLeft=6;fontStyle=5;overflow=hidden;whiteSpace=wrap;html=1;rounded=1;shadow=1;strokeColor=#b85450;strokeWidth=1;verticalAlign=middle;fontFamily=Helvetica;fontSize=16;fontColor=default;startSize=30;" parent="asG9g9AnG80qoPKnlBR9-30" vertex="1">
          <mxGeometry x="30" width="170" height="30" as="geometry">
            <mxRectangle width="170" height="30" as="alternateBounds" />
          </mxGeometry>
        </mxCell>
        <mxCell id="asG9g9AnG80qoPKnlBR9-33" value="" style="shape=tableRow;horizontal=0;startSize=0;swimlaneHead=0;swimlaneBody=0;fillColor=none;collapsible=0;dropTarget=0;points=[[0,0.5],[1,0.5]];portConstraint=eastwest;top=0;left=0;right=0;bottom=0;rounded=1;shadow=1;strokeColor=#b85450;strokeWidth=1;align=center;verticalAlign=middle;fontFamily=Helvetica;fontSize=16;fontColor=default;html=1;" parent="asG9g9AnG80qoPKnlBR9-29" vertex="1">
          <mxGeometry y="60" width="200" height="30" as="geometry" />
        </mxCell>
        <mxCell id="asG9g9AnG80qoPKnlBR9-34" value="FK" style="shape=partialRectangle;connectable=0;fillColor=none;top=0;left=0;bottom=0;right=0;fontStyle=0;overflow=hidden;whiteSpace=wrap;html=1;rounded=1;shadow=1;strokeColor=#b85450;strokeWidth=1;align=center;verticalAlign=middle;fontFamily=Helvetica;fontSize=16;fontColor=default;startSize=30;" parent="asG9g9AnG80qoPKnlBR9-33" vertex="1">
          <mxGeometry width="30" height="30" as="geometry">
            <mxRectangle width="30" height="30" as="alternateBounds" />
          </mxGeometry>
        </mxCell>
        <mxCell id="asG9g9AnG80qoPKnlBR9-35" value="IdTaiKhoan" style="shape=partialRectangle;connectable=0;fillColor=none;top=0;left=0;bottom=0;right=0;align=left;spacingLeft=6;fontStyle=0;overflow=hidden;whiteSpace=wrap;html=1;rounded=1;shadow=1;strokeColor=#b85450;strokeWidth=1;verticalAlign=middle;fontFamily=Helvetica;fontSize=16;fontColor=default;startSize=30;" parent="asG9g9AnG80qoPKnlBR9-33" vertex="1">
          <mxGeometry x="30" width="170" height="30" as="geometry">
            <mxRectangle width="170" height="30" as="alternateBounds" />
          </mxGeometry>
        </mxCell>
        <mxCell id="asG9g9AnG80qoPKnlBR9-36" value="" style="shape=tableRow;horizontal=0;startSize=0;swimlaneHead=0;swimlaneBody=0;fillColor=none;collapsible=0;dropTarget=0;points=[[0,0.5],[1,0.5]];portConstraint=eastwest;top=0;left=0;right=0;bottom=0;rounded=1;shadow=1;strokeColor=#b85450;strokeWidth=1;align=center;verticalAlign=middle;fontFamily=Helvetica;fontSize=16;fontColor=default;html=1;" parent="asG9g9AnG80qoPKnlBR9-29" vertex="1">
          <mxGeometry y="90" width="200" height="30" as="geometry" />
        </mxCell>
        <mxCell id="asG9g9AnG80qoPKnlBR9-37" value="" style="shape=partialRectangle;connectable=0;fillColor=none;top=0;left=0;bottom=0;right=0;editable=1;overflow=hidden;whiteSpace=wrap;html=1;rounded=1;shadow=1;strokeColor=#b85450;strokeWidth=1;align=center;verticalAlign=middle;fontFamily=Helvetica;fontSize=16;fontColor=default;startSize=30;" parent="asG9g9AnG80qoPKnlBR9-36" vertex="1">
          <mxGeometry width="30" height="30" as="geometry">
            <mxRectangle width="30" height="30" as="alternateBounds" />
          </mxGeometry>
        </mxCell>
        <mxCell id="asG9g9AnG80qoPKnlBR9-38" value="HoTen" style="shape=partialRectangle;connectable=0;fillColor=none;top=0;left=0;bottom=0;right=0;align=left;spacingLeft=6;overflow=hidden;whiteSpace=wrap;html=1;rounded=1;shadow=1;strokeColor=#b85450;strokeWidth=1;verticalAlign=middle;fontFamily=Helvetica;fontSize=16;fontColor=default;startSize=30;" parent="asG9g9AnG80qoPKnlBR9-36" vertex="1">
          <mxGeometry x="30" width="170" height="30" as="geometry">
            <mxRectangle width="170" height="30" as="alternateBounds" />
          </mxGeometry>
        </mxCell>
        <mxCell id="asG9g9AnG80qoPKnlBR9-39" style="shape=tableRow;horizontal=0;startSize=0;swimlaneHead=0;swimlaneBody=0;fillColor=none;collapsible=0;dropTarget=0;points=[[0,0.5],[1,0.5]];portConstraint=eastwest;top=0;left=0;right=0;bottom=0;rounded=1;shadow=1;strokeColor=#b85450;strokeWidth=1;align=center;verticalAlign=middle;fontFamily=Helvetica;fontSize=16;fontColor=default;html=1;" parent="asG9g9AnG80qoPKnlBR9-29" vertex="1">
          <mxGeometry y="120" width="200" height="30" as="geometry" />
        </mxCell>
        <mxCell id="asG9g9AnG80qoPKnlBR9-40" style="shape=partialRectangle;connectable=0;fillColor=none;top=0;left=0;bottom=0;right=0;editable=1;overflow=hidden;whiteSpace=wrap;html=1;rounded=1;shadow=1;strokeColor=#b85450;strokeWidth=1;align=center;verticalAlign=middle;fontFamily=Helvetica;fontSize=16;fontColor=default;startSize=30;" parent="asG9g9AnG80qoPKnlBR9-39" vertex="1">
          <mxGeometry width="30" height="30" as="geometry">
            <mxRectangle width="30" height="30" as="alternateBounds" />
          </mxGeometry>
        </mxCell>
        <mxCell id="asG9g9AnG80qoPKnlBR9-41" value="NgaySinh" style="shape=partialRectangle;connectable=0;fillColor=none;top=0;left=0;bottom=0;right=0;align=left;spacingLeft=6;overflow=hidden;whiteSpace=wrap;html=1;rounded=1;shadow=1;strokeColor=#b85450;strokeWidth=1;verticalAlign=middle;fontFamily=Helvetica;fontSize=16;fontColor=default;startSize=30;" parent="asG9g9AnG80qoPKnlBR9-39" vertex="1">
          <mxGeometry x="30" width="170" height="30" as="geometry">
            <mxRectangle width="170" height="30" as="alternateBounds" />
          </mxGeometry>
        </mxCell>
        <mxCell id="asG9g9AnG80qoPKnlBR9-42" style="shape=tableRow;horizontal=0;startSize=0;swimlaneHead=0;swimlaneBody=0;fillColor=none;collapsible=0;dropTarget=0;points=[[0,0.5],[1,0.5]];portConstraint=eastwest;top=0;left=0;right=0;bottom=0;rounded=1;shadow=1;strokeColor=#b85450;strokeWidth=1;align=center;verticalAlign=middle;fontFamily=Helvetica;fontSize=16;fontColor=default;html=1;" parent="asG9g9AnG80qoPKnlBR9-29" vertex="1">
          <mxGeometry y="150" width="200" height="30" as="geometry" />
        </mxCell>
        <mxCell id="asG9g9AnG80qoPKnlBR9-43" style="shape=partialRectangle;connectable=0;fillColor=none;top=0;left=0;bottom=0;right=0;editable=1;overflow=hidden;whiteSpace=wrap;html=1;rounded=1;shadow=1;strokeColor=#b85450;strokeWidth=1;align=center;verticalAlign=middle;fontFamily=Helvetica;fontSize=16;fontColor=default;startSize=30;" parent="asG9g9AnG80qoPKnlBR9-42" vertex="1">
          <mxGeometry width="30" height="30" as="geometry">
            <mxRectangle width="30" height="30" as="alternateBounds" />
          </mxGeometry>
        </mxCell>
        <mxCell id="asG9g9AnG80qoPKnlBR9-44" value="GioiTinh" style="shape=partialRectangle;connectable=0;fillColor=none;top=0;left=0;bottom=0;right=0;align=left;spacingLeft=6;overflow=hidden;whiteSpace=wrap;html=1;rounded=1;shadow=1;strokeColor=#b85450;strokeWidth=1;verticalAlign=middle;fontFamily=Helvetica;fontSize=16;fontColor=default;startSize=30;" parent="asG9g9AnG80qoPKnlBR9-42" vertex="1">
          <mxGeometry x="30" width="170" height="30" as="geometry">
            <mxRectangle width="170" height="30" as="alternateBounds" />
          </mxGeometry>
        </mxCell>
        <mxCell id="asG9g9AnG80qoPKnlBR9-45" style="shape=tableRow;horizontal=0;startSize=0;swimlaneHead=0;swimlaneBody=0;fillColor=none;collapsible=0;dropTarget=0;points=[[0,0.5],[1,0.5]];portConstraint=eastwest;top=0;left=0;right=0;bottom=0;rounded=1;shadow=1;strokeColor=#b85450;strokeWidth=1;align=center;verticalAlign=middle;fontFamily=Helvetica;fontSize=16;fontColor=default;html=1;" parent="asG9g9AnG80qoPKnlBR9-29" vertex="1">
          <mxGeometry y="180" width="200" height="30" as="geometry" />
        </mxCell>
        <mxCell id="asG9g9AnG80qoPKnlBR9-46" style="shape=partialRectangle;connectable=0;fillColor=none;top=0;left=0;bottom=0;right=0;editable=1;overflow=hidden;whiteSpace=wrap;html=1;rounded=1;shadow=1;strokeColor=#b85450;strokeWidth=1;align=center;verticalAlign=middle;fontFamily=Helvetica;fontSize=16;fontColor=default;startSize=30;" parent="asG9g9AnG80qoPKnlBR9-45" vertex="1">
          <mxGeometry width="30" height="30" as="geometry">
            <mxRectangle width="30" height="30" as="alternateBounds" />
          </mxGeometry>
        </mxCell>
        <mxCell id="asG9g9AnG80qoPKnlBR9-47" value="Email" style="shape=partialRectangle;connectable=0;fillColor=none;top=0;left=0;bottom=0;right=0;align=left;spacingLeft=6;overflow=hidden;whiteSpace=wrap;html=1;rounded=1;shadow=1;strokeColor=#b85450;strokeWidth=1;verticalAlign=middle;fontFamily=Helvetica;fontSize=16;fontColor=default;startSize=30;" parent="asG9g9AnG80qoPKnlBR9-45" vertex="1">
          <mxGeometry x="30" width="170" height="30" as="geometry">
            <mxRectangle width="170" height="30" as="alternateBounds" />
          </mxGeometry>
        </mxCell>
        <mxCell id="asG9g9AnG80qoPKnlBR9-48" value="" style="shape=tableRow;horizontal=0;startSize=0;swimlaneHead=0;swimlaneBody=0;fillColor=none;collapsible=0;dropTarget=0;points=[[0,0.5],[1,0.5]];portConstraint=eastwest;top=0;left=0;right=0;bottom=0;rounded=1;shadow=1;strokeColor=#b85450;strokeWidth=1;align=center;verticalAlign=middle;fontFamily=Helvetica;fontSize=16;fontColor=default;html=1;" parent="asG9g9AnG80qoPKnlBR9-29" vertex="1">
          <mxGeometry y="210" width="200" height="30" as="geometry" />
        </mxCell>
        <mxCell id="asG9g9AnG80qoPKnlBR9-49" value="" style="shape=partialRectangle;connectable=0;fillColor=none;top=0;left=0;bottom=0;right=0;editable=1;overflow=hidden;rounded=1;shadow=1;strokeColor=#b85450;strokeWidth=1;align=center;verticalAlign=middle;fontFamily=Helvetica;fontSize=16;fontColor=default;startSize=30;html=1;" parent="asG9g9AnG80qoPKnlBR9-48" vertex="1">
          <mxGeometry width="30" height="30" as="geometry">
            <mxRectangle width="30" height="30" as="alternateBounds" />
          </mxGeometry>
        </mxCell>
        <mxCell id="asG9g9AnG80qoPKnlBR9-50" value="SDT" style="shape=partialRectangle;connectable=0;fillColor=none;top=0;left=0;bottom=0;right=0;align=left;spacingLeft=6;overflow=hidden;rounded=1;shadow=1;strokeColor=#b85450;strokeWidth=1;verticalAlign=middle;fontFamily=Helvetica;fontSize=16;fontColor=default;startSize=30;html=1;" parent="asG9g9AnG80qoPKnlBR9-48" vertex="1">
          <mxGeometry x="30" width="170" height="30" as="geometry">
            <mxRectangle width="170" height="30" as="alternateBounds" />
          </mxGeometry>
        </mxCell>
        <mxCell id="asG9g9AnG80qoPKnlBR9-51" value="PhongHoc" style="shape=table;startSize=30;container=1;collapsible=1;childLayout=tableLayout;fixedRows=1;rowLines=0;fontStyle=1;align=center;resizeLast=1;html=1;rounded=1;shadow=1;strokeColor=#6c8ebf;strokeWidth=1;verticalAlign=middle;fontFamily=Helvetica;fontSize=16;fillColor=#dae8fc;" parent="1" vertex="1">
          <mxGeometry x="1470" y="270" width="200" height="150" as="geometry" />
        </mxCell>
        <mxCell id="asG9g9AnG80qoPKnlBR9-52" value="" style="shape=tableRow;horizontal=0;startSize=0;swimlaneHead=0;swimlaneBody=0;fillColor=none;collapsible=0;dropTarget=0;points=[[0,0.5],[1,0.5]];portConstraint=eastwest;top=0;left=0;right=0;bottom=1;rounded=1;shadow=1;strokeColor=#b85450;strokeWidth=1;align=center;verticalAlign=middle;fontFamily=Helvetica;fontSize=16;fontColor=default;html=1;" parent="asG9g9AnG80qoPKnlBR9-51" vertex="1">
          <mxGeometry y="30" width="200" height="30" as="geometry" />
        </mxCell>
        <mxCell id="asG9g9AnG80qoPKnlBR9-53" value="PK" style="shape=partialRectangle;connectable=0;fillColor=none;top=0;left=0;bottom=0;right=0;fontStyle=1;overflow=hidden;whiteSpace=wrap;html=1;rounded=1;shadow=1;strokeColor=#b85450;strokeWidth=1;align=center;verticalAlign=middle;fontFamily=Helvetica;fontSize=16;fontColor=default;startSize=30;" parent="asG9g9AnG80qoPKnlBR9-52" vertex="1">
          <mxGeometry width="30" height="30" as="geometry">
            <mxRectangle width="30" height="30" as="alternateBounds" />
          </mxGeometry>
        </mxCell>
        <mxCell id="asG9g9AnG80qoPKnlBR9-54" value="MaPH" style="shape=partialRectangle;connectable=0;fillColor=none;top=0;left=0;bottom=0;right=0;align=left;spacingLeft=6;fontStyle=5;overflow=hidden;whiteSpace=wrap;html=1;rounded=1;shadow=1;strokeColor=#b85450;strokeWidth=1;verticalAlign=middle;fontFamily=Helvetica;fontSize=16;fontColor=default;startSize=30;" parent="asG9g9AnG80qoPKnlBR9-52" vertex="1">
          <mxGeometry x="30" width="170" height="30" as="geometry">
            <mxRectangle width="170" height="30" as="alternateBounds" />
          </mxGeometry>
        </mxCell>
        <mxCell id="asG9g9AnG80qoPKnlBR9-55" value="" style="shape=tableRow;horizontal=0;startSize=0;swimlaneHead=0;swimlaneBody=0;fillColor=none;collapsible=0;dropTarget=0;points=[[0,0.5],[1,0.5]];portConstraint=eastwest;top=0;left=0;right=0;bottom=0;rounded=1;shadow=1;strokeColor=#b85450;strokeWidth=1;align=center;verticalAlign=middle;fontFamily=Helvetica;fontSize=16;fontColor=default;html=1;" parent="asG9g9AnG80qoPKnlBR9-51" vertex="1">
          <mxGeometry y="60" width="200" height="30" as="geometry" />
        </mxCell>
        <mxCell id="asG9g9AnG80qoPKnlBR9-56" value="" style="shape=partialRectangle;connectable=0;fillColor=none;top=0;left=0;bottom=0;right=0;editable=1;overflow=hidden;whiteSpace=wrap;html=1;rounded=1;shadow=1;strokeColor=#b85450;strokeWidth=1;align=center;verticalAlign=middle;fontFamily=Helvetica;fontSize=16;fontColor=default;startSize=30;" parent="asG9g9AnG80qoPKnlBR9-55" vertex="1">
          <mxGeometry width="30" height="30" as="geometry">
            <mxRectangle width="30" height="30" as="alternateBounds" />
          </mxGeometry>
        </mxCell>
        <mxCell id="asG9g9AnG80qoPKnlBR9-57" value="TinhTrang" style="shape=partialRectangle;connectable=0;fillColor=none;top=0;left=0;bottom=0;right=0;align=left;spacingLeft=6;overflow=hidden;whiteSpace=wrap;html=1;rounded=1;shadow=1;strokeColor=#b85450;strokeWidth=1;verticalAlign=middle;fontFamily=Helvetica;fontSize=16;fontColor=default;startSize=30;" parent="asG9g9AnG80qoPKnlBR9-55" vertex="1">
          <mxGeometry x="30" width="170" height="30" as="geometry">
            <mxRectangle width="170" height="30" as="alternateBounds" />
          </mxGeometry>
        </mxCell>
        <mxCell id="asG9g9AnG80qoPKnlBR9-58" value="" style="shape=tableRow;horizontal=0;startSize=0;swimlaneHead=0;swimlaneBody=0;fillColor=none;collapsible=0;dropTarget=0;points=[[0,0.5],[1,0.5]];portConstraint=eastwest;top=0;left=0;right=0;bottom=0;rounded=1;shadow=1;strokeColor=#b85450;strokeWidth=1;align=center;verticalAlign=middle;fontFamily=Helvetica;fontSize=16;fontColor=default;html=1;" parent="asG9g9AnG80qoPKnlBR9-51" vertex="1">
          <mxGeometry y="90" width="200" height="30" as="geometry" />
        </mxCell>
        <mxCell id="asG9g9AnG80qoPKnlBR9-59" value="" style="shape=partialRectangle;connectable=0;fillColor=none;top=0;left=0;bottom=0;right=0;editable=1;overflow=hidden;whiteSpace=wrap;html=1;rounded=1;shadow=1;strokeColor=#b85450;strokeWidth=1;align=center;verticalAlign=middle;fontFamily=Helvetica;fontSize=16;fontColor=default;startSize=30;" parent="asG9g9AnG80qoPKnlBR9-58" vertex="1">
          <mxGeometry width="30" height="30" as="geometry">
            <mxRectangle width="30" height="30" as="alternateBounds" />
          </mxGeometry>
        </mxCell>
        <mxCell id="asG9g9AnG80qoPKnlBR9-60" value="_UpdateAt" style="shape=partialRectangle;connectable=0;fillColor=none;top=0;left=0;bottom=0;right=0;align=left;spacingLeft=6;overflow=hidden;whiteSpace=wrap;html=1;rounded=1;shadow=1;strokeColor=#b85450;strokeWidth=1;verticalAlign=middle;fontFamily=Helvetica;fontSize=16;fontColor=default;startSize=30;" parent="asG9g9AnG80qoPKnlBR9-58" vertex="1">
          <mxGeometry x="30" width="170" height="30" as="geometry">
            <mxRectangle width="170" height="30" as="alternateBounds" />
          </mxGeometry>
        </mxCell>
        <mxCell id="asG9g9AnG80qoPKnlBR9-61" value="" style="shape=tableRow;horizontal=0;startSize=0;swimlaneHead=0;swimlaneBody=0;fillColor=none;collapsible=0;dropTarget=0;points=[[0,0.5],[1,0.5]];portConstraint=eastwest;top=0;left=0;right=0;bottom=0;rounded=1;shadow=1;strokeColor=#b85450;strokeWidth=1;align=center;verticalAlign=middle;fontFamily=Helvetica;fontSize=16;fontColor=default;html=1;" parent="asG9g9AnG80qoPKnlBR9-51" vertex="1">
          <mxGeometry y="120" width="200" height="30" as="geometry" />
        </mxCell>
        <mxCell id="asG9g9AnG80qoPKnlBR9-62" value="" style="shape=partialRectangle;connectable=0;fillColor=none;top=0;left=0;bottom=0;right=0;editable=1;overflow=hidden;whiteSpace=wrap;html=1;rounded=1;shadow=1;strokeColor=#b85450;strokeWidth=1;align=center;verticalAlign=middle;fontFamily=Helvetica;fontSize=16;fontColor=default;startSize=30;" parent="asG9g9AnG80qoPKnlBR9-61" vertex="1">
          <mxGeometry width="30" height="30" as="geometry">
            <mxRectangle width="30" height="30" as="alternateBounds" />
          </mxGeometry>
        </mxCell>
        <mxCell id="asG9g9AnG80qoPKnlBR9-63" value="_DeleteAt" style="shape=partialRectangle;connectable=0;fillColor=none;top=0;left=0;bottom=0;right=0;align=left;spacingLeft=6;overflow=hidden;whiteSpace=wrap;html=1;rounded=1;shadow=1;strokeColor=#b85450;strokeWidth=1;verticalAlign=middle;fontFamily=Helvetica;fontSize=16;fontColor=default;startSize=30;" parent="asG9g9AnG80qoPKnlBR9-61" vertex="1">
          <mxGeometry x="30" width="170" height="30" as="geometry">
            <mxRectangle width="170" height="30" as="alternateBounds" />
          </mxGeometry>
        </mxCell>
        <mxCell id="asG9g9AnG80qoPKnlBR9-64" value="" style="edgeStyle=entityRelationEdgeStyle;fontSize=12;html=1;endArrow=ERzeroToMany;startArrow=ERmandOne;rounded=0;startSize=8;endSize=8;curved=1;shadow=1;" parent="1" source="asG9g9AnG80qoPKnlBR9-52" target="asG9g9AnG80qoPKnlBR9-72" edge="1">
          <mxGeometry width="100" height="100" relative="1" as="geometry">
            <mxPoint x="1175" y="905" as="sourcePoint" />
            <mxPoint x="1110" y="1025" as="targetPoint" />
          </mxGeometry>
        </mxCell>
        <mxCell id="asG9g9AnG80qoPKnlBR9-65" value="LichMuonPhong" style="shape=table;startSize=30;container=1;collapsible=1;childLayout=tableLayout;fixedRows=1;rowLines=0;fontStyle=1;align=center;resizeLast=1;html=1;rounded=1;shadow=1;strokeColor=#9673a6;strokeWidth=1;verticalAlign=middle;fontFamily=Helvetica;fontSize=16;fillColor=#e1d5e7;" parent="1" vertex="1">
          <mxGeometry x="1160" y="310" width="200" height="420" as="geometry" />
        </mxCell>
        <mxCell id="asG9g9AnG80qoPKnlBR9-66" value="" style="shape=tableRow;horizontal=0;startSize=0;swimlaneHead=0;swimlaneBody=0;fillColor=none;collapsible=0;dropTarget=0;points=[[0,0.5],[1,0.5]];portConstraint=eastwest;top=0;left=0;right=0;bottom=1;rounded=1;shadow=1;strokeColor=#b85450;strokeWidth=1;align=center;verticalAlign=middle;fontFamily=Helvetica;fontSize=16;fontColor=default;html=1;" parent="asG9g9AnG80qoPKnlBR9-65" vertex="1">
          <mxGeometry y="30" width="200" height="30" as="geometry" />
        </mxCell>
        <mxCell id="asG9g9AnG80qoPKnlBR9-67" value="PK" style="shape=partialRectangle;connectable=0;fillColor=none;top=0;left=0;bottom=0;right=0;fontStyle=1;overflow=hidden;whiteSpace=wrap;html=1;rounded=1;shadow=1;strokeColor=#b85450;strokeWidth=1;align=center;verticalAlign=middle;fontFamily=Helvetica;fontSize=16;fontColor=default;startSize=30;" parent="asG9g9AnG80qoPKnlBR9-66" vertex="1">
          <mxGeometry width="30" height="30" as="geometry">
            <mxRectangle width="30" height="30" as="alternateBounds" />
          </mxGeometry>
        </mxCell>
        <mxCell id="asG9g9AnG80qoPKnlBR9-68" value="MaLMPH" style="shape=partialRectangle;connectable=0;fillColor=none;top=0;left=0;bottom=0;right=0;align=left;spacingLeft=6;fontStyle=5;overflow=hidden;whiteSpace=wrap;html=1;rounded=1;shadow=1;strokeColor=#b85450;strokeWidth=1;verticalAlign=middle;fontFamily=Helvetica;fontSize=16;fontColor=default;startSize=30;" parent="asG9g9AnG80qoPKnlBR9-66" vertex="1">
          <mxGeometry x="30" width="170" height="30" as="geometry">
            <mxRectangle width="170" height="30" as="alternateBounds" />
          </mxGeometry>
        </mxCell>
        <mxCell id="asG9g9AnG80qoPKnlBR9-69" value="" style="shape=tableRow;horizontal=0;startSize=0;swimlaneHead=0;swimlaneBody=0;fillColor=none;collapsible=0;dropTarget=0;points=[[0,0.5],[1,0.5]];portConstraint=eastwest;top=0;left=0;right=0;bottom=0;rounded=1;shadow=1;strokeColor=#b85450;strokeWidth=1;align=center;verticalAlign=middle;fontFamily=Helvetica;fontSize=16;fontColor=default;html=1;" parent="asG9g9AnG80qoPKnlBR9-65" vertex="1">
          <mxGeometry y="60" width="200" height="30" as="geometry" />
        </mxCell>
        <mxCell id="asG9g9AnG80qoPKnlBR9-70" value="FK" style="shape=partialRectangle;connectable=0;fillColor=none;top=0;left=0;bottom=0;right=0;fontStyle=0;overflow=hidden;whiteSpace=wrap;html=1;rounded=1;shadow=1;strokeColor=#b85450;strokeWidth=1;align=center;verticalAlign=middle;fontFamily=Helvetica;fontSize=16;fontColor=default;startSize=30;" parent="asG9g9AnG80qoPKnlBR9-69" vertex="1">
          <mxGeometry width="30" height="30" as="geometry">
            <mxRectangle width="30" height="30" as="alternateBounds" />
          </mxGeometry>
        </mxCell>
        <mxCell id="asG9g9AnG80qoPKnlBR9-71" value="MaLH" style="shape=partialRectangle;connectable=0;fillColor=none;top=0;left=0;bottom=0;right=0;align=left;spacingLeft=6;fontStyle=0;overflow=hidden;whiteSpace=wrap;html=1;rounded=1;shadow=1;strokeColor=#b85450;strokeWidth=1;verticalAlign=middle;fontFamily=Helvetica;fontSize=16;fontColor=default;startSize=30;" parent="asG9g9AnG80qoPKnlBR9-69" vertex="1">
          <mxGeometry x="30" width="170" height="30" as="geometry">
            <mxRectangle width="170" height="30" as="alternateBounds" />
          </mxGeometry>
        </mxCell>
        <mxCell id="asG9g9AnG80qoPKnlBR9-72" value="" style="shape=tableRow;horizontal=0;startSize=0;swimlaneHead=0;swimlaneBody=0;fillColor=none;collapsible=0;dropTarget=0;points=[[0,0.5],[1,0.5]];portConstraint=eastwest;top=0;left=0;right=0;bottom=0;fontSize=16;" parent="asG9g9AnG80qoPKnlBR9-65" vertex="1">
          <mxGeometry y="90" width="200" height="30" as="geometry" />
        </mxCell>
        <mxCell id="asG9g9AnG80qoPKnlBR9-73" value="FK" style="shape=partialRectangle;connectable=0;fillColor=none;top=0;left=0;bottom=0;right=0;fontStyle=0;overflow=hidden;whiteSpace=wrap;html=1;fontSize=16;" parent="asG9g9AnG80qoPKnlBR9-72" vertex="1">
          <mxGeometry width="30" height="30" as="geometry">
            <mxRectangle width="30" height="30" as="alternateBounds" />
          </mxGeometry>
        </mxCell>
        <mxCell id="asG9g9AnG80qoPKnlBR9-74" value="MaPH" style="shape=partialRectangle;connectable=0;fillColor=none;top=0;left=0;bottom=0;right=0;align=left;spacingLeft=6;fontStyle=0;overflow=hidden;whiteSpace=wrap;html=1;fontSize=16;" parent="asG9g9AnG80qoPKnlBR9-72" vertex="1">
          <mxGeometry x="30" width="170" height="30" as="geometry">
            <mxRectangle width="170" height="30" as="alternateBounds" />
          </mxGeometry>
        </mxCell>
        <mxCell id="asG9g9AnG80qoPKnlBR9-75" value="" style="shape=tableRow;horizontal=0;startSize=0;swimlaneHead=0;swimlaneBody=0;fillColor=none;collapsible=0;dropTarget=0;points=[[0,0.5],[1,0.5]];portConstraint=eastwest;top=0;left=0;right=0;bottom=0;fontSize=16;" parent="asG9g9AnG80qoPKnlBR9-65" vertex="1">
          <mxGeometry y="120" width="200" height="30" as="geometry" />
        </mxCell>
        <mxCell id="asG9g9AnG80qoPKnlBR9-76" value="FK" style="shape=partialRectangle;connectable=0;fillColor=none;top=0;left=0;bottom=0;right=0;fontStyle=0;overflow=hidden;whiteSpace=wrap;html=1;fontSize=16;" parent="asG9g9AnG80qoPKnlBR9-75" vertex="1">
          <mxGeometry width="30" height="30" as="geometry">
            <mxRectangle width="30" height="30" as="alternateBounds" />
          </mxGeometry>
        </mxCell>
        <mxCell id="asG9g9AnG80qoPKnlBR9-77" value="IdTaiKhoan_MPH" style="shape=partialRectangle;connectable=0;fillColor=none;top=0;left=0;bottom=0;right=0;align=left;spacingLeft=6;fontStyle=0;overflow=hidden;whiteSpace=wrap;html=1;fontSize=16;" parent="asG9g9AnG80qoPKnlBR9-75" vertex="1">
          <mxGeometry x="30" width="170" height="30" as="geometry">
            <mxRectangle width="170" height="30" as="alternateBounds" />
          </mxGeometry>
        </mxCell>
        <mxCell id="asG9g9AnG80qoPKnlBR9-78" value="" style="shape=tableRow;horizontal=0;startSize=0;swimlaneHead=0;swimlaneBody=0;fillColor=none;collapsible=0;dropTarget=0;points=[[0,0.5],[1,0.5]];portConstraint=eastwest;top=0;left=0;right=0;bottom=0;fontSize=16;" parent="asG9g9AnG80qoPKnlBR9-65" vertex="1">
          <mxGeometry y="150" width="200" height="30" as="geometry" />
        </mxCell>
        <mxCell id="asG9g9AnG80qoPKnlBR9-79" value="FK" style="shape=partialRectangle;connectable=0;fillColor=none;top=0;left=0;bottom=0;right=0;fontStyle=0;overflow=hidden;whiteSpace=wrap;html=1;fontSize=16;" parent="asG9g9AnG80qoPKnlBR9-78" vertex="1">
          <mxGeometry width="30" height="30" as="geometry">
            <mxRectangle width="30" height="30" as="alternateBounds" />
          </mxGeometry>
        </mxCell>
        <mxCell id="asG9g9AnG80qoPKnlBR9-80" value="IdQL_Duyet" style="shape=partialRectangle;connectable=0;fillColor=none;top=0;left=0;bottom=0;right=0;align=left;spacingLeft=6;fontStyle=0;overflow=hidden;whiteSpace=wrap;html=1;fontSize=16;" parent="asG9g9AnG80qoPKnlBR9-78" vertex="1">
          <mxGeometry x="30" width="170" height="30" as="geometry">
            <mxRectangle width="170" height="30" as="alternateBounds" />
          </mxGeometry>
        </mxCell>
        <mxCell id="asG9g9AnG80qoPKnlBR9-81" value="" style="shape=tableRow;horizontal=0;startSize=0;swimlaneHead=0;swimlaneBody=0;fillColor=none;collapsible=0;dropTarget=0;points=[[0,0.5],[1,0.5]];portConstraint=eastwest;top=0;left=0;right=0;bottom=0;rounded=1;shadow=1;strokeColor=#9673a6;strokeWidth=1;align=center;verticalAlign=middle;fontFamily=Helvetica;fontSize=16;fontColor=default;html=1;" parent="asG9g9AnG80qoPKnlBR9-65" vertex="1">
          <mxGeometry y="180" width="200" height="30" as="geometry" />
        </mxCell>
        <mxCell id="asG9g9AnG80qoPKnlBR9-82" value="" style="shape=partialRectangle;connectable=0;fillColor=none;top=0;left=0;bottom=0;right=0;editable=1;overflow=hidden;rounded=1;shadow=1;strokeColor=#9673a6;strokeWidth=1;align=center;verticalAlign=middle;fontFamily=Helvetica;fontSize=16;fontColor=default;startSize=30;html=1;" parent="asG9g9AnG80qoPKnlBR9-81" vertex="1">
          <mxGeometry width="30" height="30" as="geometry">
            <mxRectangle width="30" height="30" as="alternateBounds" />
          </mxGeometry>
        </mxCell>
        <mxCell id="asG9g9AnG80qoPKnlBR9-83" value="ThoiGian_BD" style="shape=partialRectangle;connectable=0;fillColor=none;top=0;left=0;bottom=0;right=0;align=left;spacingLeft=6;overflow=hidden;rounded=1;shadow=1;strokeColor=#9673a6;strokeWidth=1;verticalAlign=middle;fontFamily=Helvetica;fontSize=16;fontColor=default;startSize=30;html=1;" parent="asG9g9AnG80qoPKnlBR9-81" vertex="1">
          <mxGeometry x="30" width="170" height="30" as="geometry">
            <mxRectangle width="170" height="30" as="alternateBounds" />
          </mxGeometry>
        </mxCell>
        <mxCell id="asG9g9AnG80qoPKnlBR9-84" value="" style="shape=tableRow;horizontal=0;startSize=0;swimlaneHead=0;swimlaneBody=0;fillColor=none;collapsible=0;dropTarget=0;points=[[0,0.5],[1,0.5]];portConstraint=eastwest;top=0;left=0;right=0;bottom=0;rounded=1;shadow=1;strokeColor=#9673a6;strokeWidth=1;align=center;verticalAlign=middle;fontFamily=Helvetica;fontSize=16;fontColor=default;html=1;" parent="asG9g9AnG80qoPKnlBR9-65" vertex="1">
          <mxGeometry y="210" width="200" height="30" as="geometry" />
        </mxCell>
        <mxCell id="asG9g9AnG80qoPKnlBR9-85" value="" style="shape=partialRectangle;connectable=0;fillColor=none;top=0;left=0;bottom=0;right=0;editable=1;overflow=hidden;rounded=1;shadow=1;strokeColor=#9673a6;strokeWidth=1;align=center;verticalAlign=middle;fontFamily=Helvetica;fontSize=16;fontColor=default;startSize=30;html=1;" parent="asG9g9AnG80qoPKnlBR9-84" vertex="1">
          <mxGeometry width="30" height="30" as="geometry">
            <mxRectangle width="30" height="30" as="alternateBounds" />
          </mxGeometry>
        </mxCell>
        <mxCell id="asG9g9AnG80qoPKnlBR9-86" value="ThoiGian_KT" style="shape=partialRectangle;connectable=0;fillColor=none;top=0;left=0;bottom=0;right=0;align=left;spacingLeft=6;overflow=hidden;rounded=1;shadow=1;strokeColor=#9673a6;strokeWidth=1;verticalAlign=middle;fontFamily=Helvetica;fontSize=16;fontColor=default;startSize=30;html=1;" parent="asG9g9AnG80qoPKnlBR9-84" vertex="1">
          <mxGeometry x="30" width="170" height="30" as="geometry">
            <mxRectangle width="170" height="30" as="alternateBounds" />
          </mxGeometry>
        </mxCell>
        <mxCell id="asG9g9AnG80qoPKnlBR9-87" value="" style="shape=tableRow;horizontal=0;startSize=0;swimlaneHead=0;swimlaneBody=0;fillColor=none;collapsible=0;dropTarget=0;points=[[0,0.5],[1,0.5]];portConstraint=eastwest;top=0;left=0;right=0;bottom=0;rounded=1;shadow=1;strokeColor=#9673a6;strokeWidth=1;align=center;verticalAlign=middle;fontFamily=Helvetica;fontSize=16;fontColor=default;html=1;" parent="asG9g9AnG80qoPKnlBR9-65" vertex="1">
          <mxGeometry y="240" width="200" height="30" as="geometry" />
        </mxCell>
        <mxCell id="asG9g9AnG80qoPKnlBR9-88" value="" style="shape=partialRectangle;connectable=0;fillColor=none;top=0;left=0;bottom=0;right=0;editable=1;overflow=hidden;rounded=1;shadow=1;strokeColor=#9673a6;strokeWidth=1;align=center;verticalAlign=middle;fontFamily=Helvetica;fontSize=16;fontColor=default;startSize=30;html=1;" parent="asG9g9AnG80qoPKnlBR9-87" vertex="1">
          <mxGeometry width="30" height="30" as="geometry">
            <mxRectangle width="30" height="30" as="alternateBounds" />
          </mxGeometry>
        </mxCell>
        <mxCell id="asG9g9AnG80qoPKnlBR9-89" value="MucDich" style="shape=partialRectangle;connectable=0;fillColor=none;top=0;left=0;bottom=0;right=0;align=left;spacingLeft=6;overflow=hidden;rounded=1;shadow=1;strokeColor=#9673a6;strokeWidth=1;verticalAlign=middle;fontFamily=Helvetica;fontSize=16;fontColor=default;startSize=30;html=1;" parent="asG9g9AnG80qoPKnlBR9-87" vertex="1">
          <mxGeometry x="30" width="170" height="30" as="geometry">
            <mxRectangle width="170" height="30" as="alternateBounds" />
          </mxGeometry>
        </mxCell>
        <mxCell id="asG9g9AnG80qoPKnlBR9-90" value="" style="shape=tableRow;horizontal=0;startSize=0;swimlaneHead=0;swimlaneBody=0;fillColor=none;collapsible=0;dropTarget=0;points=[[0,0.5],[1,0.5]];portConstraint=eastwest;top=0;left=0;right=0;bottom=0;fontSize=16;" parent="asG9g9AnG80qoPKnlBR9-65" vertex="1">
          <mxGeometry y="270" width="200" height="30" as="geometry" />
        </mxCell>
        <mxCell id="asG9g9AnG80qoPKnlBR9-91" value="" style="shape=partialRectangle;connectable=0;fillColor=none;top=0;left=0;bottom=0;right=0;editable=1;overflow=hidden;fontSize=16;" parent="asG9g9AnG80qoPKnlBR9-90" vertex="1">
          <mxGeometry width="30" height="30" as="geometry">
            <mxRectangle width="30" height="30" as="alternateBounds" />
          </mxGeometry>
        </mxCell>
        <mxCell id="asG9g9AnG80qoPKnlBR9-92" value="LyDo" style="shape=partialRectangle;connectable=0;fillColor=none;top=0;left=0;bottom=0;right=0;align=left;spacingLeft=6;overflow=hidden;fontSize=16;" parent="asG9g9AnG80qoPKnlBR9-90" vertex="1">
          <mxGeometry x="30" width="170" height="30" as="geometry">
            <mxRectangle width="170" height="30" as="alternateBounds" />
          </mxGeometry>
        </mxCell>
        <mxCell id="asG9g9AnG80qoPKnlBR9-93" value="" style="shape=tableRow;horizontal=0;startSize=0;swimlaneHead=0;swimlaneBody=0;fillColor=none;collapsible=0;dropTarget=0;points=[[0,0.5],[1,0.5]];portConstraint=eastwest;top=0;left=0;right=0;bottom=0;fontSize=16;" parent="asG9g9AnG80qoPKnlBR9-65" vertex="1">
          <mxGeometry y="300" width="200" height="30" as="geometry" />
        </mxCell>
        <mxCell id="asG9g9AnG80qoPKnlBR9-94" value="" style="shape=partialRectangle;connectable=0;fillColor=none;top=0;left=0;bottom=0;right=0;editable=1;overflow=hidden;fontSize=16;" parent="asG9g9AnG80qoPKnlBR9-93" vertex="1">
          <mxGeometry width="30" height="30" as="geometry">
            <mxRectangle width="30" height="30" as="alternateBounds" />
          </mxGeometry>
        </mxCell>
        <mxCell id="asG9g9AnG80qoPKnlBR9-95" value="ThoiGian_MPH" style="shape=partialRectangle;connectable=0;fillColor=none;top=0;left=0;bottom=0;right=0;align=left;spacingLeft=6;overflow=hidden;fontSize=16;" parent="asG9g9AnG80qoPKnlBR9-93" vertex="1">
          <mxGeometry x="30" width="170" height="30" as="geometry">
            <mxRectangle width="170" height="30" as="alternateBounds" />
          </mxGeometry>
        </mxCell>
        <mxCell id="asG9g9AnG80qoPKnlBR9-96" value="" style="shape=tableRow;horizontal=0;startSize=0;swimlaneHead=0;swimlaneBody=0;fillColor=none;collapsible=0;dropTarget=0;points=[[0,0.5],[1,0.5]];portConstraint=eastwest;top=0;left=0;right=0;bottom=0;fontSize=16;" parent="asG9g9AnG80qoPKnlBR9-65" vertex="1">
          <mxGeometry y="330" width="200" height="30" as="geometry" />
        </mxCell>
        <mxCell id="asG9g9AnG80qoPKnlBR9-97" value="" style="shape=partialRectangle;connectable=0;fillColor=none;top=0;left=0;bottom=0;right=0;editable=1;overflow=hidden;fontSize=16;" parent="asG9g9AnG80qoPKnlBR9-96" vertex="1">
          <mxGeometry width="30" height="30" as="geometry">
            <mxRectangle width="30" height="30" as="alternateBounds" />
          </mxGeometry>
        </mxCell>
        <mxCell id="asG9g9AnG80qoPKnlBR9-98" value="YeuCauHocCu" style="shape=partialRectangle;connectable=0;fillColor=none;top=0;left=0;bottom=0;right=0;align=left;spacingLeft=6;overflow=hidden;fontSize=16;" parent="asG9g9AnG80qoPKnlBR9-96" vertex="1">
          <mxGeometry x="30" width="170" height="30" as="geometry">
            <mxRectangle width="170" height="30" as="alternateBounds" />
          </mxGeometry>
        </mxCell>
        <mxCell id="asG9g9AnG80qoPKnlBR9-99" value="" style="shape=tableRow;horizontal=0;startSize=0;swimlaneHead=0;swimlaneBody=0;fillColor=none;collapsible=0;dropTarget=0;points=[[0,0.5],[1,0.5]];portConstraint=eastwest;top=0;left=0;right=0;bottom=0;rounded=1;shadow=1;strokeColor=#b85450;strokeWidth=1;align=center;verticalAlign=middle;fontFamily=Helvetica;fontSize=16;fontColor=default;html=1;" parent="asG9g9AnG80qoPKnlBR9-65" vertex="1">
          <mxGeometry y="360" width="200" height="30" as="geometry" />
        </mxCell>
        <mxCell id="asG9g9AnG80qoPKnlBR9-100" value="" style="shape=partialRectangle;connectable=0;fillColor=none;top=0;left=0;bottom=0;right=0;editable=1;overflow=hidden;whiteSpace=wrap;html=1;rounded=1;shadow=1;strokeColor=#b85450;strokeWidth=1;align=center;verticalAlign=middle;fontFamily=Helvetica;fontSize=16;fontColor=default;startSize=30;" parent="asG9g9AnG80qoPKnlBR9-99" vertex="1">
          <mxGeometry width="30" height="30" as="geometry">
            <mxRectangle width="30" height="30" as="alternateBounds" />
          </mxGeometry>
        </mxCell>
        <mxCell id="asG9g9AnG80qoPKnlBR9-101" value="_CreateAt" style="shape=partialRectangle;connectable=0;fillColor=none;top=0;left=0;bottom=0;right=0;align=left;spacingLeft=6;overflow=hidden;whiteSpace=wrap;html=1;rounded=1;shadow=1;strokeColor=#b85450;strokeWidth=1;verticalAlign=middle;fontFamily=Helvetica;fontSize=16;fontColor=default;startSize=30;" parent="asG9g9AnG80qoPKnlBR9-99" vertex="1">
          <mxGeometry x="30" width="170" height="30" as="geometry">
            <mxRectangle width="170" height="30" as="alternateBounds" />
          </mxGeometry>
        </mxCell>
        <mxCell id="asG9g9AnG80qoPKnlBR9-102" value="" style="shape=tableRow;horizontal=0;startSize=0;swimlaneHead=0;swimlaneBody=0;fillColor=none;collapsible=0;dropTarget=0;points=[[0,0.5],[1,0.5]];portConstraint=eastwest;top=0;left=0;right=0;bottom=0;fontSize=16;" parent="asG9g9AnG80qoPKnlBR9-65" vertex="1">
          <mxGeometry y="390" width="200" height="30" as="geometry" />
        </mxCell>
        <mxCell id="asG9g9AnG80qoPKnlBR9-103" value="" style="shape=partialRectangle;connectable=0;fillColor=none;top=0;left=0;bottom=0;right=0;editable=1;overflow=hidden;fontSize=16;" parent="asG9g9AnG80qoPKnlBR9-102" vertex="1">
          <mxGeometry width="30" height="30" as="geometry">
            <mxRectangle width="30" height="30" as="alternateBounds" />
          </mxGeometry>
        </mxCell>
        <mxCell id="asG9g9AnG80qoPKnlBR9-104" value="_DeleteAt" style="shape=partialRectangle;connectable=0;fillColor=none;top=0;left=0;bottom=0;right=0;align=left;spacingLeft=6;overflow=hidden;fontSize=16;" parent="asG9g9AnG80qoPKnlBR9-102" vertex="1">
          <mxGeometry x="30" width="170" height="30" as="geometry">
            <mxRectangle width="170" height="30" as="alternateBounds" />
          </mxGeometry>
        </mxCell>
        <mxCell id="d1GvOQE4ABKlye4kpMun-1" value="DsMPHKhac" style="shape=table;startSize=30;container=1;collapsible=1;childLayout=tableLayout;fixedRows=1;rowLines=0;fontStyle=1;align=center;resizeLast=1;html=1;whiteSpace=wrap;rounded=1;shadow=1;strokeColor=#d6b656;strokeWidth=1;verticalAlign=middle;fontFamily=Helvetica;fontSize=16;fillColor=#fff2cc;" vertex="1" parent="1">
          <mxGeometry x="860" y="420" width="200" height="150" as="geometry" />
        </mxCell>
        <mxCell id="d1GvOQE4ABKlye4kpMun-2" value="" style="shape=tableRow;horizontal=0;startSize=0;swimlaneHead=0;swimlaneBody=0;fillColor=none;collapsible=0;dropTarget=0;points=[[0,0.5],[1,0.5]];portConstraint=eastwest;top=0;left=0;right=0;bottom=0;html=1;rounded=1;shadow=1;strokeColor=#b85450;strokeWidth=1;align=center;verticalAlign=middle;fontFamily=Helvetica;fontSize=16;fontColor=default;" vertex="1" parent="d1GvOQE4ABKlye4kpMun-1">
          <mxGeometry y="30" width="200" height="30" as="geometry" />
        </mxCell>
        <mxCell id="d1GvOQE4ABKlye4kpMun-3" value="PK,FK" style="shape=partialRectangle;connectable=0;fillColor=none;top=0;left=0;bottom=0;right=0;fontStyle=1;overflow=hidden;html=1;whiteSpace=wrap;rounded=1;shadow=1;strokeColor=#b85450;strokeWidth=1;align=center;verticalAlign=middle;fontFamily=Helvetica;fontSize=16;fontColor=default;startSize=30;" vertex="1" parent="d1GvOQE4ABKlye4kpMun-2">
          <mxGeometry width="50" height="30" as="geometry">
            <mxRectangle width="50" height="30" as="alternateBounds" />
          </mxGeometry>
        </mxCell>
        <mxCell id="d1GvOQE4ABKlye4kpMun-4" value="MaLMPH" style="shape=partialRectangle;connectable=0;fillColor=none;top=0;left=0;bottom=0;right=0;align=left;spacingLeft=6;fontStyle=5;overflow=hidden;html=1;whiteSpace=wrap;rounded=1;shadow=1;strokeColor=#b85450;strokeWidth=1;verticalAlign=middle;fontFamily=Helvetica;fontSize=16;fontColor=default;startSize=30;" vertex="1" parent="d1GvOQE4ABKlye4kpMun-2">
          <mxGeometry x="50" width="150" height="30" as="geometry">
            <mxRectangle width="150" height="30" as="alternateBounds" />
          </mxGeometry>
        </mxCell>
        <mxCell id="d1GvOQE4ABKlye4kpMun-5" value="" style="shape=tableRow;horizontal=0;startSize=0;swimlaneHead=0;swimlaneBody=0;fillColor=none;collapsible=0;dropTarget=0;points=[[0,0.5],[1,0.5]];portConstraint=eastwest;top=0;left=0;right=0;bottom=1;html=1;rounded=1;shadow=1;strokeColor=#b85450;strokeWidth=1;align=center;verticalAlign=middle;fontFamily=Helvetica;fontSize=16;fontColor=default;" vertex="1" parent="d1GvOQE4ABKlye4kpMun-1">
          <mxGeometry y="60" width="200" height="30" as="geometry" />
        </mxCell>
        <mxCell id="d1GvOQE4ABKlye4kpMun-6" value="PK,FK" style="shape=partialRectangle;connectable=0;fillColor=none;top=0;left=0;bottom=0;right=0;fontStyle=1;overflow=hidden;html=1;whiteSpace=wrap;rounded=1;shadow=1;strokeColor=#b85450;strokeWidth=1;align=center;verticalAlign=middle;fontFamily=Helvetica;fontSize=16;fontColor=default;startSize=30;" vertex="1" parent="d1GvOQE4ABKlye4kpMun-5">
          <mxGeometry width="50" height="30" as="geometry">
            <mxRectangle width="50" height="30" as="alternateBounds" />
          </mxGeometry>
        </mxCell>
        <mxCell id="d1GvOQE4ABKlye4kpMun-7" value="IdTaiKhoan_MPH" style="shape=partialRectangle;connectable=0;fillColor=none;top=0;left=0;bottom=0;right=0;align=left;spacingLeft=6;fontStyle=5;overflow=hidden;html=1;whiteSpace=wrap;rounded=1;shadow=1;strokeColor=#b85450;strokeWidth=1;verticalAlign=middle;fontFamily=Helvetica;fontSize=16;fontColor=default;startSize=30;" vertex="1" parent="d1GvOQE4ABKlye4kpMun-5">
          <mxGeometry x="50" width="150" height="30" as="geometry">
            <mxRectangle width="150" height="30" as="alternateBounds" />
          </mxGeometry>
        </mxCell>
        <mxCell id="d1GvOQE4ABKlye4kpMun-8" value="" style="shape=tableRow;horizontal=0;startSize=0;swimlaneHead=0;swimlaneBody=0;fillColor=none;collapsible=0;dropTarget=0;points=[[0,0.5],[1,0.5]];portConstraint=eastwest;top=0;left=0;right=0;bottom=0;html=1;rounded=1;shadow=1;strokeColor=#b85450;strokeWidth=1;align=center;verticalAlign=middle;fontFamily=Helvetica;fontSize=16;fontColor=default;" vertex="1" parent="d1GvOQE4ABKlye4kpMun-1">
          <mxGeometry y="90" width="200" height="30" as="geometry" />
        </mxCell>
        <mxCell id="d1GvOQE4ABKlye4kpMun-9" value="" style="shape=partialRectangle;connectable=0;fillColor=none;top=0;left=0;bottom=0;right=0;editable=1;overflow=hidden;html=1;whiteSpace=wrap;rounded=1;shadow=1;strokeColor=#b85450;strokeWidth=1;align=center;verticalAlign=middle;fontFamily=Helvetica;fontSize=16;fontColor=default;startSize=30;" vertex="1" parent="d1GvOQE4ABKlye4kpMun-8">
          <mxGeometry width="50" height="30" as="geometry">
            <mxRectangle width="50" height="30" as="alternateBounds" />
          </mxGeometry>
        </mxCell>
        <mxCell id="d1GvOQE4ABKlye4kpMun-10" value="_UpdateAt" style="shape=partialRectangle;connectable=0;fillColor=none;top=0;left=0;bottom=0;right=0;align=left;spacingLeft=6;overflow=hidden;html=1;whiteSpace=wrap;rounded=1;shadow=1;strokeColor=#b85450;strokeWidth=1;verticalAlign=middle;fontFamily=Helvetica;fontSize=16;fontColor=default;startSize=30;" vertex="1" parent="d1GvOQE4ABKlye4kpMun-8">
          <mxGeometry x="50" width="150" height="30" as="geometry">
            <mxRectangle width="150" height="30" as="alternateBounds" />
          </mxGeometry>
        </mxCell>
        <mxCell id="d1GvOQE4ABKlye4kpMun-11" value="" style="shape=tableRow;horizontal=0;startSize=0;swimlaneHead=0;swimlaneBody=0;fillColor=none;collapsible=0;dropTarget=0;points=[[0,0.5],[1,0.5]];portConstraint=eastwest;top=0;left=0;right=0;bottom=0;html=1;rounded=1;shadow=1;strokeColor=#b85450;strokeWidth=1;align=center;verticalAlign=middle;fontFamily=Helvetica;fontSize=16;fontColor=default;" vertex="1" parent="d1GvOQE4ABKlye4kpMun-1">
          <mxGeometry y="120" width="200" height="30" as="geometry" />
        </mxCell>
        <mxCell id="d1GvOQE4ABKlye4kpMun-12" value="" style="shape=partialRectangle;connectable=0;fillColor=none;top=0;left=0;bottom=0;right=0;editable=1;overflow=hidden;html=1;whiteSpace=wrap;rounded=1;shadow=1;strokeColor=#b85450;strokeWidth=1;align=center;verticalAlign=middle;fontFamily=Helvetica;fontSize=16;fontColor=default;startSize=30;" vertex="1" parent="d1GvOQE4ABKlye4kpMun-11">
          <mxGeometry width="50" height="30" as="geometry">
            <mxRectangle width="50" height="30" as="alternateBounds" />
          </mxGeometry>
        </mxCell>
        <mxCell id="d1GvOQE4ABKlye4kpMun-13" value="_DeleteAt" style="shape=partialRectangle;connectable=0;fillColor=none;top=0;left=0;bottom=0;right=0;align=left;spacingLeft=6;overflow=hidden;html=1;whiteSpace=wrap;rounded=1;shadow=1;strokeColor=#b85450;strokeWidth=1;verticalAlign=middle;fontFamily=Helvetica;fontSize=16;fontColor=default;startSize=30;" vertex="1" parent="d1GvOQE4ABKlye4kpMun-11">
          <mxGeometry x="50" width="150" height="30" as="geometry">
            <mxRectangle width="150" height="30" as="alternateBounds" />
          </mxGeometry>
        </mxCell>
        <mxCell id="2zjoFCt8_K5sueWDIw7g-1" value="" style="edgeStyle=entityRelationEdgeStyle;fontSize=12;html=1;endArrow=ERzeroToMany;startArrow=ERzeroToOne;rounded=0;startSize=8;endSize=8;curved=1;" edge="1" parent="1" source="vrLC8PR-I297rd5SDueU-28" target="asG9g9AnG80qoPKnlBR9-69">
          <mxGeometry width="100" height="100" relative="1" as="geometry">
            <mxPoint x="730" y="620" as="sourcePoint" />
            <mxPoint x="840" y="550" as="targetPoint" />
          </mxGeometry>
        </mxCell>
        <mxCell id="Z3Mg0h87EPXHxPZ2yaJl-1" value="" style="edgeStyle=entityRelationEdgeStyle;fontSize=12;html=1;endArrow=ERzeroToOne;startArrow=ERmandOne;rounded=0;fontFamily=Helvetica;fontColor=default;startSize=8;endSize=8;curved=1;shadow=1;" edge="1" parent="1" source="asG9g9AnG80qoPKnlBR9-66" target="d1GvOQE4ABKlye4kpMun-2">
          <mxGeometry width="100" height="100" relative="1" as="geometry">
            <mxPoint x="1330" y="85" as="sourcePoint" />
            <mxPoint x="1410" y="115" as="targetPoint" />
          </mxGeometry>
        </mxCell>
        <mxCell id="Z3Mg0h87EPXHxPZ2yaJl-2" value="" style="edgeStyle=entityRelationEdgeStyle;fontSize=12;html=1;endArrow=ERoneToMany;startArrow=ERmandOne;rounded=0;startSize=8;endSize=8;curved=1;" edge="1" parent="1" source="RukVrsXD96MS80fE2SNg-2" target="d1GvOQE4ABKlye4kpMun-5">
          <mxGeometry width="100" height="100" relative="1" as="geometry">
            <mxPoint x="1070" y="665" as="sourcePoint" />
            <mxPoint x="1080" y="1015" as="targetPoint" />
          </mxGeometry>
        </mxCell>
      </root>
    </mxGraphModel>
  </diagram>
</mxfile>
